<svg width="350" height="350" viewBox="0 0 350 350" fill="none" xmlns="http://www.w3.org/2000/svg">
<g clip-path="url(#clip0_52_738)">
<path d="M11.449 216.45C11.3948 216.384 11.3562 216.305 11.3366 216.22C4.02842 184.672 5.25713 151.623 14.8854 120.763C24.5138 89.9038 42.1625 62.4499 65.8598 41.4687C89.5571 20.4876 118.37 6.80564 149.078 1.9515C179.787 -2.90265 211.182 1.26221 239.757 13.9807C239.821 14.0094 239.88 14.0511 239.929 14.1034C239.978 14.1557 240.017 14.2176 240.043 14.2856C240.069 14.3536 240.083 14.4263 240.082 14.4996C240.081 14.5729 240.067 14.6453 240.039 14.7128C240.012 14.7802 239.972 14.8414 239.922 14.8927C239.872 14.944 239.813 14.9846 239.748 15.012C239.683 15.0394 239.613 15.0532 239.543 15.0525C239.473 15.0518 239.403 15.0367 239.339 15.008C180.878 -10.9716 114.541 -0.383788 66.2152 42.6397C18.1843 85.4006 -2.44592 151.812 12.3753 215.957C12.4035 216.079 12.3915 216.208 12.3413 216.322C12.291 216.436 12.2054 216.529 12.0984 216.586C11.9913 216.643 11.8689 216.661 11.7511 216.636C11.6333 216.611 11.5269 216.546 11.449 216.45Z" fill="#C8C8C8"/>
<path d="M109.087 336.237C109.008 336.142 108.963 336.021 108.959 335.896C108.954 335.77 108.99 335.647 109.061 335.545C109.132 335.444 109.234 335.37 109.35 335.337C109.465 335.303 109.589 335.311 109.699 335.36C167.94 360.851 233.958 350.123 281.99 307.361C330.771 263.933 351.486 197.176 336.052 133.141C336.034 133.07 336.031 132.996 336.041 132.924C336.051 132.851 336.075 132.782 336.111 132.719C336.147 132.656 336.195 132.601 336.251 132.557C336.307 132.513 336.371 132.482 336.439 132.464C336.507 132.446 336.578 132.442 336.648 132.453C336.717 132.464 336.784 132.489 336.844 132.526C336.904 132.564 336.957 132.613 336.998 132.672C337.04 132.731 337.071 132.798 337.088 132.869C344.578 163.985 343.628 196.667 334.345 227.25C324.734 258.769 306.831 286.824 282.683 308.211C259.104 329.213 230.412 342.967 199.8 347.942C169.187 352.917 137.854 348.918 109.286 336.39C109.209 336.356 109.141 336.304 109.087 336.237Z" fill="#C8C8C8"/>
<path d="M96.7429 346.145C96.6974 346.089 96.6628 346.025 96.6412 345.955C96.6196 345.885 96.6113 345.812 96.6169 345.739C96.6225 345.666 96.6419 345.594 96.6738 345.529C96.7057 345.464 96.7497 345.406 96.8031 345.358L349.119 120.727C349.227 120.631 349.367 120.583 349.508 120.595C349.65 120.607 349.78 120.677 349.872 120.79C349.964 120.902 350.009 121.049 349.998 121.196C349.987 121.344 349.92 121.481 349.812 121.577L97.4958 346.208C97.4424 346.256 97.3806 346.292 97.3139 346.314C97.2471 346.337 97.1768 346.346 97.1069 346.34C97.0369 346.334 96.9688 346.314 96.9064 346.28C96.8439 346.247 96.7883 346.201 96.7429 346.145Z" fill="#C8C8C8"/>
<path d="M0.127576 227.613C0.0820763 227.558 0.0475464 227.493 0.025948 227.423C0.00434956 227.353 -0.00389356 227.28 0.00169984 227.207C0.00729323 227.134 0.0266101 227.063 0.0585432 226.997C0.0904763 226.932 0.134403 226.874 0.187811 226.827L252.504 2.19492C252.612 2.0991 252.752 2.05194 252.893 2.06381C253.034 2.07568 253.165 2.14561 253.257 2.25823C253.348 2.37086 253.394 2.51696 253.382 2.66444C253.371 2.81192 253.304 2.94871 253.197 3.04476L0.880513 227.676C0.827128 227.724 0.765301 227.76 0.698565 227.783C0.631828 227.805 0.561489 227.814 0.491568 227.808C0.421646 227.802 0.353517 227.782 0.291062 227.748C0.228607 227.715 0.173049 227.669 0.127576 227.613Z" fill="#C8C8C8"/>
<path d="M96.7429 346.145C96.6974 346.089 96.6628 346.025 96.6412 345.955C96.6196 345.885 96.6113 345.812 96.6169 345.739C96.6225 345.666 96.6419 345.594 96.6738 345.529C96.7057 345.464 96.7497 345.406 96.8031 345.358L349.119 120.727C349.227 120.631 349.367 120.583 349.508 120.595C349.65 120.607 349.78 120.677 349.872 120.79C349.964 120.902 350.009 121.049 349.998 121.196C349.987 121.344 349.92 121.481 349.812 121.577L97.4958 346.208C97.4424 346.256 97.3806 346.292 97.3139 346.314C97.2471 346.337 97.1768 346.346 97.1069 346.34C97.0369 346.334 96.9688 346.314 96.9064 346.28C96.8439 346.247 96.7883 346.201 96.7429 346.145Z" fill="#C8C8C8"/>
<path d="M294.996 92.5853H197.341V92.0509C197.341 91.6348 197.183 91.2357 196.902 90.9414C196.62 90.6471 196.238 90.4818 195.84 90.4818H154.562C154.164 90.4818 153.782 90.6471 153.501 90.9414C153.219 91.2357 153.061 91.6348 153.061 92.0509V92.5853H55.0043C53.2524 92.5853 51.5722 93.3127 50.3334 94.6073C49.0946 95.902 48.3987 97.6579 48.3987 99.4888V239.238C48.3987 241.069 49.0946 242.825 50.3334 244.12C51.5722 245.414 53.2524 246.142 55.0043 246.142H294.996C296.748 246.142 298.428 245.414 299.666 244.12C300.905 242.825 301.601 241.069 301.601 239.238V99.4888C301.601 97.6579 300.905 95.902 299.667 94.6073C298.428 93.3127 296.748 92.5853 294.996 92.5853Z" fill="#232121"/>
<path d="M60.2575 107.278C60.0936 107.278 59.9365 107.346 59.8206 107.467C59.7047 107.589 59.6396 107.753 59.6394 107.924V240.479C59.6396 240.651 59.7048 240.815 59.8206 240.936C59.9365 241.057 60.0936 241.125 60.2575 241.125H289.742C289.906 241.125 290.063 241.057 290.179 240.936C290.295 240.815 290.36 240.651 290.36 240.479V107.924C290.36 107.753 290.295 107.588 290.179 107.467C290.063 107.346 289.906 107.278 289.742 107.278H60.2575Z" fill="#C21D03"/>
<path d="M174.799 100.999C176.133 100.999 177.214 99.8692 177.214 98.4751C177.214 97.0811 176.133 95.9509 174.799 95.9509C173.465 95.9509 172.383 97.0811 172.383 98.4751C172.383 99.8692 173.465 100.999 174.799 100.999Z" fill="#6C63FF"/>
<path d="M305.999 236.723H283.017V234.242C283.017 234.106 282.87 233.996 282.688 233.996H274.809C274.627 233.996 274.48 234.106 274.48 234.242V236.723H269.556V234.242C269.556 234.106 269.409 233.996 269.227 233.996H261.348C261.166 233.996 261.019 234.106 261.019 234.242V236.723H256.095V234.242C256.095 234.106 255.948 233.996 255.766 233.996H247.887C247.705 233.996 247.558 234.106 247.558 234.242V236.723H242.634V234.242C242.634 234.106 242.487 233.996 242.305 233.996H234.426C234.244 233.996 234.097 234.106 234.097 234.242V236.723H229.172V234.242C229.172 234.106 229.025 233.996 228.844 233.996H220.964C220.783 233.996 220.636 234.106 220.636 234.242V236.723H215.711V234.242C215.711 234.106 215.564 233.996 215.383 233.996H207.503C207.322 233.996 207.175 234.106 207.175 234.242V236.723H202.25V234.242C202.25 234.106 202.103 233.996 201.922 233.996H140.198C140.017 233.996 139.87 234.106 139.87 234.242V236.723H134.945V234.242C134.945 234.106 134.798 233.996 134.617 233.996H126.737C126.556 233.996 126.409 234.106 126.409 234.242V236.723H121.484V234.242C121.484 234.106 121.337 233.996 121.155 233.996H113.276C113.094 233.996 112.948 234.106 112.948 234.242V236.723H108.023V234.242C108.023 234.106 107.876 233.996 107.694 233.996H99.8148C99.6334 233.996 99.4864 234.106 99.4864 234.242V236.723H94.5616V234.242C94.5616 234.106 94.4147 233.996 94.2333 233.996H86.3537C86.1723 233.996 86.0254 234.106 86.0254 234.242V236.723H81.1006V234.242C81.1006 234.106 80.9536 233.996 80.7723 233.996H72.8926C72.7113 233.996 72.5643 234.106 72.5643 234.242V236.723H67.6395V234.242C67.6395 234.106 67.4925 233.996 67.3112 233.996H59.4315C59.2502 233.996 59.1032 234.106 59.1032 234.242V236.723H44.0005C39.6487 236.723 36.1208 239.373 36.1208 242.643V245.32C36.1208 248.589 39.6487 251.239 44.0005 251.239H305.999C310.351 251.239 313.879 248.589 313.879 245.32V242.643C313.879 239.373 310.351 236.723 305.999 236.723Z" fill="#232121"/>
<path d="M148.282 163.046H80.4511C80.3094 163.046 80.1736 162.987 80.0734 162.882C79.9733 162.778 79.917 162.636 79.917 162.488C79.917 162.34 79.9733 162.198 80.0734 162.093C80.1736 161.988 80.3094 161.93 80.4511 161.93H148.282C148.423 161.93 148.559 161.988 148.659 162.093C148.759 162.198 148.816 162.34 148.816 162.488C148.816 162.636 148.759 162.778 148.659 162.882C148.559 162.987 148.423 163.046 148.282 163.046Z" fill="#F1F1F1"/>
<path d="M148.282 175.326H80.4511C80.3094 175.326 80.1736 175.267 80.0734 175.163C79.9733 175.058 79.917 174.916 79.917 174.768C79.917 174.62 79.9733 174.478 80.0734 174.373C80.1736 174.269 80.3094 174.21 80.4511 174.21H148.282C148.423 174.21 148.559 174.269 148.659 174.373C148.759 174.478 148.816 174.62 148.816 174.768C148.816 174.916 148.759 175.058 148.659 175.163C148.559 175.267 148.423 175.326 148.282 175.326Z" fill="#F1F1F1"/>
<path d="M148.282 187.606H80.451C80.3807 187.606 80.3111 187.592 80.2461 187.564C80.1811 187.536 80.122 187.495 80.0723 187.443C80.0225 187.391 79.983 187.33 79.9561 187.262C79.9292 187.194 79.9153 187.121 79.9153 187.048C79.9153 186.974 79.9292 186.902 79.9561 186.834C79.983 186.766 80.0225 186.704 80.0723 186.653C80.122 186.601 80.1811 186.56 80.2461 186.532C80.3111 186.504 80.3807 186.49 80.451 186.49H148.282C148.352 186.49 148.421 186.504 148.486 186.532C148.551 186.56 148.61 186.601 148.66 186.653C148.71 186.704 148.75 186.766 148.776 186.834C148.803 186.902 148.817 186.974 148.817 187.048C148.817 187.121 148.803 187.194 148.776 187.262C148.75 187.33 148.71 187.391 148.66 187.443C148.61 187.495 148.551 187.536 148.486 187.564C148.421 187.592 148.352 187.606 148.282 187.606Z" fill="#F1F1F1"/>
<path d="M263.38 130.95H179.526C178.641 130.95 177.924 131.7 177.924 132.625V216.911C177.924 217.836 178.641 218.585 179.526 218.585H263.38C264.265 218.585 264.982 217.836 264.982 216.911V132.625C264.982 131.7 264.265 130.95 263.38 130.95Z" fill="#F1F1F1"/>
<path d="M195.357 177.33C195.644 172.022 197.726 166.993 201.231 163.14C204.736 159.287 209.436 156.86 214.494 156.292C219.552 155.724 224.638 157.052 228.846 160.038C233.055 163.025 236.111 167.477 237.471 172.6C237.731 172.59 237.991 172.579 238.253 172.579C239.148 172.588 240.036 172.746 240.883 173.047C251.56 176.711 248.749 193.371 237.511 193.371H209.892C207.939 193.376 206.005 192.97 204.205 192.176C202.406 191.382 200.778 190.217 199.419 188.75C198.061 187.284 196.999 185.545 196.299 183.64C195.598 181.734 195.273 179.701 195.342 177.66C195.346 177.55 195.351 177.44 195.357 177.33Z" fill="#C21D03"/>
<path d="M220.53 176.98V167.798H215.8V176.98H212.023L215.094 182.54L218.165 188.099L221.236 182.54L224.307 176.98H220.53Z" fill="#F1F1F1"/>
</g>
<defs>
<clipPath id="clip0_52_738">
<rect width="350" height="350" fill="white"/>
</clipPath>
</defs>
</svg>
