<svg width="150" height="150" viewBox="0 0 150 150" fill="none" xmlns="http://www.w3.org/2000/svg">
<g clip-path="url(#clip0_47_56)">
<path d="M4.9068 92.7643C4.88354 92.7358 4.86703 92.702 4.85862 92.6656C1.72654 79.1453 2.25313 64.9812 6.37955 51.7557C10.506 38.5302 18.0697 26.7642 28.2257 17.7723C38.3817 8.78039 50.7299 2.9167 63.8908 0.836355C77.0517 -1.24399 90.5068 0.540946 102.753 5.99174C102.781 6.00404 102.806 6.0219 102.827 6.04432C102.848 6.06673 102.864 6.09327 102.876 6.1224C102.887 6.15153 102.893 6.18269 102.892 6.2141C102.892 6.24551 102.886 6.27656 102.874 6.30547C102.862 6.33437 102.845 6.36058 102.824 6.38258C102.802 6.40459 102.777 6.42196 102.749 6.43371C102.721 6.44546 102.691 6.45136 102.661 6.45107C102.631 6.45077 102.602 6.4443 102.574 6.43201C77.5193 -4.7021 49.0891 -0.16448 28.378 18.2742C7.79333 36.6003 -1.04818 65.0622 5.30376 92.5531C5.31586 92.6054 5.31073 92.6605 5.28919 92.7094C5.26766 92.7583 5.23097 92.7981 5.18508 92.8225C5.13918 92.847 5.08675 92.8545 5.03626 92.8439C4.98576 92.8334 4.94016 92.8053 4.9068 92.7643Z" fill="#E6E6E6"/>
<path d="M46.7514 144.102C46.7179 144.061 46.6986 144.009 46.6966 143.955C46.6947 143.902 46.7101 143.849 46.7405 143.805C46.7709 143.762 46.8144 143.73 46.8641 143.716C46.9137 143.701 46.9665 143.705 47.014 143.726C71.9744 154.651 100.268 150.053 120.853 131.726C141.759 113.114 150.637 84.5039 144.022 57.0606C144.015 57.0302 144.013 56.9985 144.018 56.9674C144.022 56.9363 144.032 56.9065 144.048 56.8795C144.063 56.8525 144.083 56.829 144.108 56.8103C144.132 56.7915 144.159 56.7779 144.188 56.7703C144.217 56.7626 144.248 56.761 144.277 56.7656C144.307 56.7702 144.336 56.7809 144.362 56.797C144.387 56.8131 144.41 56.8344 144.428 56.8596C144.446 56.8848 144.459 56.9135 144.466 56.944C147.676 70.2795 147.269 84.2857 143.291 97.3931C139.172 110.901 131.499 122.925 121.15 132.09C111.045 141.091 98.7481 146.986 85.6284 149.118C72.5086 151.25 59.0801 149.536 46.8369 144.167C46.8039 144.153 46.7746 144.13 46.7514 144.102Z" fill="#E6E6E6"/>
<path d="M41.4613 148.348C41.4418 148.324 41.4269 148.296 41.4177 148.266C41.4084 148.237 41.4049 148.205 41.4073 148.174C41.4097 148.142 41.418 148.112 41.4317 148.084C41.4453 148.056 41.4642 148.031 41.4871 148.011L149.623 51.74C149.669 51.6989 149.729 51.6786 149.789 51.6837C149.85 51.6887 149.906 51.7187 149.945 51.767C149.985 51.8153 150.004 51.878 149.999 51.9412C149.994 52.0045 149.966 52.0631 149.92 52.1043L41.7839 148.375C41.7611 148.395 41.7346 148.411 41.706 148.42C41.6774 148.43 41.6472 148.434 41.6173 148.431C41.5873 148.429 41.5581 148.42 41.5313 148.406C41.5046 148.392 41.4807 148.372 41.4613 148.348Z" fill="#E6E6E6"/>
<path d="M0.0546755 97.5486C0.0351755 97.5247 0.020377 97.497 0.0111206 97.4671C0.0018641 97.4372 -0.00166867 97.4057 0.000728502 97.3744C0.00312567 97.3431 0.0114043 97.3126 0.02509 97.2846C0.0387756 97.2566 0.0576011 97.2317 0.0804904 97.2114L108.216 0.940689C108.262 0.899622 108.322 0.879412 108.383 0.8845C108.443 0.889588 108.499 0.919557 108.539 0.967823C108.578 1.01609 108.597 1.07871 108.592 1.14191C108.588 1.20512 108.559 1.26374 108.513 1.3049L0.377363 97.5756C0.354483 97.596 0.327986 97.6114 0.299385 97.6211C0.270783 97.6308 0.240638 97.6345 0.210672 97.632C0.180705 97.6294 0.151507 97.6208 0.124741 97.6065C0.0979745 97.5922 0.074164 97.5725 0.0546755 97.5486Z" fill="#E6E6E6"/>
<path d="M41.4613 148.348C41.4418 148.324 41.4269 148.296 41.4177 148.266C41.4084 148.237 41.4049 148.205 41.4073 148.174C41.4097 148.142 41.418 148.112 41.4317 148.084C41.4453 148.056 41.4642 148.031 41.4871 148.011L149.623 51.74C149.669 51.6989 149.729 51.6786 149.789 51.6837C149.85 51.6887 149.906 51.7187 149.945 51.767C149.985 51.8153 150.004 51.878 149.999 51.9412C149.994 52.0045 149.966 52.0631 149.92 52.1043L41.7839 148.375C41.7611 148.395 41.7346 148.411 41.706 148.42C41.6774 148.43 41.6472 148.434 41.6173 148.431C41.5873 148.429 41.5581 148.42 41.5313 148.406C41.5046 148.392 41.4807 148.372 41.4613 148.348Z" fill="#E6E6E6"/>
<path d="M126.427 39.6794H84.5748V39.4504C84.5748 39.272 84.507 39.101 84.3864 38.9749C84.2657 38.8487 84.102 38.7779 83.9314 38.7779H66.241C66.0704 38.7779 65.9067 38.8487 65.786 38.9749C65.6654 39.101 65.5976 39.272 65.5976 39.4504V39.6794H23.5732C22.8224 39.6794 22.1023 39.9911 21.5714 40.546C21.0405 41.1008 20.7422 41.8533 20.7422 42.638V102.531C20.7422 103.315 21.0405 104.068 21.5714 104.623C22.1023 105.177 22.8224 105.489 23.5732 105.489H126.427C127.177 105.489 127.898 105.177 128.428 104.623C128.959 104.068 129.258 103.315 129.258 102.531V42.638C129.258 41.8533 128.959 41.1008 128.428 40.546C127.898 39.9911 127.177 39.6794 126.427 39.6794Z" fill="#3F3D56"/>
<path d="M25.8246 45.9762C25.7544 45.9763 25.6871 46.0055 25.6374 46.0574C25.5878 46.1093 25.5598 46.1797 25.5598 46.2531V103.063C25.5598 103.136 25.5878 103.206 25.6374 103.258C25.6871 103.31 25.7544 103.339 25.8246 103.339H124.175C124.246 103.339 124.313 103.31 124.363 103.258C124.412 103.206 124.44 103.136 124.44 103.063V46.2531C124.44 46.1797 124.412 46.1093 124.363 46.0574C124.313 46.0055 124.246 45.9763 124.175 45.9762H25.8246Z" fill="#356169"/>
<path d="M74.9137 43.2854C75.4854 43.2854 75.9488 42.8011 75.9488 42.2036C75.9488 41.6062 75.4854 41.1218 74.9137 41.1218C74.342 41.1218 73.8786 41.6062 73.8786 42.2036C73.8786 42.8011 74.342 43.2854 74.9137 43.2854Z" fill="#6C63FF"/>
<path d="M131.143 101.453H121.293V100.39C121.293 100.331 121.23 100.284 121.152 100.284H117.775C117.698 100.284 117.635 100.331 117.635 100.39V101.453H115.524V100.39C115.524 100.331 115.461 100.284 115.383 100.284H112.006C111.929 100.284 111.866 100.331 111.866 100.39V101.453H109.755V100.39C109.755 100.331 109.692 100.284 109.614 100.284H106.237C106.159 100.284 106.096 100.331 106.096 100.39V101.453H103.986V100.39C103.986 100.331 103.923 100.284 103.845 100.284H100.468C100.39 100.284 100.327 100.331 100.327 100.39V101.453H98.2168V100.39C98.2168 100.331 98.1538 100.284 98.0761 100.284H94.6991C94.6214 100.284 94.5584 100.331 94.5584 100.39V101.453H92.4478V100.39C92.4478 100.331 92.3848 100.284 92.3071 100.284H88.9301C88.8524 100.284 88.7894 100.331 88.7894 100.39V101.453H86.6787V100.39C86.6787 100.331 86.6158 100.284 86.538 100.284H60.0849C60.0072 100.284 59.9442 100.331 59.9442 100.39V101.453H57.8336V100.39C57.8336 100.331 57.7706 100.284 57.6929 100.284H54.3159C54.2382 100.284 54.1752 100.331 54.1752 100.39V101.453H52.0645V100.39C52.0645 100.331 52.0015 100.284 51.9238 100.284H48.5468C48.4691 100.284 48.4061 100.331 48.4061 100.39V101.453H46.2955V100.39C46.2955 100.331 46.2325 100.284 46.1548 100.284H42.7778C42.7001 100.284 42.6371 100.331 42.6371 100.39V101.453H40.5265V100.39C40.5265 100.331 40.4635 100.284 40.3858 100.284H37.0088C36.931 100.284 36.8681 100.331 36.8681 100.39V101.453H34.7574V100.39C34.7574 100.331 34.6944 100.284 34.6167 100.284H31.2397C31.162 100.284 31.099 100.331 31.099 100.39V101.453H28.9884V100.39C28.9884 100.331 28.9254 100.284 28.8477 100.284H25.4707C25.393 100.284 25.33 100.331 25.33 100.39V101.453H18.8574C16.9923 101.453 15.4804 102.589 15.4804 103.99V105.137C15.4804 106.538 16.9923 107.674 18.8574 107.674H131.143C133.008 107.674 134.52 106.538 134.52 105.137V103.99C134.52 102.589 133.008 101.453 131.143 101.453Z" fill="#3F3D56"/>
<path d="M63.5493 69.8769H34.479C34.4183 69.8769 34.3601 69.8517 34.3172 69.8068C34.2742 69.762 34.2501 69.7011 34.2501 69.6377C34.2501 69.5742 34.2742 69.5134 34.3172 69.4685C34.3601 69.4236 34.4183 69.3984 34.479 69.3984H63.5493C63.61 69.3984 63.6682 69.4236 63.7111 69.4685C63.7541 69.5134 63.7782 69.5742 63.7782 69.6377C63.7782 69.7011 63.7541 69.762 63.7111 69.8068C63.6682 69.8517 63.61 69.8769 63.5493 69.8769Z" fill="#F2F2F2"/>
<path d="M63.5493 75.1397H34.479C34.4183 75.1397 34.3601 75.1145 34.3172 75.0696C34.2742 75.0248 34.2501 74.9639 34.2501 74.9005C34.2501 74.837 34.2742 74.7762 34.3172 74.7313C34.3601 74.6865 34.4183 74.6613 34.479 74.6613H63.5493C63.61 74.6613 63.6682 74.6865 63.7111 74.7313C63.7541 74.7762 63.7782 74.837 63.7782 74.9005C63.7782 74.9639 63.7541 75.0248 63.7111 75.0696C63.6682 75.1145 63.61 75.1397 63.5493 75.1397Z" fill="#F2F2F2"/>
<path d="M63.5492 80.4026H34.479C34.4489 80.4027 34.419 80.3966 34.3912 80.3846C34.3633 80.3727 34.338 80.3551 34.3167 80.3328C34.2953 80.3106 34.2784 80.2842 34.2669 80.2551C34.2553 80.2261 34.2494 80.1949 34.2494 80.1634C34.2494 80.1319 34.2553 80.1008 34.2669 80.0717C34.2784 80.0426 34.2953 80.0162 34.3167 79.994C34.338 79.9718 34.3633 79.9542 34.3912 79.9422C34.419 79.9302 34.4489 79.9241 34.479 79.9242H63.5492C63.5793 79.9241 63.6092 79.9302 63.637 79.9422C63.6649 79.9542 63.6902 79.9718 63.7115 79.994C63.7328 80.0162 63.7498 80.0426 63.7613 80.0717C63.7729 80.1008 63.7788 80.1319 63.7788 80.1634C63.7788 80.1949 63.7729 80.2261 63.7613 80.2551C63.7498 80.2842 63.7328 80.3106 63.7115 80.3328C63.6902 80.3551 63.6649 80.3727 63.637 80.3846C63.6092 80.3966 63.5793 80.4027 63.5492 80.4026Z" fill="#F2F2F2"/>
<path d="M112.877 56.1215H76.9399C76.5606 56.1215 76.2532 56.4428 76.2532 56.8392V92.9618C76.2532 93.3581 76.5606 93.6795 76.9399 93.6795H112.877C113.256 93.6795 113.564 93.3581 113.564 92.9618V56.8392C113.564 56.4428 113.256 56.1215 112.877 56.1215Z" fill="white"/>
<path d="M83.7243 75.9984C83.8474 73.7236 84.7396 71.5684 86.2417 69.9171C87.7438 68.2658 89.7583 67.2257 91.9259 66.9823C94.0936 66.7389 96.2735 67.3079 98.077 68.588C99.8806 69.868 101.19 71.7759 101.773 73.9714C101.885 73.9673 101.996 73.9626 102.108 73.9626C102.492 73.9664 102.872 74.0341 103.236 74.163C107.812 75.7333 106.607 82.8732 101.79 82.8732H89.9539C89.1167 82.8757 88.2877 82.7016 87.5165 82.3614C86.7452 82.0211 86.0476 81.5217 85.4654 80.8931C84.8831 80.2645 84.4283 79.5195 84.128 78.7028C83.8277 77.8862 83.6882 77.0146 83.7178 76.1402C83.7197 76.093 83.7218 76.0457 83.7243 75.9984Z" fill="#356169"/>
<path d="M94.513 75.8486V71.9136H92.4856V75.8486H90.8669L92.1831 78.2313L93.4994 80.6137L94.8155 78.2313L96.1316 75.8486H94.513Z" fill="white"/>
</g>
<defs>
<clipPath id="clip0_47_56">
<rect width="150" height="150" fill="white"/>
</clipPath>
</defs>
</svg>
