<svg width="150" height="150" viewBox="0 0 150 150" fill="none" xmlns="http://www.w3.org/2000/svg">
<g clip-path="url(#clip0_47_3)">
<path d="M27.3489 17.6918C27.067 17.7312 26.7955 17.8485 26.5532 18.0355C26.311 18.2224 26.1041 18.4744 25.947 18.7738C25.7899 19.0731 25.6865 19.4125 25.644 19.768C25.6015 20.1235 25.621 20.4864 25.7011 20.8314L20.0933 25.9129L23.436 27.5441L28.2488 22.4685C28.6968 22.2594 29.0688 21.8492 29.2942 21.3156C29.5197 20.782 29.5829 20.1621 29.472 19.5733C29.3611 18.9845 29.0837 18.4677 28.6924 18.121C28.3011 17.7742 27.823 17.6215 27.3489 17.6918Z" fill="#FFB8B8"/>
<path d="M26.8274 25.3459L19.8714 34.2212C18.9181 35.4297 17.6611 36.1765 16.3187 36.3319L7.72342 37.3264C7.40832 37.3645 7.09038 37.3221 6.7884 37.2018C6.48643 37.0814 6.20653 36.8856 5.96527 36.6257C5.63148 36.2715 5.38328 35.805 5.24916 35.2799C5.11505 34.7548 5.10046 34.1923 5.20709 33.6572C5.31371 33.122 5.53722 32.6359 5.85193 32.2546C6.16664 31.8733 6.55979 31.6123 6.98622 31.5016L15.7672 29.1306L23.7617 21.6578C23.8729 21.5785 23.9984 21.5374 24.1259 21.5386C24.2535 21.5398 24.3785 21.5833 24.4887 21.6647L26.6628 23.9231C26.7936 24.014 26.8987 24.1545 26.9633 24.325C27.0279 24.4955 27.0488 24.6873 27.0231 24.8737C26.9977 25.0529 26.9293 25.2178 26.8274 25.3459Z" fill="#2F2E41"/>
<path d="M110.225 30.1154C110.277 29.5095 110.18 28.8981 109.948 28.3643C109.716 27.8305 109.361 27.4001 108.929 27.1317L65.6394 0.301509C65.3641 0.130722 65.065 0.0303645 64.7591 0.00616866C64.4533 -0.0180272 64.1466 0.0344107 63.8567 0.160489C63.5668 0.286568 63.2994 0.483819 63.0696 0.740978C62.8398 0.998137 62.6522 1.31017 62.5175 1.65926L62.5168 1.66132L46.2803 43.787C46.0093 44.4926 45.97 45.3056 46.1711 46.0479C46.3721 46.7902 46.797 47.4011 47.3527 47.7468L90.6423 74.577C91.1988 74.9206 91.8399 74.9704 92.4253 74.7155C93.0107 74.4606 93.4924 73.9218 93.765 73.2172L110.001 31.0915C110.12 30.7851 110.196 30.4548 110.225 30.1154Z" fill="#F2F2F2"/>
<path d="M84.8641 123.614H28.6935C27.9863 123.613 27.3083 123.256 26.8083 122.622C26.3083 121.988 26.027 121.128 26.0262 120.231V23.535C26.027 22.6383 26.3083 21.7785 26.8083 21.1444C27.3083 20.5103 27.9863 20.1537 28.6935 20.1526H84.8641C85.5713 20.1537 86.2492 20.5103 86.7493 21.1444C87.2493 21.7785 87.5306 22.6383 87.5314 23.535V120.231C87.5306 121.128 87.2493 121.988 86.7493 122.622C86.2492 123.256 85.5713 123.613 84.8641 123.614Z" fill="white"/>
<path d="M43.5919 48.9867C45.6158 48.9867 47.2565 46.9061 47.2565 44.3395C47.2565 41.773 45.6158 39.6924 43.5919 39.6924C41.5679 39.6924 39.9272 41.773 39.9272 44.3395C39.9272 46.9061 41.5679 48.9867 43.5919 48.9867Z" fill="#E6E6E6"/>
<path d="M38.0064 57.0406C38.5242 57.4138 39.0662 57.7306 39.6264 57.9873L39.7254 58.0307C40.8537 58.5331 42.0411 58.7888 43.237 58.7871C43.4776 58.7871 43.7094 58.7764 43.9259 58.7557C44.4529 58.7147 44.9766 58.6231 45.4927 58.4817C45.7759 58.4032 46.0582 58.3094 46.3313 58.2031C46.3974 58.1784 46.4586 58.1541 46.5255 58.1275C47.6387 57.6698 48.6848 56.9824 49.6216 56.0931C49.5464 55.9127 49.4641 55.7373 49.3749 55.5675C48.8932 54.6342 48.2356 53.868 47.4616 53.3381C46.6876 52.8083 45.8216 52.5316 44.942 52.5331H43.0132C41.9959 52.5333 41 52.9043 40.1443 53.602C39.2885 54.2996 38.6089 55.2944 38.1864 56.4679C38.1188 56.6549 38.0588 56.846 38.0064 57.0406Z" fill="#E6E6E6"/>
<path d="M44.8355 58.3661C44.7124 58.3776 44.5939 58.4303 44.4921 58.5189C45.0092 58.478 45.5232 58.3876 46.0295 58.2482L44.8355 58.3661Z" fill="#2F2E41"/>
<path d="M43.814 31.7288C41.4537 31.7291 39.1596 32.7174 37.2876 34.5403C35.4156 36.3632 34.0705 38.9187 33.4611 41.8102C32.8517 44.7017 33.0121 47.7675 33.9173 50.5316C34.8225 53.2957 36.422 55.6036 38.4674 57.0971C39.0104 57.4958 39.5804 57.8322 40.1705 58.1023L40.2708 58.1463C41.4093 58.6532 42.6074 58.9112 43.814 58.9094C44.0474 58.9094 44.2807 58.8997 44.5103 58.8776C45.0416 58.8362 45.5696 58.7438 46.0899 58.6013C46.3812 58.5205 46.6667 58.4252 46.9367 58.32C47.0022 58.2955 47.0639 58.2711 47.1314 58.2442C49.5572 57.2422 51.6217 55.1759 52.9536 52.4166C54.2855 49.6573 54.7977 46.3861 54.3979 43.1908C53.9981 39.9956 52.7127 37.086 50.7727 34.985C48.8326 32.884 46.3652 31.7294 43.814 31.7288ZM50.0323 55.4999C49.1077 56.4047 48.067 57.1005 46.956 57.5569C46.8962 57.5813 46.8344 57.6058 46.7727 57.6302C46.5162 57.7305 46.2462 57.8186 45.9684 57.8944C45.4762 58.0306 44.9765 58.1189 44.4736 58.1585C44.2557 58.1781 44.0338 58.1879 43.814 58.1879C42.6719 58.1888 41.5378 57.9448 40.4598 57.4664L40.3654 57.4248C39.7783 57.1573 39.2126 56.8199 38.6757 56.4171C36.8059 55.0212 35.3385 52.9015 34.4891 50.3697C33.6396 47.8378 33.453 45.0272 33.9567 42.3508C34.4603 39.6745 35.6276 37.2736 37.287 35.5009C38.9465 33.7281 41.0105 32.6771 43.1759 32.5022C45.3413 32.3274 47.4939 33.0378 49.3173 34.5293C51.1406 36.0207 52.5387 38.2144 53.306 40.7881C54.0733 43.3618 54.1694 46.1797 53.5801 48.8278C52.9909 51.4759 51.7474 53.8145 50.0323 55.4999Z" fill="#CCCCCC"/>
<path d="M84.8641 123.614H28.6935C27.9863 123.613 27.3083 123.256 26.8083 122.622C26.3083 121.988 26.027 121.128 26.0262 120.231V23.535C26.027 22.6383 26.3083 21.7785 26.8083 21.1444C27.3083 20.5103 27.9863 20.1537 28.6935 20.1526H84.8641C85.5713 20.1537 86.2492 20.5103 86.7493 21.1444C87.2493 21.7785 87.5306 22.6383 87.5314 23.535V120.231C87.5306 121.128 87.2493 121.988 86.7493 122.622C86.2492 123.256 85.5713 123.613 84.8641 123.614ZM28.6935 20.5506C28.0695 20.5515 27.4713 20.8662 27.0301 21.4257C26.5889 21.9852 26.3407 22.7438 26.34 23.535V120.231C26.3407 121.023 26.5889 121.781 27.0301 122.341C27.4713 122.9 28.0695 123.215 28.6935 123.216H84.8641C85.4881 123.215 86.0863 122.9 86.5275 122.341C86.9687 121.781 87.2169 121.023 87.2176 120.231V23.535C87.2169 22.7438 86.9687 21.9852 86.5275 21.4257C86.0863 20.8662 85.4881 20.5515 84.8641 20.5506L28.6935 20.5506Z" fill="#CCCCCC"/>
<path d="M73.9901 45.2666H58.0958C57.7623 45.2666 57.4425 45.0986 57.2067 44.7996C56.9709 44.5006 56.8384 44.095 56.8384 43.6721C56.8384 43.2492 56.9709 42.8436 57.2067 42.5446C57.4425 42.2456 57.7623 42.0776 58.0958 42.0776H73.9901C74.3236 42.0776 74.6435 42.2456 74.8793 42.5446C75.1151 42.8436 75.2476 43.2492 75.2476 43.6721C75.2476 44.095 75.1151 44.5006 74.8793 44.7996C74.6435 45.0986 74.3236 45.2666 73.9901 45.2666Z" fill="#E6E6E6"/>
<path d="M79.177 50.6481H58.0958C57.7623 50.6481 57.4425 50.4801 57.2067 50.1811C56.9709 49.8821 56.8384 49.4765 56.8384 49.0536C56.8384 48.6307 56.9709 48.2252 57.2067 47.9261C57.4425 47.6271 57.7623 47.4591 58.0958 47.4591H79.177C79.5105 47.4591 79.8303 47.6271 80.0661 47.9261C80.302 48.2252 80.4344 48.6307 80.4344 49.0536C80.4344 49.4765 80.302 49.8821 80.0661 50.1811C79.8303 50.4801 79.5105 50.6481 79.177 50.6481Z" fill="#E6E6E6"/>
<path d="M73.967 71.2884H34.3806C34.0471 71.2884 33.7273 71.1204 33.4915 70.8214C33.2556 70.5223 33.1232 70.1168 33.1232 69.6939C33.1232 69.271 33.2556 68.8654 33.4915 68.5664C33.7273 68.2674 34.0471 68.0994 34.3806 68.0994H73.967C74.3005 68.0994 74.6203 68.2674 74.8561 68.5664C75.0919 68.8654 75.2244 69.271 75.2244 69.6939C75.2244 70.1168 75.0919 70.5223 74.8561 70.8214C74.6203 71.1204 74.3005 71.2884 73.967 71.2884Z" fill="#E6E6E6"/>
<path d="M79.1539 76.6699H34.3806C34.0471 76.6699 33.7273 76.5019 33.4915 76.2028C33.2556 75.9038 33.1232 75.4982 33.1232 75.0754C33.1232 74.6525 33.2556 74.2469 33.4915 73.9479C33.7273 73.6488 34.0471 73.4808 34.3806 73.4808H79.1539C79.4874 73.4808 79.8072 73.6488 80.043 73.9479C80.2788 74.2469 80.4113 74.6525 80.4113 75.0754C80.4113 75.4982 80.2788 75.9038 80.043 76.2028C79.8072 76.5019 79.4874 76.6699 79.1539 76.6699Z" fill="#E6E6E6"/>
<path d="M73.967 89.0386H34.3806C34.0471 89.0386 33.7273 88.8706 33.4915 88.5716C33.2556 88.2726 33.1232 87.867 33.1232 87.4441C33.1232 87.0212 33.2556 86.6157 33.4915 86.3166C33.7273 86.0176 34.0471 85.8496 34.3806 85.8496H73.967C74.3005 85.8496 74.6203 86.0176 74.8561 86.3166C75.0919 86.6157 75.2244 87.0212 75.2244 87.4441C75.2244 87.867 75.0919 88.2726 74.8561 88.5716C74.6203 88.8706 74.3005 89.0386 73.967 89.0386Z" fill="#E6E6E6"/>
<path d="M79.1539 94.4201H34.3806C34.0471 94.4201 33.7273 94.2521 33.4915 93.9531C33.2556 93.6541 33.1232 93.2485 33.1232 92.8256C33.1232 92.4027 33.2556 91.9971 33.4915 91.6981C33.7273 91.3991 34.0471 91.2311 34.3806 91.2311H79.1539C79.4874 91.2311 79.8072 91.3991 80.043 91.6981C80.2788 91.9971 80.4113 92.4027 80.4113 92.8256C80.4113 93.2485 80.2788 93.6541 80.043 93.9531C79.8072 94.2521 79.4874 94.4201 79.1539 94.4201Z" fill="#E6E6E6"/>
<path d="M73.967 106.789H34.3806C34.0471 106.789 33.7273 106.621 33.4915 106.322C33.2556 106.023 33.1232 105.617 33.1232 105.194C33.1232 104.771 33.2556 104.366 33.4915 104.067C33.7273 103.768 34.0471 103.6 34.3806 103.6H73.967C74.3005 103.6 74.6203 103.768 74.8561 104.067C75.0919 104.366 75.2244 104.771 75.2244 105.194C75.2244 105.617 75.0919 106.023 74.8561 106.322C74.6203 106.621 74.3005 106.789 73.967 106.789Z" fill="#E6E6E6"/>
<path d="M79.1539 112.17H34.3806C34.0471 112.17 33.7273 112.002 33.4915 111.703C33.2556 111.404 33.1232 110.999 33.1232 110.576C33.1232 110.153 33.2556 109.747 33.4915 109.448C33.7273 109.149 34.0471 108.981 34.3806 108.981H79.1539C79.4871 108.982 79.8065 109.15 80.042 109.449C80.2775 109.748 80.4097 110.153 80.4097 110.576C80.4097 110.998 80.2775 111.404 80.042 111.703C79.8065 112.002 79.4871 112.17 79.1539 112.17Z" fill="#E6E6E6"/>
<path d="M108.296 57.7537C108.348 57.1478 108.251 56.5364 108.019 56.0026C107.788 55.4688 107.432 55.0384 107 54.77L63.7106 27.9398C63.4353 27.769 63.1362 27.6687 62.8304 27.6445C62.5245 27.6203 62.2178 27.6727 61.9279 27.7988C61.6381 27.9249 61.3706 28.1221 61.1408 28.3793C60.911 28.6364 60.7234 28.9485 60.5888 29.2976L60.588 29.2996L44.3516 71.4253C44.0806 72.1309 44.0413 72.9439 44.2423 73.6862C44.4433 74.4285 44.8682 75.0394 45.4239 75.3851L88.7136 102.215C89.27 102.559 89.9112 102.609 90.4965 102.354C91.0819 102.099 91.5637 101.56 91.8362 100.855L108.073 58.7298C108.191 58.4234 108.267 58.0931 108.296 57.7537Z" fill="white"/>
<path d="M108.296 57.7537C108.348 57.1478 108.251 56.5364 108.019 56.0026C107.788 55.4688 107.432 55.0384 107 54.77L63.7106 27.9398C63.4353 27.769 63.1362 27.6687 62.8304 27.6445C62.5245 27.6203 62.2178 27.6727 61.9279 27.7988C61.6381 27.9249 61.3706 28.1221 61.1408 28.3793C60.911 28.6364 60.7234 28.9485 60.5888 29.2976L60.588 29.2996L44.3516 71.4253C44.0806 72.1309 44.0413 72.9439 44.2423 73.6862C44.4433 74.4285 44.8682 75.0394 45.4239 75.3851L88.7136 102.215C89.27 102.559 89.9112 102.609 90.4965 102.354C91.0819 102.099 91.5637 101.56 91.8362 100.855L108.073 58.7298C108.191 58.4234 108.267 58.0931 108.296 57.7537ZM91.5895 100.703C91.3491 101.324 90.924 101.8 90.4074 102.025C89.8909 102.25 89.3251 102.206 88.8342 101.902L45.5445 75.0722C45.0541 74.7673 44.6791 74.2282 44.5017 73.5732C44.3244 72.9183 44.3591 72.2008 44.5983 71.5782L60.8347 29.4526C61.0752 28.8307 61.5002 28.3552 62.0168 28.1303C62.5333 27.9053 63.0991 27.9494 63.59 28.2527L106.88 55.0829C107.37 55.3878 107.745 55.9268 107.922 56.5818C108.1 57.2368 108.065 57.9543 107.826 58.5769L91.5895 100.703Z" fill="#3F3D56"/>
<path d="M103.574 59.6691L92.2369 89.0841C92.1613 89.2805 92.0273 89.4308 91.8643 89.5018C91.7013 89.5729 91.5228 89.5589 91.3679 89.463L51.9901 65.0573C51.9619 65.0402 51.935 65.0201 51.9096 64.9972C51.7804 64.8857 51.6873 64.719 51.6473 64.5275C51.6072 64.3361 51.6229 64.1328 51.6915 63.9548L63.0289 34.5398C63.0664 34.4425 63.1185 34.3556 63.1825 34.2839C63.2464 34.2123 63.3208 34.1573 63.4015 34.1221C63.4822 34.0869 63.5676 34.0722 63.6528 34.0789C63.738 34.0856 63.8213 34.1134 63.8979 34.1609L103.276 58.5666C103.431 58.6625 103.549 58.8325 103.605 59.0391C103.661 59.2458 103.65 59.4722 103.575 59.6686L103.574 59.6691Z" fill="#E6E6E6"/>
<path d="M69.0035 58.1753C72.1531 58.1753 74.7063 54.9376 74.7063 50.9437C74.7063 46.9498 72.1531 43.7122 69.0035 43.7122C65.854 43.7122 63.3008 46.9498 63.3008 50.9437C63.3008 54.9376 65.854 58.1753 69.0035 58.1753Z" fill="#356169"/>
<path d="M77.3534 80.9232L52.2189 65.3453C52.1873 65.3263 52.1571 65.3036 52.1287 65.2776L74.08 46.5344C74.2152 46.4168 74.3726 46.3468 74.5362 46.3315C74.6997 46.3163 74.8635 46.3564 75.0109 46.4477C75.1582 46.539 75.2838 46.6783 75.3748 46.8513C75.4658 47.0243 75.5189 47.2248 75.5288 47.4324L76.7531 69.8994L76.8122 70.9747L77.3534 80.9232Z" fill="#3F3D56"/>
<path opacity="0.2" d="M77.3534 80.9232L68.7719 75.6045L75.9753 70.456L76.4939 70.0852L76.7532 69.8995L76.8122 70.9747L77.3534 80.9232Z" fill="black"/>
<path d="M91.3481 89.5968L69.6089 76.1232L76.8122 70.9747L77.3308 70.6036L86.7177 63.8939C87.333 63.4542 88.2147 63.9495 88.4147 64.7908C88.4279 64.8479 88.4382 64.906 88.4456 64.9648L91.3481 89.5968Z" fill="#3F3D56"/>
<path d="M24.2724 92.1643L26.6369 92.1641L27.762 80.5981L24.2719 80.5984L24.2724 92.1643Z" fill="#FFB8B8"/>
<path d="M23.6692 91.1853L28.326 91.1851C28.7157 91.185 29.1018 91.2824 29.4619 91.4715C29.8219 91.6606 30.1491 91.9378 30.4247 92.2872C30.7002 92.6367 30.9188 93.0516 31.068 93.5081C31.2171 93.9647 31.2939 94.4541 31.2939 94.9483V95.0706L23.6693 95.0709L23.6692 91.1853Z" fill="#2F2E41"/>
<path d="M5.89258 90.2551L8.3425 90.8626L11.3568 79.169L7.74111 78.2722L5.89258 90.2551Z" fill="#FFB8B8"/>
<path d="M5.4242 89.0857L10.2489 90.2825L10.2491 90.2825C10.6529 90.3827 11.0371 90.5827 11.3799 90.8712C11.7228 91.1597 12.0174 91.531 12.247 91.9638C12.4767 92.3967 12.6369 92.8827 12.7184 93.3941C12.7999 93.9055 12.8012 94.4322 12.7222 94.9442L12.7027 95.0709L4.80322 93.1114L5.4242 89.0857Z" fill="#2F2E41"/>
<path d="M27.7126 52.2674C27.6325 51.9225 27.4938 51.604 27.3062 51.3344C27.1185 51.0648 26.8866 50.8506 26.6266 50.707C26.3667 50.5634 26.0851 50.4938 25.8016 50.5031C25.5182 50.5125 25.2398 50.6005 24.9861 50.761L20.0573 44.6515L19.3772 49.1107L24.162 54.2288C24.4029 54.7514 24.7866 55.1438 25.2404 55.3317C25.6942 55.5195 26.1866 55.4897 26.6243 55.248C27.0619 55.0062 27.4145 54.5692 27.615 54.0199C27.8156 53.4706 27.8503 52.847 27.7126 52.2674Z" fill="#FFB8B8"/>
<path d="M9.4261 20.8207C12.0424 20.8207 14.1634 18.1312 14.1634 14.8135C14.1634 11.4957 12.0424 8.80621 9.4261 8.80621C6.80979 8.80621 4.68884 11.4957 4.68884 14.8135C4.68884 18.1312 6.80979 20.8207 9.4261 20.8207Z" fill="#FFB8B8"/>
<path d="M8.4313 20.9127C8.683 21.0523 9.19843 18.5091 8.96754 18.0004C8.62418 17.2439 8.64448 17.2493 8.41653 16.7489C8.18859 16.2484 8.13759 15.5633 8.43277 15.123C8.72795 14.6826 9.41104 14.741 9.54575 15.2931C9.45909 14.2444 10.2771 13.4014 11.0874 13.1645C11.8977 12.9276 12.7524 13.0747 13.5672 12.8639C14.5127 12.6192 15.4966 11.6141 15.1193 10.2955C15.0546 10.076 14.9576 9.87402 14.8336 9.70021C14.3977 9.07873 13.788 8.81336 13.1919 8.55678C11.9517 8.02298 10.6775 7.48248 9.36863 7.54141C8.29018 7.61291 7.25156 8.08153 6.37987 8.88991C5.50818 9.69829 4.84122 10.8114 4.46063 12.0929C4.37042 12.4135 4.30055 12.7428 4.25166 13.0775C3.8024 16.1407 5.20518 19.1622 7.48355 20.3287L8.4313 20.9127Z" fill="#2F2E41"/>
<path d="M7.26823 53.913C7.14741 53.8203 7.05058 53.6849 6.98965 53.5234C6.92873 53.3619 6.90637 53.1813 6.92532 53.0039L4.78766 39.5759L2.62081 29.2704C2.38293 28.1411 2.45482 26.9429 2.82461 25.8723C3.19439 24.8016 3.84016 23.9222 4.65596 23.3781L6.08846 21.6594L9.21353 23.3667L10.6985 25.2813C11.7636 25.9389 12.7084 26.8719 13.4721 28.0202C14.2359 29.1685 14.8018 30.5067 15.1333 31.9489L17.5151 42.2838L23.0154 52.6607C23.1072 52.8336 23.1502 53.0409 23.1373 53.2487C23.1243 53.4566 23.0563 53.6527 22.9442 53.8052C22.179 54.849 7.26823 53.913 7.26823 53.913Z" fill="#2F2E41"/>
<path d="M21.6787 52.959L13.5681 45.8319C12.4626 44.8538 11.6623 43.4154 11.3062 41.7668L9.02642 31.2108C8.94155 30.8241 8.91867 30.4197 8.95912 30.0216C8.99958 29.6235 9.10255 29.2397 9.26196 28.893C9.47845 28.4141 9.79707 28.0224 10.1812 27.7629C10.5654 27.5033 10.9995 27.3865 11.4336 27.4257C11.8678 27.4649 12.2844 27.6587 12.6357 27.9847C12.9869 28.3107 13.2585 28.7557 13.4193 29.2687L16.8003 39.8152L24.0043 48.4848C24.0854 48.6096 24.1393 48.7592 24.1607 48.9186C24.1822 49.078 24.1704 49.2418 24.1265 49.3936L22.7545 52.504C22.7069 52.6832 22.6162 52.839 22.4952 52.9496C22.3742 53.0602 22.2289 53.1199 22.0797 53.1204C21.9361 53.1202 21.7961 53.0638 21.6787 52.959Z" fill="#2F2E41"/>
<path d="M4.82898 88.4651C4.76267 88.3445 4.72021 88.2056 4.70519 88.0598C4.69017 87.9141 4.70302 87.766 4.74267 87.6279L8.49483 70.3309L8.77218 53.3825L21.403 52.284L21.4643 52.2787L25.2686 61.0224C26.4597 63.7561 27.1889 66.7744 27.4097 69.885L28.6634 87.3066C28.6823 87.5434 28.6272 87.7802 28.51 87.9661C28.3928 88.152 28.2227 88.2721 28.0364 88.3007L24.2279 88.76C24.0444 88.7884 23.8594 88.7246 23.7125 88.5825C23.5655 88.4403 23.4681 88.2309 23.4412 87.9991L21.8947 70.2953L16.3302 58.373L14.4624 70.9247L10.5927 88.2582C10.5421 88.4312 10.4512 88.5806 10.3321 88.6866C10.213 88.7926 10.0712 88.8501 9.92572 88.8515L5.41236 88.8539C5.29745 88.8546 5.18416 88.8195 5.08244 88.7517C4.98073 88.6839 4.89369 88.5855 4.82898 88.4651Z" fill="#2F2E41"/>
<path d="M101.543 145.353H6.36495C4.67744 145.35 3.0596 144.499 1.86636 142.986C0.673109 141.473 0.0019062 139.421 0 137.282V70.9992C0.0019062 68.8593 0.673109 66.8078 1.86636 65.2946C3.0596 63.7815 4.67744 62.9303 6.36495 62.9279H18.0345C19.6179 62.9262 21.1447 63.6746 22.3155 65.0264L34.9704 76.4854C35.7955 77.4415 36.873 77.9711 37.9906 77.9699H102.134C102.978 77.9699 103.813 78.1826 104.591 78.5956C105.37 79.0086 106.075 79.6137 106.667 80.3758C107.26 81.1378 107.726 82.0415 108.041 83.0344C108.355 84.0272 108.511 85.0894 108.498 86.1591L107.907 137.4C107.876 139.517 107.193 141.534 106.003 143.021C104.814 144.507 103.213 145.344 101.543 145.353Z" fill="white"/>
<path d="M100.697 141.44H6.92804C6.11397 141.438 5.33352 141.028 4.75789 140.298C4.18226 139.568 3.85846 138.578 3.85754 137.546V70.1797C3.85847 69.1474 4.18226 68.1577 4.75789 67.4278C5.33352 66.6978 6.11398 66.2872 6.92804 66.2861C7.64807 66.2871 8.33838 66.6503 8.84752 67.2959C9.35666 67.9415 9.64305 68.8169 9.64386 69.73V132.899C9.64472 133.866 9.94818 134.794 10.4877 135.478C11.0271 136.162 11.7586 136.547 12.5215 136.548H100.381C100.817 136.542 101.243 136.721 101.589 137.057C101.936 137.394 102.184 137.868 102.293 138.404C102.416 138.912 102.4 139.457 102.25 139.953C102.099 140.449 101.822 140.866 101.462 141.139C101.234 141.327 100.97 141.431 100.697 141.44Z" fill="#F2F2F2"/>
<path d="M54.6661 109.088L54.4192 108.775C54.368 108.714 54.338 108.63 54.3357 108.541C54.3334 108.452 54.359 108.366 54.4069 108.301C54.4109 108.296 54.415 108.29 54.4192 108.285L56.5852 105.536C56.6089 105.504 56.6374 105.478 56.669 105.46C56.7006 105.442 56.7347 105.432 56.7694 105.43C56.8041 105.429 56.8387 105.436 56.8711 105.452C56.9036 105.467 56.9334 105.491 56.9587 105.521C56.9629 105.526 56.967 105.531 56.971 105.536L59.137 108.283C59.1623 108.314 59.1826 108.351 59.1966 108.392C59.2106 108.433 59.2182 108.477 59.2188 108.522C59.2194 108.566 59.2131 108.611 59.2002 108.652C59.1873 108.694 59.1681 108.732 59.1436 108.764L59.137 108.772L58.8901 109.085C58.8656 109.117 58.8364 109.143 58.8041 109.161C58.7719 109.179 58.7371 109.188 58.7019 109.189C58.6667 109.19 58.6317 109.182 58.599 109.165C58.5662 109.149 58.5363 109.125 58.511 109.094L58.5043 109.085L57.2236 107.373V111.436C57.2239 111.48 57.2172 111.524 57.2041 111.565C57.191 111.606 57.1716 111.644 57.147 111.675C57.1225 111.707 57.0933 111.732 57.0611 111.749C57.0289 111.766 56.9944 111.775 56.9594 111.776L56.9575 111.776H56.6006C56.5295 111.776 56.4613 111.74 56.4111 111.676C56.3608 111.612 56.3325 111.526 56.3325 111.436V107.378L55.0518 109.09C55.0022 109.155 54.9344 109.192 54.8633 109.193C54.7922 109.194 54.7236 109.159 54.6727 109.096L54.6661 109.088Z" fill="#356169"/>
<path d="M56.7742 103.039C57.6436 103.039 58.4935 103.366 59.2163 103.979C59.9392 104.591 60.5026 105.462 60.8353 106.48C61.168 107.499 61.2551 108.619 61.0854 109.701C60.9158 110.782 60.4972 111.775 59.8824 112.555C59.2677 113.334 58.4845 113.865 57.6318 114.08C56.7791 114.295 55.8953 114.185 55.0921 113.763C54.2889 113.341 53.6024 112.627 53.1194 111.71C52.6364 110.793 52.3786 109.716 52.3786 108.613C52.3796 107.135 52.843 105.718 53.6672 104.673C54.4913 103.628 55.6087 103.04 56.7742 103.039ZM56.7742 102.305C55.7904 102.305 54.8287 102.675 54.0107 103.368C53.1926 104.062 52.5551 105.047 52.1786 106.199C51.8021 107.352 51.7036 108.62 51.8955 109.844C52.0874 111.067 52.5612 112.191 53.2569 113.074C53.9525 113.956 54.8389 114.556 55.8038 114.8C56.7687 115.043 57.7689 114.918 58.6778 114.441C59.5867 113.963 60.3636 113.155 60.9102 112.118C61.4568 111.08 61.7485 109.861 61.7485 108.613C61.7485 106.94 61.2245 105.336 60.2916 104.153C59.3587 102.97 58.0935 102.305 56.7742 102.305Z" fill="#3F3D56"/>
<path d="M101.543 145.353H6.36495C4.67744 145.35 3.0596 144.499 1.86636 142.986C0.673109 141.473 0.0019062 139.421 0 137.282V70.9992C0.0019062 68.8593 0.673109 66.8078 1.86636 65.2946C3.0596 63.7815 4.67744 62.9303 6.36495 62.9279H18.0345C19.6179 62.9262 21.1447 63.6746 22.3155 65.0264L34.9704 76.4854C35.7955 77.4415 36.873 77.9711 37.9906 77.9699H102.134C102.978 77.9699 103.813 78.1826 104.591 78.5956C105.37 79.0086 106.075 79.6137 106.667 80.3758C107.26 81.1378 107.726 82.0415 108.041 83.0344C108.355 84.0272 108.511 85.0894 108.498 86.1591L107.907 137.4C107.876 139.517 107.193 141.534 106.003 143.021C104.814 144.507 103.213 145.344 101.543 145.353ZM6.36495 63.4171C4.77972 63.4194 3.25994 64.2189 2.13901 65.6404C1.01808 67.0618 0.387556 68.989 0.385754 70.9992V137.282C0.387556 139.292 1.01808 141.219 2.13901 142.64C3.25994 144.062 4.77972 144.861 6.36495 144.864H101.543C103.112 144.856 104.616 144.069 105.733 142.673C106.85 141.277 107.492 139.381 107.522 137.392L108.113 86.152C108.124 85.1471 107.978 84.1492 107.683 83.2166C107.388 82.2839 106.949 81.4349 106.393 80.7191C105.836 80.0033 105.173 79.4348 104.442 79.0468C103.711 78.6588 102.927 78.459 102.134 78.459H37.9906C36.7808 78.4603 35.6141 77.8889 34.719 76.8567L22.0641 65.3976C20.9633 64.1221 19.5257 63.4155 18.0345 63.4171H6.36495Z" fill="#3F3D56"/>
<path d="M109.609 146.643H107.245L106.505 135.077L109.61 135.078L109.609 146.643Z" fill="#FFB8B8"/>
<path d="M110.212 149.55L102.588 149.55V149.427C102.588 148.933 102.664 148.444 102.814 147.987C102.963 147.531 103.181 147.116 103.457 146.766C103.732 146.417 104.06 146.14 104.42 145.951C104.78 145.761 105.166 145.664 105.555 145.664L110.212 145.664L110.212 149.55Z" fill="#2F2E41"/>
<path d="M136.033 146.643H133.669L132.544 135.077L136.034 135.078L136.033 146.643Z" fill="#FFB8B8"/>
<path d="M136.636 149.55L129.012 149.55V149.427C129.012 148.933 129.089 148.444 129.238 147.987C129.387 147.531 129.605 147.116 129.881 146.766C130.157 146.417 130.484 146.14 130.844 145.951C131.204 145.761 131.59 145.664 131.98 145.664L136.637 145.664L136.636 149.55Z" fill="#2F2E41"/>
<path d="M128.258 110.889C128.585 110.403 128.769 109.79 128.779 109.152C128.789 108.515 128.625 107.892 128.315 107.391C128.252 107.295 128.182 107.205 128.108 107.124L129.889 98.7855L126.921 100.034L125.684 107.761C125.479 108.237 125.388 108.78 125.423 109.321C125.458 109.862 125.617 110.378 125.881 110.806C126.018 111.037 126.195 111.226 126.398 111.358C126.601 111.491 126.825 111.564 127.054 111.572C127.282 111.58 127.509 111.522 127.717 111.404C127.926 111.286 128.111 111.11 128.258 110.889Z" fill="#FFB8B8"/>
<path d="M128.144 105.759C128.107 105.759 128.07 105.756 128.033 105.749L126.486 105.453C126.366 105.427 126.251 105.367 126.151 105.279C126.051 105.191 125.967 105.076 125.905 104.942C125.771 104.658 125.723 104.321 125.769 103.995L127.699 90.3274L126.39 81.5465C126.138 79.8567 126.789 78.1499 127.905 77.5765C128.236 77.4048 128.596 77.3449 128.951 77.4025C129.306 77.4601 129.642 77.6333 129.929 77.9052C130.237 78.2018 130.493 78.5773 130.68 79.0074C130.867 79.4376 130.98 79.9128 131.013 80.4021L131.939 91.5983L131.928 91.647L128.947 104.915C128.904 105.148 128.802 105.356 128.657 105.508C128.512 105.661 128.332 105.749 128.144 105.759Z" fill="#356169"/>
<path d="M127.687 72.7375C130.304 72.7375 132.425 70.048 132.425 66.7303C132.425 63.4126 130.304 60.723 127.687 60.723C125.071 60.723 122.95 63.4126 122.95 66.7303C122.95 70.048 125.071 72.7375 127.687 72.7375Z" fill="#FFB8B8"/>
<path d="M125.262 94.6545C125.144 94.6545 125.027 94.6269 124.917 94.5731L117.429 90.921C117.226 90.823 117.056 90.6408 116.945 90.4043C116.834 90.1677 116.79 89.8906 116.819 89.618L117.12 86.7581C116.942 85.7442 116.958 84.6909 117.168 83.6867C117.378 82.6826 117.775 81.7571 118.326 80.9882L118.508 80.7339L120.723 75.6113C120.873 75.2643 121.076 74.9583 121.32 74.7111C121.564 74.4639 121.843 74.2804 122.143 74.1711C122.443 74.0618 122.758 74.0288 123.068 74.0742C123.378 74.1196 123.678 74.2424 123.95 74.4355L127.862 77.2076C128.377 77.5719 128.766 78.1674 128.952 78.8769C129.478 80.8855 129.439 83.0634 128.841 85.0396L126.163 93.8706C126.092 94.1009 125.968 94.2988 125.808 94.4386C125.647 94.5784 125.457 94.6536 125.262 94.6545Z" fill="#356169"/>
<path d="M105.639 143.804L105.629 143.801C105.501 143.77 105.38 143.706 105.272 143.614C105.164 143.522 105.072 143.403 105.001 143.265C104.931 143.126 104.883 142.971 104.861 142.808C104.838 142.646 104.842 142.48 104.872 142.319L110.61 110.513C111.55 105.471 112.847 100.548 114.487 95.8026L116.928 88.7448L126.037 94.018L127.338 97.0343C128.352 100.394 128.873 103.96 128.876 107.557L138.132 141.953C138.177 142.121 138.193 142.3 138.178 142.476C138.164 142.653 138.119 142.823 138.047 142.975C137.975 143.128 137.878 143.258 137.763 143.358C137.647 143.458 137.516 143.525 137.378 143.554L132.311 143.482C132.263 143.493 132.215 143.498 132.166 143.497C131.974 143.498 131.786 143.425 131.627 143.288C131.469 143.151 131.346 142.957 131.275 142.731L120.695 107.954C120.68 107.908 120.654 107.869 120.621 107.842C120.587 107.815 120.549 107.801 120.509 107.803C120.471 107.803 120.433 107.819 120.402 107.848C120.371 107.877 120.347 107.917 120.335 107.963L110.296 142.913C110.219 143.185 110.069 143.413 109.871 143.557C109.674 143.7 109.442 143.751 109.218 143.698L105.639 143.804Z" fill="#2F2E41"/>
<path d="M112.566 104.691C112.833 104.57 113.076 104.377 113.278 104.124C113.48 103.872 113.635 103.566 113.734 103.229C113.833 102.892 113.872 102.532 113.849 102.173C113.826 101.815 113.741 101.467 113.601 101.155L118.138 94.5755L114.589 93.9619L110.824 100.304C110.426 100.638 110.139 101.146 110.016 101.731C109.893 102.316 109.944 102.937 110.159 103.478C110.373 104.019 110.737 104.441 111.181 104.664C111.624 104.888 112.117 104.897 112.566 104.691Z" fill="#FFB8B8"/>
<path d="M114.705 100.056C114.547 100.056 114.391 100.006 114.252 99.9124L112.655 98.8325C112.538 98.7533 112.435 98.6442 112.353 98.5122C112.27 98.3801 112.21 98.2279 112.176 98.0651C112.143 97.9022 112.136 97.7323 112.156 97.5659C112.176 97.3996 112.224 97.2403 112.295 97.0981L118.192 85.3147L119.214 76.4225C119.267 75.9629 119.393 75.5217 119.584 75.1256C119.776 74.7295 120.028 74.3868 120.327 74.1181C120.626 73.8494 120.964 73.6604 121.322 73.5626C121.681 73.4647 122.05 73.46 122.41 73.5487C122.77 73.6374 123.111 73.8177 123.414 74.0787C123.717 74.3397 123.975 74.676 124.173 75.0671C124.37 75.4582 124.503 75.8961 124.563 76.3543C124.623 76.8124 124.609 77.2813 124.523 77.7325L122.411 88.6926L115.456 99.6021C115.365 99.7442 115.251 99.8588 115.121 99.9373C114.991 100.016 114.849 100.056 114.705 100.056Z" fill="#356169"/>
<path d="M123.423 61.7738C123.971 59.4951 127.137 58.4785 129.768 59.4239C132.4 60.3694 134.29 62.8481 134.73 65.2716C135.705 70.6384 130.622 74.994 131.543 80.3614C132.152 83.9124 135.678 87.27 139.648 88.0808C135.272 89.2417 129.932 88.2213 125.874 85.4493C123.349 83.724 121.231 81.1205 121.263 78.4944C121.282 76.9044 122.08 75.4984 123.055 74.2837C124.03 73.069 125.198 71.9892 126.093 70.7213C126.988 69.4534 127.609 67.9352 127.347 66.3257C127.086 64.7161 125.759 63.0376 123.973 62.5693L123.423 61.7738Z" fill="#2F2E41"/>
<path d="M149.807 150H76.3209C76.2698 150 76.2207 149.974 76.1845 149.929C76.1484 149.883 76.1281 149.82 76.1281 149.756C76.1281 149.691 76.1484 149.628 76.1845 149.582C76.2207 149.537 76.2698 149.511 76.3209 149.511H149.807C149.858 149.511 149.907 149.537 149.944 149.582C149.98 149.628 150 149.691 150 149.756C150 149.82 149.98 149.883 149.944 149.929C149.907 149.974 149.858 150 149.807 150Z" fill="#CCCCCC"/>
</g>
<defs>
<clipPath id="clip0_47_3">
<rect width="150" height="150" fill="white"/>
</clipPath>
</defs>
</svg>
