<svg width="350" height="350" viewBox="0 0 350 350" fill="none" xmlns="http://www.w3.org/2000/svg">
<g clip-path="url(#clip0_52_756)">
<path d="M63.814 41.2809C63.1564 41.3729 62.5227 41.6466 61.9576 42.0828C61.3924 42.519 60.9095 43.107 60.543 43.8055C60.1764 44.5039 59.9351 45.2958 59.836 46.1253C59.7368 46.9548 59.7824 47.8018 59.9693 48.6065L46.8844 60.4635L54.684 64.2696L65.9139 52.4266C66.9593 51.9387 67.8272 50.9816 68.3532 49.7365C68.8792 48.4914 69.0268 47.0448 68.768 45.671C68.5091 44.2971 67.8619 43.0914 66.9488 42.2823C66.0358 41.4732 64.9204 41.1168 63.814 41.2809Z" fill="#FFB8B8"/>
<path d="M62.5972 59.1405L46.3666 79.8495C44.1423 82.6693 41.2092 84.4118 38.077 84.7743L18.0214 87.0948C17.2862 87.1837 16.5443 87.0849 15.8397 86.8041C15.1351 86.5233 14.482 86.0662 13.919 85.4599C13.1402 84.6333 12.5611 83.5449 12.2481 82.3196C11.9352 81.0943 11.9012 79.782 12.1499 78.5333C12.3987 77.2847 12.9203 76.1503 13.6546 75.2606C14.3889 74.3709 15.3063 73.7619 16.3013 73.5035L36.7903 67.9713L55.4441 50.5348C55.7034 50.3497 55.9964 50.2538 56.2939 50.2567C56.5915 50.2595 56.8833 50.3609 57.1405 50.5508L62.2133 55.8205C62.5185 56.0326 62.7637 56.3605 62.9144 56.7583C63.0652 57.1561 63.114 57.6037 63.0539 58.0384C62.9947 58.4566 62.8352 58.8414 62.5972 59.1405Z" fill="#232121"/>
<path d="M257.191 70.2698C257.312 68.8562 257.087 67.4296 256.546 66.184C256.005 64.9384 255.175 63.9342 254.168 63.3079L153.159 0.704111C152.516 0.305609 151.818 0.0714405 151.105 0.0149835C150.391 -0.0414734 149.675 0.0808818 148.999 0.375065C148.323 0.669249 147.699 1.1295 147.162 1.72954C146.626 2.32958 146.189 3.05765 145.874 3.87219L145.872 3.87699L107.987 102.17C107.355 103.817 107.263 105.714 107.733 107.446C108.202 109.178 109.193 110.603 110.49 111.41L211.499 174.014C212.797 174.815 214.293 174.932 215.659 174.337C217.025 173.742 218.149 172.485 218.785 170.841L256.67 72.5474C256.947 71.8324 257.123 71.0617 257.191 70.2698Z" fill="#F2F2F2"/>
<path d="M198.016 288.432H66.9515C65.3015 288.43 63.7195 287.597 62.5527 286.118C61.3859 284.638 60.7296 282.632 60.7278 280.54V54.9151C60.7296 52.8226 61.3859 50.8166 62.5527 49.337C63.7195 47.8574 65.3015 47.0252 66.9515 47.0228H198.016C199.666 47.0252 201.248 47.8574 202.415 49.337C203.582 50.8166 204.238 52.8226 204.24 54.9151V280.54C204.238 282.632 203.582 284.638 202.415 286.118C201.248 287.597 199.666 288.43 198.016 288.432Z" fill="white"/>
<path d="M101.714 114.302C106.437 114.302 110.265 109.447 110.265 103.459C110.265 97.4703 106.437 92.6156 101.714 92.6156C96.9918 92.6156 93.1635 97.4703 93.1635 103.459C93.1635 109.447 96.9918 114.302 101.714 114.302Z" fill="#E6E6E6"/>
<path d="M88.6816 133.095C89.8899 133.966 91.1544 134.705 92.4616 135.304L92.6925 135.405C95.3253 136.577 98.0959 137.174 100.886 137.17C101.448 137.17 101.989 137.145 102.494 137.097C103.723 137.001 104.946 136.787 106.15 136.457C106.81 136.274 107.469 136.055 108.106 135.807C108.261 135.75 108.403 135.693 108.56 135.631C111.157 134.563 113.598 132.959 115.784 130.884C115.608 130.463 115.416 130.054 115.208 129.657C114.084 127.48 112.55 125.692 110.744 124.456C108.938 123.219 106.917 122.574 104.865 122.577H100.364C97.9904 122.578 95.6668 123.444 93.67 125.071C91.6732 126.699 90.0875 129.02 89.1016 131.759C88.944 132.195 88.8038 132.641 88.6816 133.095Z" fill="#E6E6E6"/>
<path d="M104.616 136.187C104.329 136.214 104.052 136.337 103.815 136.544C105.022 136.449 106.221 136.238 107.402 135.912L104.616 136.187Z" fill="#232121"/>
<path d="M102.233 74.0337C96.7254 74.0344 91.3724 76.3404 87.0044 80.5939C82.6365 84.8473 79.4979 90.8103 78.076 97.5571C76.654 104.304 77.0282 111.457 79.1403 117.907C81.2525 124.357 84.9846 129.742 89.7573 133.226C91.0242 134.157 92.3542 134.942 93.7312 135.572L93.9653 135.675C96.6217 136.857 99.4173 137.459 102.233 137.455C102.777 137.455 103.322 137.432 103.857 137.381C105.097 137.284 106.329 137.069 107.543 136.736C108.223 136.548 108.889 136.325 109.519 136.08C109.672 136.023 109.816 135.966 109.973 135.903C115.634 133.565 120.451 128.744 123.558 122.305C126.666 115.867 127.861 108.234 126.928 100.779C125.996 93.323 122.996 86.5339 118.47 81.6316C113.943 76.7293 108.186 74.0352 102.233 74.0337ZM116.742 129.5C114.585 131.611 112.156 133.234 109.564 134.299C109.424 134.356 109.28 134.413 109.136 134.471C108.538 134.704 107.908 134.91 107.26 135.087C106.111 135.405 104.945 135.611 103.772 135.703C103.263 135.749 102.746 135.772 102.233 135.772C99.5677 135.774 96.9217 135.205 94.4063 134.088L94.1859 133.991C92.8162 133.367 91.4961 132.58 90.2434 131.64C85.8805 128.383 82.4565 123.437 80.4745 117.529C78.4925 111.621 78.0571 105.063 79.2322 98.8185C80.4074 92.5738 83.131 86.9716 87.0031 82.8352C90.8751 78.6989 95.6913 76.2465 100.744 75.8385C105.796 75.4304 110.819 77.0882 115.074 80.5682C119.328 84.0482 122.59 89.1669 124.381 95.1722C126.171 101.177 126.395 107.753 125.02 113.931C123.645 120.11 120.744 125.567 116.742 129.5Z" fill="#CCCCCC"/>
<path d="M198.016 288.432H66.9515C65.3015 288.43 63.7195 287.597 62.5527 286.118C61.3859 284.638 60.7296 282.632 60.7278 280.54V54.9151C60.7296 52.8226 61.3859 50.8166 62.5527 49.337C63.7195 47.8574 65.3015 47.0252 66.9515 47.0228H198.016C199.666 47.0252 201.248 47.8574 202.415 49.337C203.582 50.8166 204.238 52.8226 204.24 54.9151V280.54C204.238 282.632 203.582 284.638 202.415 286.118C201.248 287.597 199.666 288.43 198.016 288.432ZM66.9515 47.9513C65.4956 47.9534 64.0997 48.6878 63.0702 49.9933C62.0407 51.2988 61.4616 53.0688 61.46 54.9151V280.54C61.4616 282.386 62.0407 284.156 63.0702 285.462C64.0997 286.767 65.4956 287.501 66.9515 287.504H198.016C199.472 287.501 200.868 286.767 201.897 285.462C202.927 284.156 203.506 282.386 203.508 280.54V54.9151C203.506 53.0688 202.927 51.2988 201.897 49.9933C200.868 48.6878 199.472 47.9534 198.016 47.9513L66.9515 47.9513Z" fill="#CCCCCC"/>
<path d="M172.644 105.622H135.557C134.779 105.622 134.032 105.23 133.482 104.532C132.932 103.835 132.623 102.888 132.623 101.902C132.623 100.915 132.932 99.9685 133.482 99.2708C134.032 98.573 134.779 98.181 135.557 98.181H172.644C173.422 98.181 174.168 98.573 174.718 99.2708C175.268 99.9685 175.578 100.915 175.578 101.902C175.578 102.888 175.268 103.835 174.718 104.532C174.168 105.23 173.422 105.622 172.644 105.622Z" fill="#E6E6E6"/>
<path d="M184.746 118.179H135.557C134.779 118.179 134.032 117.787 133.482 117.089C132.932 116.392 132.623 115.445 132.623 114.458C132.623 113.472 132.932 112.525 133.482 111.828C134.032 111.13 134.779 110.738 135.557 110.738H184.746C185.524 110.738 186.271 111.13 186.821 111.828C187.371 112.525 187.68 113.472 187.68 114.458C187.68 115.445 187.371 116.392 186.821 117.089C186.271 117.787 185.524 118.179 184.746 118.179Z" fill="#E6E6E6"/>
<path d="M172.59 166.34H80.2213C79.4432 166.34 78.6969 165.948 78.1467 165.25C77.5965 164.552 77.2874 163.606 77.2874 162.619C77.2874 161.632 77.5965 160.686 78.1467 159.988C78.6969 159.291 79.4432 158.899 80.2213 158.899H172.59C173.368 158.899 174.114 159.291 174.664 159.988C175.214 160.686 175.524 161.632 175.524 162.619C175.524 163.606 175.214 164.552 174.664 165.25C174.114 165.948 173.368 166.34 172.59 166.34Z" fill="#E6E6E6"/>
<path d="M184.692 178.896H80.2213C79.4432 178.896 78.6969 178.504 78.1467 177.807C77.5965 177.109 77.2874 176.163 77.2874 175.176C77.2874 174.189 77.5965 173.243 78.1467 172.545C78.6969 171.847 79.4432 171.455 80.2213 171.455H184.692C185.47 171.455 186.217 171.847 186.767 172.545C187.317 173.243 187.626 174.189 187.626 175.176C187.626 176.163 187.317 177.109 186.767 177.807C186.217 178.504 185.47 178.896 184.692 178.896Z" fill="#E6E6E6"/>
<path d="M172.59 207.757H80.2213C79.4432 207.757 78.6969 207.365 78.1467 206.667C77.5965 205.969 77.2874 205.023 77.2874 204.036C77.2874 203.049 77.5965 202.103 78.1467 201.405C78.6969 200.708 79.4432 200.316 80.2213 200.316H172.59C173.368 200.316 174.114 200.708 174.664 201.405C175.214 202.103 175.524 203.049 175.524 204.036C175.524 205.023 175.214 205.969 174.664 206.667C174.114 207.365 173.368 207.757 172.59 207.757Z" fill="#E6E6E6"/>
<path d="M184.692 220.314H80.2213C79.4432 220.314 78.6969 219.922 78.1467 219.224C77.5965 218.526 77.2874 217.58 77.2874 216.593C77.2874 215.606 77.5965 214.66 78.1467 213.962C78.6969 213.265 79.4432 212.873 80.2213 212.873H184.692C185.47 212.873 186.217 213.265 186.767 213.962C187.317 214.66 187.626 215.606 187.626 216.593C187.626 217.58 187.317 218.526 186.767 219.224C186.217 219.922 185.47 220.314 184.692 220.314Z" fill="#E6E6E6"/>
<path d="M172.59 249.174H80.2213C79.4432 249.174 78.6969 248.782 78.1467 248.084C77.5965 247.387 77.2874 246.44 77.2874 245.453C77.2874 244.467 77.5965 243.52 78.1467 242.823C78.6969 242.125 79.4432 241.733 80.2213 241.733H172.59C173.368 241.733 174.114 242.125 174.664 242.823C175.214 243.52 175.524 244.467 175.524 245.453C175.524 246.44 175.214 247.387 174.664 248.084C174.114 248.782 173.368 249.174 172.59 249.174Z" fill="#E6E6E6"/>
<path d="M184.692 261.731H80.2213C79.4432 261.731 78.6969 261.339 78.1467 260.641C77.5965 259.943 77.2874 258.997 77.2874 258.01C77.2874 257.024 77.5965 256.077 78.1467 255.379C78.6969 254.682 79.4432 254.29 80.2213 254.29H184.692C185.47 254.291 186.215 254.684 186.765 255.381C187.314 256.079 187.623 257.024 187.623 258.01C187.623 258.996 187.314 259.942 186.765 260.64C186.215 261.337 185.47 261.73 184.692 261.731Z" fill="#E6E6E6"/>
<path d="M252.691 134.759C252.812 133.345 252.586 131.918 252.045 130.673C251.504 129.427 250.674 128.423 249.667 127.797L148.658 65.1929C148.016 64.7944 147.318 64.5602 146.604 64.5038C145.89 64.4473 145.175 64.5697 144.499 64.8638C143.822 65.158 143.198 65.6183 142.662 66.2183C142.126 66.8183 141.688 67.5464 141.374 68.361L141.372 68.3658L103.487 166.659C102.855 168.305 102.763 170.203 103.232 171.935C103.701 173.667 104.693 175.092 105.989 175.898L206.998 238.502C208.297 239.304 209.793 239.42 211.159 238.826C212.524 238.231 213.649 236.973 214.285 235.329L252.17 137.036C252.446 136.321 252.623 135.55 252.691 134.759Z" fill="white"/>
<path d="M252.691 134.759C252.812 133.345 252.586 131.918 252.045 130.673C251.504 129.427 250.674 128.423 249.667 127.797L148.658 65.1929C148.016 64.7944 147.318 64.5602 146.604 64.5038C145.89 64.4473 145.175 64.5697 144.499 64.8638C143.822 65.158 143.198 65.6183 142.662 66.2183C142.126 66.8183 141.688 67.5464 141.374 68.361L141.372 68.3658L103.487 166.659C102.855 168.305 102.763 170.203 103.232 171.935C103.701 173.667 104.693 175.092 105.989 175.898L206.998 238.502C208.297 239.304 209.793 239.42 211.159 238.826C212.524 238.231 213.649 236.973 214.285 235.329L252.17 137.036C252.446 136.321 252.623 135.55 252.691 134.759ZM213.709 234.973C213.148 236.423 212.156 237.533 210.951 238.058C209.745 238.583 208.425 238.48 207.28 237.772L106.27 175.168C105.126 174.457 104.251 173.199 103.837 171.671C103.424 170.143 103.505 168.468 104.063 167.016L141.948 68.7226C142.509 67.2717 143.501 66.1621 144.706 65.6373C145.911 65.1125 147.231 65.2152 148.377 65.923L249.386 128.527C250.53 129.238 251.405 130.496 251.819 132.024C252.233 133.553 252.152 135.227 251.594 136.679L213.709 234.973Z" fill="#C8C8C8"/>
<path d="M241.673 139.228L215.22 207.863C215.043 208.321 214.73 208.672 214.35 208.838C213.97 209.003 213.553 208.971 213.192 208.747L121.31 151.8C121.245 151.761 121.182 151.714 121.122 151.66C120.821 151.4 120.604 151.011 120.51 150.564C120.417 150.118 120.453 149.643 120.613 149.228L147.067 80.5928C147.155 80.3659 147.277 80.163 147.426 79.9958C147.575 79.8286 147.749 79.7003 147.937 79.6182C148.125 79.5361 148.324 79.5019 148.523 79.5174C148.722 79.533 148.916 79.598 149.095 79.7088L240.977 136.655C241.338 136.879 241.615 137.276 241.745 137.758C241.876 138.24 241.85 138.769 241.674 139.227L241.673 139.228Z" fill="#E6E6E6"/>
<path d="M161.008 135.742C168.357 135.742 174.315 128.188 174.315 118.869C174.315 109.55 168.357 101.995 161.008 101.995C153.659 101.995 147.702 109.55 147.702 118.869C147.702 128.188 153.659 135.742 161.008 135.742Z" fill="#C21D03"/>
<path d="M180.491 188.821L121.844 152.472C121.77 152.428 121.7 152.375 121.634 152.314L172.853 108.58C173.169 108.306 173.536 108.143 173.918 108.107C174.299 108.071 174.682 108.165 175.025 108.378C175.369 108.591 175.662 108.916 175.874 109.32C176.087 109.723 176.211 110.191 176.234 110.676L179.091 163.099L179.228 165.608L180.491 188.821Z" fill="#232121"/>
<path opacity="0.2" d="M180.491 188.821L160.468 176.41L177.276 164.397L178.486 163.532L179.091 163.099L179.228 165.608L180.491 188.821Z" fill="black"/>
<path d="M213.146 209.059L162.421 177.621L179.228 165.608L180.439 164.742L202.341 149.086C203.777 148.06 205.834 149.216 206.301 151.179C206.332 151.312 206.356 151.447 206.373 151.584L213.146 209.059Z" fill="#232121"/>
<path d="M56.6357 215.05L62.1529 215.049L64.778 188.062L56.6344 188.063L56.6357 215.05Z" fill="#FFB8B8"/>
<path d="M55.228 212.766L66.0939 212.765C67.0032 212.765 67.9041 212.992 68.7443 213.433C69.5844 213.875 70.3478 214.522 70.9908 215.337C71.6338 216.152 72.1439 217.12 72.4919 218.186C72.8399 219.251 73.019 220.393 73.0189 221.546V221.831L55.2284 221.832L55.228 212.766Z" fill="#232121"/>
<path d="M13.7494 210.595L19.4659 212.013L26.4992 184.728L18.0626 182.635L13.7494 210.595Z" fill="#FFB8B8"/>
<path d="M12.6566 207.867L23.9142 210.659L23.9147 210.659C24.8568 210.893 25.7534 211.36 26.5533 212.033C27.3532 212.706 28.0407 213.572 28.5766 214.582C29.1124 215.592 29.4861 216.726 29.6764 217.92C29.8666 219.113 29.8696 220.342 29.6853 221.537L29.6397 221.832L11.2076 217.26L12.6566 207.867Z" fill="#232121"/>
<path d="M64.6627 121.957C64.4759 121.152 64.1522 120.409 63.7144 119.78C63.2767 119.151 62.7354 118.651 62.1289 118.316C61.5224 117.981 60.8652 117.819 60.2039 117.841C59.5425 117.862 58.8929 118.068 58.3009 118.442L46.8003 104.187L45.2135 114.592L56.3779 126.534C56.94 127.753 57.8354 128.669 58.8943 129.107C59.9532 129.545 61.1022 129.476 62.1234 128.912C63.1446 128.348 63.9671 127.328 64.4351 126.046C64.9032 124.765 64.9841 123.31 64.6627 121.957Z" fill="#FFB8B8"/>
<path d="M21.9942 48.5817C28.0989 48.5817 33.0478 42.3061 33.0478 34.5648C33.0478 26.8234 28.0989 20.5479 21.9942 20.5479C15.8894 20.5479 10.9406 26.8234 10.9406 34.5648C10.9406 42.3061 15.8894 48.5817 21.9942 48.5817Z" fill="#FFB8B8"/>
<path d="M19.6731 48.7963C20.2604 49.1221 21.463 43.1878 20.9243 42.0009C20.1231 40.2358 20.1705 40.2485 19.6386 39.0807C19.1067 37.9129 18.9877 36.3144 19.6765 35.2869C20.3652 34.2594 21.9591 34.3957 22.2734 35.684C22.0712 33.237 23.98 31.2699 25.8707 30.7171C27.7614 30.1644 29.7557 30.5076 31.6568 30.0157C33.8631 29.4448 36.1587 27.0996 35.2784 24.0229C35.1273 23.5107 34.9012 23.0394 34.6119 22.6338C33.5948 21.1837 32.1721 20.5645 30.7811 19.9658C27.8872 18.7203 24.9142 17.4591 21.8602 17.5966C19.3438 17.7635 16.9203 18.8569 14.8864 20.7431C12.8525 22.6293 11.2962 25.2265 10.4082 28.2169C10.1977 28.9649 10.0346 29.7331 9.92057 30.5141C8.8723 37.6616 12.1455 44.7119 17.4617 47.4336L19.6731 48.7963Z" fill="#232121"/>
<path d="M16.9591 125.797C16.6772 125.581 16.4513 125.265 16.3091 124.888C16.167 124.511 16.1148 124.09 16.159 123.676L11.1711 92.3437L6.11515 68.2975C5.56009 65.6626 5.72783 62.8667 6.59066 60.3686C7.4535 57.8704 8.96028 55.8183 10.8638 54.5489L14.2063 50.5385L21.4982 54.5222L24.9631 58.9897C27.4482 60.5241 29.6528 62.701 31.4349 65.3804C33.217 68.0597 34.5374 71.1823 35.3111 74.5473L40.8684 98.662L53.7025 122.875C53.9168 123.278 54.017 123.762 53.9869 124.247C53.9567 124.732 53.7979 125.19 53.5363 125.546C51.7508 127.981 16.9591 125.797 16.9591 125.797Z" fill="#232121"/>
<path d="M50.5837 123.571L31.6589 106.941C29.0795 104.659 27.2122 101.303 26.3813 97.4559L21.0617 72.8251C20.8637 71.9228 20.8103 70.9794 20.9047 70.0505C20.9991 69.1215 21.2394 68.2261 21.6113 67.4169C22.1165 66.2996 22.8599 65.3856 23.7562 64.78C24.6526 64.1744 25.6655 63.9017 26.6786 63.9933C27.6916 64.0848 28.6638 64.5369 29.4833 65.2976C30.3029 66.0583 30.9366 67.0967 31.3117 68.2936L39.2008 92.9021L56.0101 113.131C56.1993 113.422 56.3251 113.771 56.3751 114.143C56.4251 114.515 56.3976 114.897 56.2952 115.252L53.0939 122.509C52.9828 122.927 52.7712 123.291 52.4888 123.549C52.2064 123.807 51.8675 123.946 51.5194 123.948C51.1844 123.947 50.8576 123.816 50.5837 123.571Z" fill="#232121"/>
<path d="M11.2675 206.418C11.1128 206.137 11.0137 205.813 10.9787 205.473C10.9436 205.133 10.9736 204.787 11.0661 204.465L19.8212 164.105L20.4683 124.559L49.9403 121.996L50.0833 121.984L58.9601 142.385C61.7393 148.764 63.4406 155.807 63.9558 163.065L66.8811 203.715C66.9253 204.268 66.7968 204.82 66.5232 205.254C66.2497 205.688 65.8529 205.968 65.4181 206.035L56.5316 207.107C56.1035 207.173 55.6719 207.024 55.329 206.692C54.986 206.361 54.7589 205.872 54.696 205.331L51.0875 164.022L38.1038 136.204L33.7455 165.491L24.7163 205.936C24.5982 206.339 24.3861 206.688 24.1082 206.935C23.8302 207.183 23.4995 207.317 23.1599 207.32L12.6288 207.326C12.3606 207.327 12.0963 207.245 11.8589 207.087C11.6216 206.929 11.4185 206.699 11.2675 206.418Z" fill="#232121"/>
<path d="M236.934 339.157H14.8515C10.914 339.151 7.13907 337.165 4.35483 333.634C1.57059 330.104 0.00444781 325.317 0 320.324V165.665C0.00444781 160.672 1.57059 155.885 4.35483 152.354C7.13907 148.824 10.914 146.838 14.8515 146.832H42.0806C45.7751 146.828 49.3376 148.574 52.0694 151.728L81.5977 178.466C83.5228 180.697 86.037 181.933 88.6448 181.93H238.313C240.281 181.93 242.23 182.426 244.046 183.39C245.862 184.354 247.509 185.766 248.891 187.544C250.273 189.322 251.362 191.43 252.095 193.747C252.829 196.064 253.191 198.542 253.163 201.038L251.784 320.599C251.711 325.539 250.116 330.247 247.341 333.715C244.566 337.183 240.83 339.136 236.934 339.157Z" fill="white"/>
<path d="M234.961 330.026H16.1655C14.266 330.023 12.4449 329.065 11.1018 327.362C9.75864 325.658 9.00312 323.349 9.00098 320.94V163.753C9.00313 161.344 9.75864 159.035 11.1018 157.331C12.4449 155.628 14.266 154.67 16.1655 154.667C17.8455 154.67 19.4563 155.517 20.6443 157.024C21.8322 158.53 22.5005 160.573 22.5024 162.703V310.097C22.5044 312.355 23.2125 314.519 24.4712 316.115C25.73 317.711 27.4367 318.609 29.2168 318.612H234.222C235.24 318.597 236.233 319.016 237.042 319.801C237.851 320.586 238.429 321.691 238.684 322.942C238.97 324.127 238.934 325.4 238.583 326.557C238.232 327.714 237.585 328.688 236.746 329.325C236.214 329.764 235.596 330.007 234.961 330.026Z" fill="#F2F2F2"/>
<path d="M127.554 254.538L126.978 253.808C126.859 253.666 126.789 253.47 126.783 253.262C126.778 253.055 126.838 252.854 126.95 252.702C126.959 252.69 126.968 252.678 126.978 252.666L132.032 246.251C132.088 246.177 132.154 246.116 132.228 246.074C132.302 246.031 132.381 246.008 132.462 246.004C132.543 246.001 132.624 246.018 132.699 246.054C132.775 246.09 132.845 246.145 132.904 246.215C132.914 246.227 132.923 246.239 132.932 246.251L137.986 252.66C138.045 252.733 138.093 252.819 138.125 252.915C138.158 253.01 138.176 253.113 138.177 253.217C138.179 253.321 138.164 253.425 138.134 253.522C138.104 253.619 138.059 253.707 138.002 253.782L137.986 253.802L137.41 254.532C137.353 254.607 137.285 254.667 137.21 254.709C137.134 254.75 137.053 254.773 136.971 254.774C136.889 254.776 136.807 254.758 136.731 254.719C136.655 254.681 136.585 254.624 136.526 254.552L136.51 254.532L133.522 250.537V260.017C133.522 260.12 133.507 260.223 133.476 260.318C133.446 260.414 133.4 260.502 133.343 260.575C133.286 260.649 133.218 260.708 133.143 260.748C133.068 260.788 132.987 260.809 132.905 260.81L132.901 260.81H132.068C131.902 260.81 131.743 260.726 131.626 260.578C131.509 260.429 131.443 260.227 131.443 260.017V250.549L128.454 254.544C128.339 254.694 128.18 254.78 128.014 254.783C127.848 254.786 127.689 254.705 127.57 254.558L127.554 254.538Z" fill="#C21D03"/>
<path d="M132.473 240.425C134.502 240.425 136.485 241.188 138.171 242.617C139.858 244.046 141.173 246.077 141.949 248.454C142.725 250.83 142.928 253.445 142.533 255.968C142.137 258.491 141.16 260.809 139.726 262.628C138.291 264.447 136.464 265.685 134.474 266.187C132.485 266.689 130.422 266.431 128.548 265.447C126.674 264.463 125.072 262.796 123.945 260.657C122.818 258.518 122.217 256.003 122.217 253.431C122.219 249.982 123.3 246.676 125.223 244.237C127.146 241.799 129.754 240.428 132.473 240.425ZM132.473 238.713C130.178 238.713 127.934 239.576 126.025 241.193C124.116 242.81 122.628 245.109 121.75 247.798C120.871 250.488 120.642 253.447 121.089 256.302C121.537 259.157 122.643 261.78 124.266 263.838C125.889 265.897 127.957 267.298 130.209 267.866C132.46 268.434 134.794 268.143 136.915 267.029C139.036 265.915 140.848 264.028 142.124 261.608C143.399 259.188 144.08 256.342 144.08 253.431C144.08 249.527 142.857 245.784 140.68 243.024C138.504 240.263 135.551 238.713 132.473 238.713Z" fill="#C8C8C8"/>
<path d="M236.934 339.157H14.8515C10.914 339.151 7.13907 337.165 4.35483 333.634C1.57059 330.104 0.00444781 325.317 0 320.324V165.665C0.00444781 160.672 1.57059 155.885 4.35483 152.354C7.13907 148.824 10.914 146.838 14.8515 146.832H42.0806C45.7751 146.828 49.3376 148.574 52.0694 151.728L81.5977 178.466C83.5228 180.697 86.037 181.933 88.6448 181.93H238.313C240.281 181.93 242.23 182.426 244.046 183.39C245.862 184.354 247.509 185.766 248.891 187.544C250.273 189.322 251.362 191.43 252.095 193.747C252.829 196.064 253.191 198.542 253.163 201.038L251.784 320.599C251.711 325.539 250.116 330.247 247.341 333.715C244.566 337.183 240.83 339.136 236.934 339.157ZM14.8515 147.973C11.1527 147.979 7.60652 149.844 4.99102 153.161C2.37553 156.478 0.904297 160.974 0.900094 165.665V320.324C0.904297 325.014 2.37553 329.511 4.99102 332.828C7.60652 336.144 11.1527 338.01 14.8515 338.015H236.934C240.594 337.996 244.103 336.162 246.71 332.904C249.317 329.646 250.815 325.223 250.884 320.582L252.263 201.021C252.29 198.677 251.949 196.348 251.26 194.172C250.571 191.996 249.548 190.015 248.25 188.345C246.952 186.674 245.405 185.348 243.699 184.443C241.993 183.537 240.162 183.071 238.313 183.071H88.6448C85.8218 183.074 83.0996 181.741 81.0111 179.332L51.4829 152.595C48.9144 149.618 45.56 147.97 42.0806 147.973H14.8515Z" fill="#C8C8C8"/>
<path d="M255.755 342.168H250.237L248.513 315.181L255.756 315.181L255.755 342.168Z" fill="#FFB8B8"/>
<path d="M257.162 348.95L239.371 348.949V348.664C239.371 347.511 239.55 346.369 239.898 345.304C240.246 344.238 240.756 343.27 241.399 342.455C242.043 341.639 242.806 340.993 243.646 340.551C244.486 340.11 245.387 339.883 246.296 339.883L257.162 339.884L257.162 348.95Z" fill="#232121"/>
<path d="M317.411 342.168H311.894L309.269 315.181L317.412 315.181L317.411 342.168Z" fill="#FFB8B8"/>
<path d="M318.818 348.95L301.028 348.949V348.664C301.028 347.511 301.207 346.369 301.555 345.304C301.903 344.238 302.413 343.27 303.056 342.455C303.699 341.639 304.462 340.993 305.302 340.551C306.143 340.11 307.043 339.883 307.952 339.883L318.819 339.884L318.818 348.95Z" fill="#232121"/>
<path d="M299.269 258.74C300.031 257.608 300.46 256.177 300.484 254.689C300.508 253.201 300.125 251.749 299.4 250.578C299.254 250.354 299.092 250.146 298.918 249.956L303.074 230.5L296.148 233.414L293.263 251.442C292.785 252.554 292.573 253.819 292.654 255.082C292.736 256.344 293.106 257.549 293.721 258.547C294.043 259.086 294.456 259.527 294.93 259.836C295.403 260.145 295.926 260.315 296.459 260.334C296.991 260.352 297.521 260.219 298.007 259.943C298.494 259.667 298.925 259.256 299.269 258.74Z" fill="#FFB8B8"/>
<path d="M299.003 246.772C298.916 246.772 298.829 246.764 298.743 246.747L295.134 246.057C294.853 245.996 294.586 245.857 294.352 245.652C294.118 245.446 293.922 245.178 293.778 244.866C293.465 244.202 293.353 243.417 293.462 242.656L297.965 210.764L294.911 190.275C294.322 186.332 295.841 182.35 298.444 181.012C299.216 180.611 300.058 180.471 300.885 180.606C301.713 180.74 302.499 181.145 303.167 181.779C303.887 182.471 304.484 183.347 304.92 184.351C305.356 185.354 305.62 186.463 305.696 187.605L307.858 213.729L307.832 213.843L300.876 244.803C300.776 245.345 300.538 245.831 300.2 246.186C299.862 246.542 299.441 246.747 299.003 246.772Z" fill="#C21D03"/>
<path d="M297.937 169.721C304.042 169.721 308.991 163.445 308.991 155.704C308.991 147.963 304.042 141.687 297.937 141.687C291.832 141.687 286.883 147.963 286.883 155.704C286.883 163.445 291.832 169.721 297.937 169.721Z" fill="#FFB8B8"/>
<path d="M292.278 220.861C292.002 220.861 291.729 220.796 291.472 220.671L274.001 212.149C273.528 211.92 273.13 211.495 272.872 210.943C272.614 210.391 272.51 209.745 272.579 209.109L273.28 202.436C272.864 200.07 272.902 197.612 273.392 195.269C273.881 192.926 274.808 190.767 276.093 188.973L276.518 188.379L281.687 176.426C282.037 175.617 282.511 174.903 283.079 174.326C283.648 173.749 284.301 173.321 285.001 173.066C285.701 172.811 286.434 172.734 287.158 172.84C287.881 172.946 288.581 173.232 289.217 173.683L298.345 180.151C299.546 181.001 300.453 182.391 300.888 184.046C302.116 188.733 302.025 193.815 300.63 198.426L294.38 219.031C294.215 219.569 293.926 220.03 293.551 220.357C293.176 220.683 292.732 220.858 292.278 220.861Z" fill="#C21D03"/>
<path d="M246.491 335.542L246.467 335.536C246.169 335.463 245.886 335.315 245.634 335.1C245.383 334.884 245.168 334.607 245.003 334.284C244.838 333.961 244.726 333.599 244.675 333.22C244.623 332.841 244.632 332.452 244.702 332.078L258.09 257.864C260.282 246.1 263.31 234.611 267.137 223.539L272.833 207.071L294.087 219.375L297.122 226.413C299.488 234.252 300.704 242.573 300.711 250.966L322.308 331.224C322.413 331.616 322.45 332.032 322.416 332.444C322.382 332.856 322.277 333.253 322.11 333.609C321.942 333.964 321.716 334.269 321.446 334.503C321.177 334.736 320.87 334.892 320.548 334.96L308.726 334.791C308.614 334.816 308.501 334.828 308.388 334.827C307.94 334.828 307.502 334.657 307.131 334.338C306.76 334.019 306.473 333.566 306.308 333.038L281.621 251.893C281.586 251.785 281.525 251.694 281.448 251.631C281.371 251.567 281.28 251.536 281.188 251.539C281.098 251.541 281.011 251.578 280.938 251.645C280.865 251.712 280.811 251.806 280.782 251.914L257.358 333.463C257.178 334.097 256.827 334.63 256.366 334.965C255.905 335.301 255.365 335.418 254.843 335.295L246.491 335.542Z" fill="#232121"/>
<path d="M262.653 244.278C263.277 243.997 263.844 243.546 264.315 242.957C264.786 242.368 265.149 241.655 265.38 240.868C265.61 240.081 265.701 239.24 265.647 238.404C265.594 237.568 265.396 236.757 265.068 236.028L275.654 220.676L267.374 219.244L258.59 234.042C257.661 234.822 256.99 236.006 256.704 237.371C256.417 238.736 256.536 240.187 257.037 241.449C257.538 242.711 258.386 243.695 259.421 244.217C260.456 244.738 261.606 244.76 262.653 244.278Z" fill="#FFB8B8"/>
<path d="M267.644 233.463C267.276 233.463 266.913 233.348 266.587 233.129L262.862 230.609C262.589 230.424 262.348 230.17 262.156 229.862C261.964 229.554 261.824 229.198 261.745 228.818C261.666 228.439 261.65 228.042 261.697 227.654C261.745 227.266 261.855 226.894 262.021 226.562L275.781 199.068L278.167 178.319C278.29 177.247 278.584 176.217 279.03 175.293C279.476 174.369 280.066 173.569 280.763 172.942C281.46 172.315 282.25 171.874 283.086 171.646C283.921 171.418 284.785 171.407 285.623 171.614C286.462 171.821 287.259 172.241 287.966 172.85C288.673 173.459 289.275 174.244 289.736 175.157C290.197 176.069 290.507 177.091 290.647 178.16C290.788 179.229 290.756 180.323 290.553 181.376L285.627 206.949L269.396 232.405C269.185 232.736 268.918 233.004 268.615 233.187C268.312 233.37 267.98 233.465 267.644 233.463Z" fill="#C21D03"/>
<path d="M287.988 144.139C289.266 138.822 296.653 136.45 302.793 138.656C308.933 140.862 313.344 146.646 314.371 152.3C316.645 164.823 304.785 174.986 306.934 187.51C308.356 195.796 316.581 203.63 325.845 205.522C315.636 208.231 303.175 205.85 293.707 199.382C287.815 195.356 282.871 189.281 282.946 183.154C282.991 179.443 284.852 176.163 287.128 173.329C289.404 170.494 292.129 167.975 294.218 165.016C296.306 162.058 297.753 158.515 297.144 154.76C296.534 151.004 293.438 147.088 289.271 145.995L287.988 144.139Z" fill="#232121"/>
<path d="M349.55 350.001H178.082C177.963 350.001 177.848 349.94 177.764 349.833C177.679 349.726 177.632 349.581 177.632 349.43C177.632 349.278 177.679 349.133 177.764 349.026C177.848 348.919 177.963 348.859 178.082 348.859H349.55C349.669 348.859 349.784 348.919 349.868 349.026C349.953 349.133 350 349.278 350 349.43C350 349.581 349.953 349.726 349.868 349.833C349.784 349.94 349.669 350.001 349.55 350.001Z" fill="#CCCCCC"/>
</g>
<defs>
<clipPath id="clip0_52_756">
<rect width="350" height="350" fill="white"/>
</clipPath>
</defs>
</svg>
