<svg width="150" height="120" viewBox="0 0 150 120" fill="none" xmlns="http://www.w3.org/2000/svg">
<path d="M104.571 77.847H104.369V77.392H104.571V77.847ZM104.571 76.831H104.369V76.27H104.571V76.831ZM104.571 75.708H104.369V75.147H104.571V75.708ZM104.571 74.586H104.369V74.025H104.571V74.586ZM104.571 73.464H104.369V72.903H104.571V73.464ZM104.571 72.342H104.369V71.781H104.571V72.342ZM104.571 71.22H104.369V70.659H104.571V71.22ZM104.571 70.097H104.369V69.536H104.571V70.097ZM104.571 68.975H104.369V68.414H104.571V68.975ZM104.571 67.853H104.369V67.292H104.571V67.853ZM104.571 66.731H104.369V66.17H104.571V66.731ZM104.571 65.608H104.369V65.047H104.571V65.608ZM104.571 64.486H104.369V63.925H104.571V64.486ZM104.571 63.364H104.369V62.803H104.571V63.364ZM104.571 62.242H104.369V61.681H104.571V62.242ZM104.571 61.12H104.369V60.559H104.571V61.12ZM104.571 59.997H104.369V59.436H104.571V59.997ZM104.571 58.875H104.369V58.314H104.571V58.875ZM104.571 57.753H104.369V57.192H104.571V57.753ZM104.571 56.631H104.369V56.07H104.571V56.631ZM104.571 55.508H104.369V54.947H104.571V55.508ZM104.571 54.386H104.369V53.825H104.571V54.386ZM104.571 53.264H104.369V52.703H104.571V53.264ZM104.361 52.157C104.338 51.99 104.274 51.832 104.175 51.7L104.332 51.565C104.454 51.727 104.533 51.921 104.56 52.126L104.361 52.157ZM103.798 51.407C103.698 51.366 103.592 51.346 103.483 51.346H103.315V51.131H103.483C103.616 51.131 103.747 51.156 103.869 51.206L103.798 51.407ZM102.789 51.346H102.263V51.131H102.789V51.346ZM101.737 51.346H101.212V51.131H101.737V51.346ZM100.686 51.346H100.16V51.131H100.686V51.346ZM99.6328 51.346H99.1069V51.131H99.6328V51.346ZM98.5809 51.346H98.055V51.131H98.5809V51.346ZM97.5291 51.346H97.0031V51.131H97.5291V51.346ZM96.4772 51.346H95.9512V51.131H96.4772V51.346ZM95.4253 51.346H94.8994V51.131H95.4253V51.346ZM94.3725 51.346H93.8465V51.131H94.3725V51.346ZM93.3206 51.346H92.7947V51.131H93.3206V51.346ZM92.2687 51.346H91.7428V51.131H92.2687V51.346ZM91.2169 51.346H90.6909V51.131H91.2169V51.346ZM90.164 51.346H89.6381V51.131H90.164V51.346ZM89.1122 51.346H88.5862V51.131H89.1122V51.346ZM88.0603 51.346H87.5344V51.131H88.0603V51.346ZM87.0084 51.346H86.4825V51.131H87.0084V51.346ZM85.9565 51.346H85.4306V51.131H85.9565V51.346ZM84.9037 51.346H84.3778V51.131H84.9037V51.346ZM83.8519 51.346H83.3259V51.131H83.8519V51.346ZM82.8 51.346H82.274V51.131H82.8V51.346ZM81.7481 51.346H81.2222V51.131H81.7481V51.346ZM80.6953 51.346H80.1694V51.131H80.6953V51.346ZM79.6434 51.346H79.1175V51.131H79.6434V51.346ZM78.5915 51.346H78.0656V51.131H78.5915V51.346ZM77.5397 51.346H77.0137V51.131H77.5397V51.346ZM76.4878 51.346H75.9619V51.131H76.4878V51.346ZM75.435 51.346H74.909V51.131H75.435V51.346ZM74.3831 51.346H73.8572V51.131H74.3831V51.346ZM73.3312 51.346H72.8053V51.131H73.3312V51.346Z" fill="#356169"/>
<path d="M95.2884 103.139H37.5553V62.651C37.5553 61.981 38.0644 61.438 38.6925 61.438H94.1503C94.7784 61.438 95.2875 61.981 95.2875 62.651V103.139H95.2884Z" fill="#B2B6BB"/>
<path d="M94.7625 102.329H37.0293V62.651C37.0293 61.981 37.5384 61.438 38.1665 61.438H93.6243C94.2525 61.438 94.7616 61.981 94.7616 62.651V102.329H94.7625Z" fill="#61656D"/>
<path d="M92.7889 63.605H39.0027V100.161H92.7889V63.605Z" fill="white"/>
<path d="M94.9125 102.327H72.7631C72.5559 102.327 72.3881 102.506 72.3881 102.727V104.007C72.8034 104.582 73.4437 104.919 74.1244 104.919H93.5531C93.8587 104.919 94.1569 104.851 94.4297 104.724C94.9556 104.479 95.2884 103.914 95.2884 103.302V102.728C95.2884 102.506 95.1206 102.327 94.9125 102.327Z" fill="#868A91"/>
<path d="M80.3015 102.327H24.2325C24.0253 102.327 23.8574 102.506 23.8574 102.727V103.301C23.8574 103.914 24.1903 104.478 24.7163 104.723C24.9891 104.85 25.2871 104.918 25.5927 104.918H78.9412C79.2468 104.918 79.545 104.85 79.8178 104.723C80.3438 104.478 80.6765 103.913 80.6765 103.301V102.727C80.6774 102.506 80.5087 102.327 80.3015 102.327Z" fill="#B2B6BB"/>
<path d="M56.6118 103.375H47.9211C47.2818 103.375 46.7061 102.96 46.468 102.327H58.0658C57.8268 102.96 57.2521 103.375 56.6118 103.375Z" fill="#868A91"/>
<path d="M92.7889 63.605H39.0027V66.867H92.7889V63.605Z" fill="#21252B"/>
<path d="M93.1405 63.605H39.3542V66.867H93.1405V63.605Z" fill="#21252B"/>
<path d="M40.4905 65.8159C40.8478 65.8159 41.1374 65.507 41.1374 65.1259C41.1374 64.7449 40.8478 64.4359 40.4905 64.4359C40.1332 64.4359 39.8436 64.7449 39.8436 65.1259C39.8436 65.507 40.1332 65.8159 40.4905 65.8159Z" fill="#356169"/>
<path d="M42.8221 65.8159C43.1794 65.8159 43.469 65.507 43.469 65.1259C43.469 64.7449 43.1794 64.4359 42.8221 64.4359C42.4648 64.4359 42.1752 64.7449 42.1752 65.1259C42.1752 65.507 42.4648 65.8159 42.8221 65.8159Z" fill="#DADDDF"/>
<path d="M45.1527 65.8159C45.51 65.8159 45.7996 65.507 45.7996 65.1259C45.7996 64.7449 45.51 64.4359 45.1527 64.4359C44.7955 64.4359 44.5059 64.7449 44.5059 65.1259C44.5059 65.507 44.7955 65.8159 45.1527 65.8159Z" fill="#61656D"/>
<path d="M84.1772 71.067H51.9187C51.6299 71.067 51.3965 70.818 51.3965 70.51V68.85C51.3965 68.542 51.6299 68.293 51.9187 68.293H84.1772C84.466 68.293 84.6994 68.542 84.6994 68.85V70.51C84.6994 70.817 84.465 71.067 84.1772 71.067Z" fill="#DADDDF"/>
<path d="M83.4065 69.293C83.2143 69.088 82.9021 69.088 82.7109 69.293C82.5187 69.498 82.5187 69.831 82.7109 70.035C82.8862 70.222 83.1618 70.236 83.3549 70.08L83.6296 70.373L83.7243 70.272L83.4496 69.979C83.5949 69.774 83.5818 69.48 83.4065 69.293ZM83.3118 69.934C83.1721 70.083 82.9443 70.083 82.8046 69.934C82.6649 69.785 82.6649 69.543 82.8046 69.394C82.9443 69.245 83.1712 69.245 83.3108 69.394C83.4515 69.543 83.4515 69.785 83.3118 69.934Z" fill="#61656D"/>
<path d="M87.7012 69.222H86.2425V69.375H87.7012V69.222Z" fill="#61656D"/>
<path d="M87.7012 69.7679H86.2425V69.9209H87.7012V69.7679Z" fill="#61656D"/>
<path d="M87.7012 70.313H86.2425V70.466H87.7012V70.313Z" fill="#61656D"/>
<path d="M42.7378 71.067H41.0597C40.8047 71.067 40.5984 70.847 40.5984 70.575V68.785C40.5984 68.513 40.8047 68.293 41.0597 68.293H42.7378C42.9928 68.293 43.1991 68.513 43.1991 68.785V70.575C43.1991 70.846 42.9928 71.067 42.7378 71.067Z" fill="#356169"/>
<path d="M41.8988 70.0569C41.5172 70.0569 41.2078 69.7269 41.2078 69.3199V69.3029H42.5906V69.3199C42.5897 69.7269 42.2803 70.0569 41.8988 70.0569Z" fill="white"/>
<path d="M90.3103 70.8291C90.9057 70.8291 91.3884 70.3142 91.3884 69.6791C91.3884 69.044 90.9057 68.5291 90.3103 68.5291C89.7148 68.5291 89.2322 69.044 89.2322 69.6791C89.2322 70.3142 89.7148 70.8291 90.3103 70.8291Z" fill="#356169"/>
<path d="M90.3103 69.7049C90.5205 69.7049 90.6909 69.5231 90.6909 69.2989C90.6909 69.0746 90.5205 68.8929 90.3103 68.8929C90.1001 68.8929 89.9297 69.0746 89.9297 69.2989C89.9297 69.5231 90.1001 69.7049 90.3103 69.7049Z" fill="#4D61FC"/>
<path d="M91.184 70.352C90.988 70.641 90.6702 70.829 90.3102 70.829C89.9512 70.829 89.6324 70.642 89.4365 70.352C89.4833 70.046 89.7299 69.819 90.0233 69.819H90.5952C90.8905 69.819 91.1362 70.046 91.184 70.352Z" fill="#4D61FC"/>
<path opacity="0.8" d="M90.3103 69.7049C90.5205 69.7049 90.6909 69.5231 90.6909 69.2989C90.6909 69.0746 90.5205 68.8929 90.3103 68.8929C90.1001 68.8929 89.9297 69.0746 89.9297 69.2989C89.9297 69.5231 90.1001 69.7049 90.3103 69.7049Z" fill="white"/>
<path opacity="0.8" d="M91.184 70.352C90.988 70.641 90.6702 70.829 90.3102 70.829C89.9512 70.829 89.6324 70.642 89.4365 70.352C89.4833 70.046 89.7299 69.819 90.0233 69.819H90.5952C90.8905 69.819 91.1362 70.046 91.184 70.352Z" fill="white"/>
<path d="M42.3225 76.906H41.0325C40.8141 76.906 40.6369 76.717 40.6369 76.484V75.168C40.6369 74.935 40.8141 74.746 41.0325 74.746H42.3225C42.541 74.746 42.7182 74.935 42.7182 75.168V76.484C42.7182 76.716 42.541 76.906 42.3225 76.906Z" fill="#4D61FC"/>
<path d="M49.964 76.244H43.9162C43.8075 76.244 43.7194 76.15 43.7194 76.034V75.617C43.7194 75.501 43.8075 75.407 43.9162 75.407H49.964C50.0728 75.407 50.1609 75.501 50.1609 75.617V76.034C50.1609 76.15 50.0728 76.244 49.964 76.244Z" fill="#4D61FC"/>
<path d="M49.964 81.2309H43.9162C43.8075 81.2309 43.7194 81.1369 43.7194 81.0209V80.6039C43.7194 80.4879 43.8075 80.3939 43.9162 80.3939H49.964C50.0728 80.3939 50.1609 80.4879 50.1609 80.6039V81.0209C50.1609 81.1369 50.0728 81.2309 49.964 81.2309Z" fill="#4D61FC"/>
<path d="M49.964 86.219H43.9162C43.8075 86.219 43.7194 86.125 43.7194 86.009V85.592C43.7194 85.476 43.8075 85.382 43.9162 85.382H49.964C50.0728 85.382 50.1609 85.476 50.1609 85.592V86.009C50.1609 86.125 50.0728 86.219 49.964 86.219Z" fill="#4D61FC"/>
<path d="M49.964 91.2059H43.9162C43.8075 91.2059 43.7194 91.1119 43.7194 90.9959V90.5789C43.7194 90.4629 43.8075 90.3689 43.9162 90.3689H49.964C50.0728 90.3689 50.1609 90.4629 50.1609 90.5789V90.9959C50.1609 91.1119 50.0728 91.2059 49.964 91.2059Z" fill="#4D61FC"/>
<path d="M49.964 96.1939H43.9162C43.8075 96.1939 43.7194 96.0999 43.7194 95.9839V95.5669C43.7194 95.4509 43.8075 95.3569 43.9162 95.3569H49.964C50.0728 95.3569 50.1609 95.4509 50.1609 95.5669V95.9839C50.1609 96.0999 50.0728 96.1939 49.964 96.1939Z" fill="#4D61FC"/>
<path d="M42.3225 81.893H41.0325C40.8141 81.893 40.6369 81.704 40.6369 81.471V80.155C40.6369 79.922 40.8141 79.733 41.0325 79.733H42.3225C42.541 79.733 42.7182 79.922 42.7182 80.155V81.471C42.7182 81.704 42.541 81.893 42.3225 81.893Z" fill="#4D61FC"/>
<path d="M42.3225 86.8809H41.0325C40.8141 86.8809 40.6369 86.6919 40.6369 86.4589V85.1429C40.6369 84.9099 40.8141 84.7209 41.0325 84.7209H42.3225C42.541 84.7209 42.7182 84.9099 42.7182 85.1429V86.4589C42.7182 86.6909 42.541 86.8809 42.3225 86.8809Z" fill="#4D61FC"/>
<path d="M42.3225 91.868H41.0325C40.8141 91.868 40.6369 91.679 40.6369 91.446V90.13C40.6369 89.897 40.8141 89.708 41.0325 89.708H42.3225C42.541 89.708 42.7182 89.897 42.7182 90.13V91.446C42.7182 91.679 42.541 91.868 42.3225 91.868Z" fill="#4D61FC"/>
<path d="M42.3225 96.856H41.0325C40.8141 96.856 40.6369 96.667 40.6369 96.434V95.118C40.6369 94.885 40.8141 94.696 41.0325 94.696H42.3225C42.541 94.696 42.7182 94.885 42.7182 95.118V96.434C42.7182 96.666 42.541 96.856 42.3225 96.856Z" fill="#4D61FC"/>
<path d="M42.3225 76.906H41.0325C40.8141 76.906 40.6369 76.717 40.6369 76.484V75.168C40.6369 74.935 40.8141 74.746 41.0325 74.746H42.3225C42.541 74.746 42.7182 74.935 42.7182 75.168V76.484C42.7182 76.716 42.541 76.906 42.3225 76.906Z" fill="#B2B6BB"/>
<path d="M49.964 76.244H43.9162C43.8075 76.244 43.7194 76.15 43.7194 76.034V75.617C43.7194 75.501 43.8075 75.407 43.9162 75.407H49.964C50.0728 75.407 50.1609 75.501 50.1609 75.617V76.034C50.1609 76.15 50.0728 76.244 49.964 76.244Z" fill="#B2B6BB"/>
<path d="M49.964 81.2309H43.9162C43.8075 81.2309 43.7194 81.1369 43.7194 81.0209V80.6039C43.7194 80.4879 43.8075 80.3939 43.9162 80.3939H49.964C50.0728 80.3939 50.1609 80.4879 50.1609 80.6039V81.0209C50.1609 81.1369 50.0728 81.2309 49.964 81.2309Z" fill="#B2B6BB"/>
<path d="M49.964 86.219H43.9162C43.8075 86.219 43.7194 86.125 43.7194 86.009V85.592C43.7194 85.476 43.8075 85.382 43.9162 85.382H49.964C50.0728 85.382 50.1609 85.476 50.1609 85.592V86.009C50.1609 86.125 50.0728 86.219 49.964 86.219Z" fill="#B2B6BB"/>
<path d="M49.964 91.2059H43.9162C43.8075 91.2059 43.7194 91.1119 43.7194 90.9959V90.5789C43.7194 90.4629 43.8075 90.3689 43.9162 90.3689H49.964C50.0728 90.3689 50.1609 90.4629 50.1609 90.5789V90.9959C50.1609 91.1119 50.0728 91.2059 49.964 91.2059Z" fill="#B2B6BB"/>
<path d="M49.964 96.1939H43.9162C43.8075 96.1939 43.7194 96.0999 43.7194 95.9839V95.5669C43.7194 95.4509 43.8075 95.3569 43.9162 95.3569H49.964C50.0728 95.3569 50.1609 95.4509 50.1609 95.5669V95.9839C50.1609 96.0999 50.0728 96.1939 49.964 96.1939Z" fill="#B2B6BB"/>
<path d="M42.3225 81.893H41.0325C40.8141 81.893 40.6369 81.704 40.6369 81.471V80.155C40.6369 79.922 40.8141 79.733 41.0325 79.733H42.3225C42.541 79.733 42.7182 79.922 42.7182 80.155V81.471C42.7182 81.704 42.541 81.893 42.3225 81.893Z" fill="#B2B6BB"/>
<path d="M42.3225 86.8809H41.0325C40.8141 86.8809 40.6369 86.6919 40.6369 86.4589V85.1429C40.6369 84.9099 40.8141 84.7209 41.0325 84.7209H42.3225C42.541 84.7209 42.7182 84.9099 42.7182 85.1429V86.4589C42.7182 86.6909 42.541 86.8809 42.3225 86.8809Z" fill="#B2B6BB"/>
<path d="M42.3225 91.868H41.0325C40.8141 91.868 40.6369 91.679 40.6369 91.446V90.13C40.6369 89.897 40.8141 89.708 41.0325 89.708H42.3225C42.541 89.708 42.7182 89.897 42.7182 90.13V91.446C42.7182 91.679 42.541 91.868 42.3225 91.868Z" fill="#B2B6BB"/>
<path d="M42.3225 96.856H41.0325C40.8141 96.856 40.6369 96.667 40.6369 96.434V95.118C40.6369 94.885 40.8141 94.696 41.0325 94.696H42.3225C42.541 94.696 42.7182 94.885 42.7182 95.118V96.434C42.7182 96.666 42.541 96.856 42.3225 96.856Z" fill="#B2B6BB"/>
<path d="M92.7889 72.451H39.0027V72.5211H92.7889V72.451Z" fill="#DADDDF"/>
<path d="M51.4294 72.486H51.3638V100.161H51.4294V72.486Z" fill="#DADDDF"/>
<path d="M90.3627 75.171H53.143C52.9621 75.171 52.8149 75.014 52.8149 74.821V74.07C52.8149 73.877 52.9621 73.72 53.143 73.72H90.3627C90.5436 73.72 90.6908 73.877 90.6908 74.07V74.821C90.6908 75.014 90.5436 75.171 90.3627 75.171Z" fill="#868A91"/>
<path d="M78.539 98.8519H53.0277C52.9105 98.8519 52.8159 98.7509 52.8159 98.6259C52.8159 98.5009 52.9105 98.3999 53.0277 98.3999H78.539C78.6562 98.3999 78.7509 98.5009 78.7509 98.6259C78.7509 98.7509 78.6552 98.8519 78.539 98.8519Z" fill="#B2B6BB"/>
<path d="M78.539 96.8559H53.0277C52.9105 96.8559 52.8159 96.7549 52.8159 96.6299C52.8159 96.5049 52.9105 96.4039 53.0277 96.4039H78.539C78.6562 96.4039 78.7509 96.5049 78.7509 96.6299C78.7509 96.7539 78.6552 96.8559 78.539 96.8559Z" fill="#B2B6BB"/>
<path d="M78.539 94.8589H53.0277C52.9105 94.8589 52.8159 94.7579 52.8159 94.6329C52.8159 94.5079 52.9105 94.4069 53.0277 94.4069H78.539C78.6562 94.4069 78.7509 94.5079 78.7509 94.6329C78.7509 94.7579 78.6552 94.8589 78.539 94.8589Z" fill="#B2B6BB"/>
<path d="M78.539 92.862H53.0277C52.9105 92.862 52.8159 92.761 52.8159 92.636C52.8159 92.511 52.9105 92.41 53.0277 92.41H78.539C78.6562 92.41 78.7509 92.511 78.7509 92.636C78.7509 92.761 78.6552 92.862 78.539 92.862Z" fill="#B2B6BB"/>
<path d="M78.539 90.8648H53.0277C52.9105 90.8648 52.8159 90.7638 52.8159 90.6388C52.8159 90.5138 52.9105 90.4128 53.0277 90.4128H78.539C78.6562 90.4128 78.7509 90.5138 78.7509 90.6388C78.7509 90.7638 78.6552 90.8648 78.539 90.8648Z" fill="#B2B6BB"/>
<path d="M78.539 88.8679H53.0277C52.9105 88.8679 52.8159 88.7669 52.8159 88.6419C52.8159 88.5169 52.9105 88.4159 53.0277 88.4159H78.539C78.6562 88.4159 78.7509 88.5169 78.7509 88.6419C78.7509 88.7669 78.6552 88.8679 78.539 88.8679Z" fill="#B2B6BB"/>
<path d="M90.4791 86.8719H69.7135C69.5963 86.8719 69.5016 86.7709 69.5016 86.6459C69.5016 86.5209 69.5963 86.4199 69.7135 86.4199H90.4781C90.5953 86.4199 90.69 86.5209 90.69 86.6459C90.691 86.7709 90.5963 86.8719 90.4791 86.8719Z" fill="#B2B6BB"/>
<path d="M90.4791 84.875H69.7135C69.5963 84.875 69.5016 84.774 69.5016 84.649C69.5016 84.524 69.5963 84.4229 69.7135 84.4229H90.4781C90.5953 84.4229 90.69 84.524 90.69 84.649C90.691 84.774 90.5963 84.875 90.4791 84.875Z" fill="#B2B6BB"/>
<path d="M90.4791 82.878H69.7135C69.5963 82.878 69.5016 82.777 69.5016 82.652C69.5016 82.527 69.5963 82.426 69.7135 82.426H90.4781C90.5953 82.426 90.69 82.527 90.69 82.652C90.691 82.777 90.5963 82.878 90.4791 82.878Z" fill="#B2B6BB"/>
<path d="M90.4791 80.881H69.7135C69.5963 80.881 69.5016 80.78 69.5016 80.655C69.5016 80.53 69.5963 80.429 69.7135 80.429H90.4781C90.5953 80.429 90.69 80.53 90.69 80.655C90.691 80.78 90.5963 80.881 90.4791 80.881Z" fill="#B2B6BB"/>
<path d="M90.4791 78.8849H69.7135C69.5963 78.8849 69.5016 78.7839 69.5016 78.6589C69.5016 78.5339 69.5963 78.4329 69.7135 78.4329H90.4781C90.5953 78.4329 90.69 78.5339 90.69 78.6589C90.691 78.7829 90.5963 78.8849 90.4791 78.8849Z" fill="#B2B6BB"/>
<path d="M90.4791 76.8879H69.7135C69.5963 76.8879 69.5016 76.7869 69.5016 76.6619C69.5016 76.5369 69.5963 76.4359 69.7135 76.4359H90.4781C90.5953 76.4359 90.69 76.5369 90.69 76.6619C90.691 76.7869 90.5963 76.8879 90.4791 76.8879Z" fill="#B2B6BB"/>
<path d="M51.3964 78.2841H39.0027V78.3541H51.3964V78.2841Z" fill="#DADDDF"/>
<path d="M51.3964 83.271H39.0027V83.341H51.3964V83.271Z" fill="#DADDDF"/>
<path d="M51.3964 88.259H39.0027V88.329H51.3964V88.259Z" fill="#DADDDF"/>
<path d="M51.3964 93.246H39.0027V93.316H51.3964V93.246Z" fill="#DADDDF"/>
<path d="M51.3964 98.234H39.0027V98.304H51.3964V98.234Z" fill="#DADDDF"/>
<path d="M52.8149 77.2671V86.2881C52.8149 86.7641 53.1768 87.1511 53.6239 87.1511H66.853C67.2993 87.1511 67.6621 86.7651 67.6621 86.2881V77.2671C67.6621 76.7911 67.3002 76.4041 66.853 76.4041H53.6239C53.1777 76.4051 52.8149 76.7911 52.8149 77.2671Z" fill="#DADDDF"/>
<path d="M59.8696 82.697C61.2485 82.697 62.3663 81.5047 62.3663 80.034C62.3663 78.5633 61.2485 77.371 59.8696 77.371C58.4908 77.371 57.373 78.5633 57.373 80.034C57.373 81.5047 58.4908 82.697 59.8696 82.697Z" fill="#356169"/>
<path opacity="0.2" d="M54.5849 86.4661L58.4249 83.8481L54.6262 81.2311L54.5849 86.4661Z" fill="black"/>
<path opacity="0.2" d="M60.8497 80.3256V86.0836H66.2478V80.3256H60.8497Z" fill="black"/>
<path d="M89.925 98.852H81.2719C80.8256 98.852 80.4628 98.466 80.4628 97.989V88.759C80.4628 88.283 80.8247 87.896 81.2719 87.896H89.925C90.3713 87.896 90.7341 88.282 90.7341 88.759V97.989C90.7341 98.466 90.3713 98.852 89.925 98.852Z" fill="#DADDDF"/>
<path opacity="0.2" d="M85.5983 93.583C83.9924 93.583 82.6902 92.194 82.6902 90.481V90.22H88.5064V90.481C88.5064 92.194 87.2042 93.583 85.5983 93.583Z" fill="black"/>
<path d="M88.5064 94.745H82.6902V96.53H88.5064V94.745Z" fill="#356169"/>
<path d="M48.9572 70.3129H44.2153C44.0362 70.3129 43.8909 70.1579 43.8909 69.9669V69.2399C43.8909 69.0489 44.0362 68.8939 44.2153 68.8939H48.9572C49.1362 68.8939 49.2816 69.0489 49.2816 69.2399V69.9669C49.2825 70.1579 49.1362 70.3129 48.9572 70.3129Z" fill="#356169"/>
<path d="M77.4102 43.87C77.4205 43.707 77.4262 43.543 77.4262 43.377C77.4262 39.306 74.3324 36.006 70.5159 36.006C67.6471 36.006 65.1862 37.871 64.1418 40.526C63.8071 40.411 63.4509 40.347 63.0805 40.347C61.3237 40.347 59.8762 41.751 59.6662 43.564C57.3702 44.015 55.6312 46.161 55.6312 48.74C55.6312 51.647 57.8409 54.004 60.5662 54.004H75.538C78.2634 54.004 80.473 51.647 80.473 48.74C80.4721 46.541 79.2065 44.657 77.4102 43.87Z" fill="#356169"/>
<path d="M42.1255 44.195L44.2705 42.623C44.3708 42.549 44.5011 42.542 44.6089 42.6L45.403 43.034L50.2968 39.448C50.4468 39.338 50.653 39.377 50.7571 39.539L54.343 45.108C54.4386 45.256 54.403 45.457 54.2643 45.559L46.5889 51.182C46.4521 51.282 46.2636 51.245 46.1699 51.099L42.0374 44.682C41.9371 44.522 41.9755 44.305 42.1255 44.195Z" fill="#4D61FC"/>
<path d="M54.479 45.249L52.8224 39.366C52.7802 39.214 52.6105 39.149 52.4868 39.239L44.7403 44.915C44.6353 44.992 44.5874 45.133 44.6249 45.263L46.2758 51.122C46.3087 51.239 46.44 51.29 46.5366 51.219L54.4152 45.446C54.4733 45.408 54.4987 45.326 54.479 45.249Z" fill="#4D61FC"/>
<path opacity="0.4" d="M54.479 45.249L52.8224 39.366C52.7802 39.214 52.6105 39.149 52.4868 39.239L44.7403 44.915C44.6353 44.992 44.5874 45.133 44.6249 45.263L46.2758 51.122C46.3087 51.239 46.44 51.29 46.5366 51.219L54.4152 45.446C54.4733 45.408 54.4987 45.326 54.479 45.249Z" fill="white"/>
<path d="M78.8194 34.996L72.6375 34.14C72.4313 34.111 72.286 33.91 72.3122 33.69L73.3435 25.214C73.3706 24.994 73.5591 24.839 73.7653 24.867L79.9294 25.716C80.1356 25.744 80.281 25.945 80.2547 26.165L79.2413 34.648C79.215 34.869 79.0256 35.025 78.8194 34.996Z" fill="#4D61FC"/>
<path opacity="0.2" d="M78.8194 34.996L72.6375 34.14C72.4313 34.111 72.286 33.91 72.3122 33.69L73.3435 25.214C73.3706 24.994 73.5591 24.839 73.7653 24.867L79.9294 25.716C80.1356 25.744 80.281 25.945 80.2547 26.165L79.2413 34.648C79.215 34.869 79.0256 35.025 78.8194 34.996Z" fill="white"/>
<path d="M79.3781 34.618L73.3613 32.171C73.2197 32.113 73.1485 31.944 73.2028 31.793L76.1296 23.604C76.184 23.453 76.3425 23.377 76.4841 23.435L80.8856 25.225L82.0359 28.002L79.7315 34.449C79.678 34.599 79.5197 34.675 79.3781 34.618Z" fill="#4D61FC"/>
<path opacity="0.6" d="M79.3781 34.618L73.3613 32.171C73.2197 32.113 73.1485 31.944 73.2028 31.793L76.1296 23.604C76.184 23.453 76.3425 23.377 76.4841 23.435L80.8856 25.225L82.0359 28.002L79.7315 34.449C79.678 34.599 79.5197 34.675 79.3781 34.618Z" fill="white"/>
<path d="M82.0358 28.001L80.4214 27.344C80.2799 27.286 80.2086 27.117 80.263 26.966L80.8855 25.224L82.0358 28.001Z" fill="#4D61FC"/>
<path opacity="0.2" d="M82.0358 28.001L80.4214 27.344C80.2799 27.286 80.2086 27.117 80.263 26.966L80.8855 25.224L82.0358 28.001Z" fill="white"/>
<path d="M77.4611 24.8585L76.7288 24.5607L76.0723 26.3978L76.8046 26.6956L77.4611 24.8585Z" fill="#4D61FC"/>
<path d="M77.8914 26.0008L77.159 25.703L76.8043 26.6954L77.5367 26.9931L77.8914 26.0008Z" fill="white"/>
<path d="M80.6444 29.26L75.759 27.2734L75.6087 27.6939L80.4941 29.6804L80.6444 29.26Z" fill="white"/>
<path d="M80.0678 30.8741L75.1823 28.8876L75.032 29.3081L79.9175 31.2946L80.0678 30.8741Z" fill="white"/>
<path d="M78.0341 31.895L74.6063 30.5012L74.456 30.9217L77.8838 32.3155L78.0341 31.895Z" fill="white"/>
<path d="M93.145 38.8683L84.5996 37.0917L83.3278 44.0515L91.8733 45.8281L93.145 38.8683Z" fill="white"/>
<path d="M92.6286 39.254L84.9415 37.6559L83.8434 43.6656L91.5304 45.2637L92.6286 39.254Z" fill="#4D61FC"/>
<path opacity="0.7" d="M92.6286 39.254L84.9415 37.6559L83.8434 43.6656L91.5304 45.2637L92.6286 39.254Z" fill="white"/>
<path d="M92.0531 42.428L90.5466 40.368C90.4688 40.262 90.3291 40.233 90.2203 40.3L87.8775 41.744L87.0328 40.589C86.955 40.483 86.8163 40.454 86.7066 40.521L84.1322 42.106L83.8481 43.663L91.5347 45.261L92.0531 42.428Z" fill="#4D61FC"/>
<path opacity="0.2" d="M92.053 42.428L90.5502 40.373C90.4705 40.264 90.3271 40.234 90.2155 40.303L87.8784 41.744L87.0374 40.594C86.9577 40.485 86.8143 40.455 86.7027 40.524L84.134 42.106L83.8499 43.663L91.5365 45.261L92.053 42.428Z" fill="white"/>
<path d="M88.2478 40.0169C88.4984 40.0169 88.7016 39.8002 88.7016 39.5329C88.7016 39.2656 88.4984 39.049 88.2478 39.049C87.9972 39.049 87.7941 39.2656 87.7941 39.5329C87.7941 39.8002 87.9972 40.0169 88.2478 40.0169Z" fill="white"/>
<path opacity="0.5" d="M87.8784 41.7439L87.4059 42.0349C87.3215 42.0869 87.2137 42.0389 87.1893 41.9389L86.8284 40.4879C86.9081 40.4869 86.9859 40.5239 87.0374 40.5939L87.8784 41.7439Z" fill="#4D61FC"/>
<path opacity="0.5" d="M92.0539 42.428L91.6789 44.481L90.4058 40.272C90.4621 40.286 90.5136 40.321 90.5511 40.372L92.0539 42.428Z" fill="#4D61FC"/>
<path d="M63.268 36.051L58.2187 36.526C57.5305 36.591 56.924 36.048 56.863 35.314L56.4177 29.929C56.3568 29.195 56.8659 28.548 57.554 28.483L62.6024 28.008C63.2905 27.943 63.8971 28.486 63.958 29.22L64.4034 34.605C64.4643 35.339 63.9552 35.987 63.268 36.051Z" fill="#4D61FC"/>
<path opacity="0.2" d="M63.268 36.051L58.2187 36.526C57.5305 36.591 56.924 36.048 56.863 35.314L56.4177 29.929C56.3568 29.195 56.8659 28.548 57.554 28.483L62.6024 28.008C63.2905 27.943 63.8971 28.486 63.958 29.22L64.4034 34.605C64.4643 35.339 63.9552 35.987 63.268 36.051Z" fill="white"/>
<path d="M62.0268 30.1079C61.9921 30.0759 61.949 30.0629 61.9077 30.0729L59.3052 30.8719C59.2312 30.8889 59.1805 30.9739 59.188 31.0689L59.3634 33.5499C59.2199 33.4619 59.0615 33.4239 58.904 33.4399C58.4934 33.4789 58.1877 33.8429 58.2215 34.2519C58.2552 34.6609 58.6162 34.9629 59.0268 34.9239C59.4374 34.8849 59.743 34.5209 59.7093 34.1119L59.5762 32.1359L61.8843 31.4059L62.0099 32.9269C61.8665 32.8389 61.708 32.8009 61.5515 32.8169C61.1409 32.8559 60.8352 33.2199 60.869 33.6289C60.9027 34.0379 61.2637 34.3399 61.6743 34.3009C62.0849 34.2619 62.3905 33.8979 62.3568 33.4889L62.0887 30.2429C62.084 30.1889 62.0615 30.1399 62.0268 30.1079Z" fill="white"/>
<path d="M58.9743 50.1139L58.5627 49.9229L58.6433 49.7259L59.0549 49.9169L58.9743 50.1139ZM58.0799 49.6989L57.598 49.4749L57.6786 49.2779L58.1605 49.5019L58.0799 49.6989ZM57.1152 49.2509L56.6333 49.0269L56.7139 48.8299L57.1958 49.0539L57.1152 49.2509ZM56.1514 48.8029L55.6696 48.5789L55.7502 48.3819L56.2321 48.6059L56.1514 48.8029ZM55.1868 48.3539L54.7049 48.1299L54.7855 47.9329L55.2674 48.1569L55.1868 48.3539ZM54.2221 47.9059L53.7402 47.6819L53.8208 47.4849L54.3027 47.7089L54.2221 47.9059ZM53.2574 47.4579L52.7755 47.2339L52.8561 47.0369L53.338 47.2609L53.2574 47.4579Z" fill="#356169"/>
<path d="M63.7677 41.061L63.5043 40.576L63.6786 40.468L63.9421 40.953L63.7677 41.061ZM63.2399 40.09L62.9764 39.605L63.1508 39.497L63.4143 39.982L63.2399 40.09ZM62.7121 39.119L62.4486 38.634L62.623 38.526L62.8864 39.011L62.7121 39.119ZM62.1843 38.149L61.9208 37.664L62.0952 37.556L62.3586 38.041L62.1843 38.149ZM61.6564 37.178L61.393 36.693L61.5674 36.585L61.8308 37.07L61.6564 37.178Z" fill="#356169"/>
<path d="M73.8703 39.546L73.6884 39.453L73.9162 38.947L74.0981 39.04L73.8703 39.546ZM74.3259 38.534L74.144 38.441L74.3719 37.935L74.5537 38.028L74.3259 38.534ZM74.7815 37.522L74.5997 37.429L74.8275 36.923L75.0093 37.016L74.7815 37.522ZM75.2362 36.511L75.0544 36.418L75.2822 35.912L75.464 36.005L75.2362 36.511ZM75.6919 35.499L75.51 35.406L75.7378 34.9L75.9197 34.993L75.6919 35.499Z" fill="#356169"/>
<path d="M75.5268 46.751L75.4565 46.549L75.9496 46.354L76.0199 46.556L75.5268 46.751ZM76.514 46.362L76.4437 46.16L76.9368 45.965L77.0071 46.167L76.514 46.362ZM77.5012 45.973L77.4309 45.771L77.924 45.576L77.9943 45.778L77.5012 45.973ZM78.4874 45.584L78.4171 45.382L78.9102 45.187L78.9805 45.389L78.4874 45.584ZM79.4746 45.195L79.4043 44.993L79.8974 44.798L79.9677 45L79.4746 45.195ZM80.4609 44.806L80.3905 44.604L80.8837 44.409L80.954 44.611L80.4609 44.806ZM81.448 44.417L81.3777 44.215L81.8709 44.02L81.9412 44.222L81.448 44.417ZM82.4352 44.028L82.3649 43.826L82.858 43.631L82.9284 43.833L82.4352 44.028Z" fill="#356169"/>
<path d="M68.1525 61.438H67.9509V60.877H68.1525V61.438ZM68.1525 60.315H67.9509V59.754H68.1525V60.315ZM68.1525 59.193H67.9509V58.632H68.1525V59.193ZM68.1525 58.071H67.9509V57.51H68.1525V58.071ZM68.1525 56.949H67.9509V56.388H68.1525V56.949ZM68.1525 55.826H67.9509V55.265H68.1525V55.826ZM68.1525 54.704H67.9509V54.143H68.1525V54.704ZM68.1525 53.582H67.9509V53.021H68.1525V53.582ZM68.1525 52.46H67.9509V51.899H68.1525V52.46ZM68.1525 51.338H67.9509V50.777H68.1525V51.338Z" fill="#356169"/>
<path d="M68.2143 58.171H67.7559C67.65 58.171 67.5637 58.079 67.5637 57.966V57.477C67.5637 57.364 67.65 57.272 67.7559 57.272H68.2143C68.3203 57.272 68.4065 57.364 68.4065 57.477V57.966C68.4065 58.079 68.3203 58.171 68.2143 58.171Z" fill="#356169"/>
<path d="M84.9975 51.7181H84.508C84.3946 51.7181 84.3027 51.6201 84.3027 51.4991V50.9771C84.3027 50.8561 84.3946 50.7581 84.508 50.7581H84.9975C85.111 50.7581 85.2028 50.8561 85.2028 50.9771V51.5001C85.2028 51.6201 85.111 51.7181 84.9975 51.7181Z" fill="#356169"/>
<path d="M97.8291 51.6889H97.3707C97.2647 51.6889 97.1785 51.5969 97.1785 51.4839V50.9949C97.1785 50.8819 97.2647 50.7899 97.3707 50.7899H97.8291C97.935 50.7899 98.0213 50.8819 98.0213 50.9949V51.4839C98.0222 51.5969 97.936 51.6889 97.8291 51.6889Z" fill="#356169"/>
<path d="M104.699 59.416H104.241C104.135 59.416 104.048 59.324 104.048 59.211V58.722C104.048 58.609 104.135 58.517 104.241 58.517H104.699C104.805 58.517 104.891 58.609 104.891 58.722V59.211C104.892 59.324 104.806 59.416 104.699 59.416Z" fill="#356169"/>
<path d="M104.707 72.757L104.248 72.766C104.142 72.768 104.054 72.678 104.052 72.564L104.044 72.075C104.042 71.962 104.126 71.868 104.233 71.866L104.692 71.857C104.797 71.855 104.886 71.945 104.887 72.059L104.896 72.548C104.898 72.662 104.812 72.755 104.707 72.757Z" fill="#356169"/>
<path d="M133.663 105.003H17.369C17.3259 105.003 17.2903 104.965 17.2903 104.919C17.2903 104.873 17.3259 104.835 17.369 104.835H133.663C133.706 104.835 133.742 104.873 133.742 104.919C133.742 104.965 133.707 105.003 133.663 105.003Z" fill="#B2B6BB"/>
<path d="M107.714 83.1471L107.673 82.2291C107.665 82.0651 107.608 81.9091 107.511 81.7821L107.213 81.4001C107.136 81.2991 107.01 81.2541 106.891 81.2841L106.198 81.4551C106.164 81.4631 106.14 81.4941 106.138 81.5311C106.148 81.7291 106.296 81.8861 106.481 81.8981L106.908 81.9251L106.987 82.0901C106.998 82.1111 107.001 82.1351 106.995 82.1581L106.851 82.4571C106.758 82.6501 106.522 82.7041 106.362 82.5691L106.119 82.3631L105.72 83.1631L105.938 83.5931C106.059 83.8301 106.275 83.9961 106.524 84.0431L106.617 84.0601C106.666 84.0691 106.709 84.0981 106.737 84.1421L107.127 84.7461L108.164 83.8331L107.752 83.2621C107.73 83.2271 107.716 83.1881 107.714 83.1471Z" fill="#FC9D9D"/>
<g opacity="0.15">
<path opacity="0.15" d="M107.28 81.4911C107.378 81.6171 107.435 81.7741 107.442 81.9381L107.484 83.4141C107.485 83.4531 107.497 83.4901 107.518 83.5221L107.881 84.0801L108.164 83.8301L107.752 83.2591C107.729 83.2261 107.715 83.1871 107.713 83.1451L107.672 82.2271C107.664 82.0631 107.607 81.9071 107.51 81.7801L107.212 81.3981C107.202 81.3851 107.192 81.3731 107.181 81.3621L107.28 81.4911Z" fill="black"/>
</g>
<path d="M112.493 86.8499L111.587 87.7729L108.019 83.6279L106.883 84.3789L110.377 90.2229C110.861 91.0329 111.931 91.1399 112.548 90.4399L114.518 88.2029L112.493 86.8499Z" fill="#356169"/>
<path d="M105.701 81.9271L105.622 82.986L104.525 80.8191C104.465 80.7011 104.503 80.5551 104.612 80.4871C104.722 80.4181 104.862 80.456 104.928 80.572L105.701 81.9271Z" fill="#FC9D9D"/>
<path opacity="0.15" d="M104.928 80.573C104.875 80.482 104.777 80.44 104.683 80.46C104.715 80.48 104.742 80.507 104.763 80.543L105.217 81.338C105.268 81.428 105.301 81.53 105.312 81.635L105.412 82.575L105.622 82.987L105.7 81.928L104.928 80.573Z" fill="black"/>
<path opacity="0.15" d="M106.464 82.9101L106.19 82.6921L106.167 82.6541L106.103 83.2581L106.152 83.2721L106.181 83.0131C106.206 83.0841 106.263 83.1381 106.337 83.1521L106.538 83.1571L106.464 82.9101Z" fill="black"/>
<path d="M104.158 78.638L104.065 78.698C103.982 78.752 103.957 78.868 104.007 78.956L106.458 83.18C106.509 83.27 106.621 83.296 106.704 83.238L106.839 83.143C106.919 83.087 106.942 82.973 106.891 82.887L104.397 78.698C104.347 78.611 104.24 78.585 104.158 78.638Z" fill="#21252B"/>
<path d="M105.29 80.885L105.483 82.702L105.945 83.599L106.003 83.032L105.735 80.827C105.72 80.706 105.622 80.615 105.507 80.618C105.376 80.621 105.275 80.745 105.29 80.885Z" fill="#FC9D9D"/>
<path d="M105.89 81.828L105.687 82.97L106.026 83.544L106.203 81.878C106.209 81.813 106.18 81.749 106.128 81.715C106.034 81.653 105.91 81.711 105.89 81.828Z" fill="#FC9D9D"/>
<path opacity="0.15" d="M105.871 81.9349L105.732 82.719L105.785 81.226L105.871 81.9349Z" fill="black"/>
<path opacity="0.6" d="M108.019 83.6279L108.227 83.8699L107.052 84.6639L106.883 84.3799L108.019 83.6279Z" fill="black"/>
<path d="M111.175 90.586C111.26 90.586 111.328 90.513 111.328 90.423C111.328 90.3329 111.26 90.26 111.175 90.26C111.091 90.26 111.023 90.3329 111.023 90.423C111.023 90.513 111.091 90.586 111.175 90.586Z" fill="white"/>
<path d="M113.123 76.373C114.004 76.373 114.717 75.6119 114.717 74.673C114.717 73.7342 114.004 72.973 113.123 72.973C112.243 72.973 111.53 73.7342 111.53 74.673C111.53 75.6119 112.243 76.373 113.123 76.373Z" fill="#21252B"/>
<path d="M68.8218 100.098L67.8861 99.88C67.7277 99.843 67.5777 99.972 67.5777 100.145C67.5777 100.255 67.6405 100.354 67.7361 100.396L68.8789 100.894L68.8218 100.098Z" fill="#FC9D9D"/>
<path opacity="0.15" d="M68.8218 100.098L67.8861 99.88C67.7277 99.843 67.5777 99.972 67.5777 100.145C67.5777 100.255 67.6405 100.354 67.7361 100.396L68.8789 100.894L68.8218 100.098Z" fill="black"/>
<path d="M75.9308 101.859L73.0911 102.175C72.7724 102.21 72.4508 102.141 72.1705 101.975L69.1865 100.165C68.8752 100.001 68.5865 99.7949 68.3258 99.5499L68.3146 99.5389C68.2105 99.4419 68.0643 99.4289 67.9499 99.5039L67.9424 99.5089C67.7877 99.6109 67.7455 99.8299 67.8496 99.9889L69.0149 101.772C69.1668 102.005 69.6805 102.423 69.9177 102.552C70.2702 102.742 70.5449 103.064 70.6893 103.456L70.9836 104.255C71.2021 104.847 71.8611 105.096 72.3796 104.782L72.778 104.541L76.049 104.763L75.9308 101.859Z" fill="#FC9D9D"/>
<g opacity="0.2">
<path opacity="0.2" d="M72.6224 104.218C72.5943 104.219 72.5662 104.226 72.5409 104.238L72.2259 104.388C71.8405 104.621 71.2846 104.46 70.9359 104.119L70.9855 104.253C71.204 104.845 71.863 105.094 72.3815 104.78L72.7799 104.539L76.0509 104.761L76.0237 104.093L72.6224 104.218Z" fill="black"/>
</g>
<path d="M82.5664 101.58L77.9914 103.639C77.7618 103.742 77.6118 103.983 77.6118 104.249C77.6118 104.615 77.8893 104.911 78.2324 104.911H83.8377C84.4958 104.911 85.0471 104.379 85.1127 103.68L85.1793 102.974L86.5508 101.293L84.2483 99.713L82.5664 101.58Z" fill="#FC9D9D"/>
<path d="M109.773 93.251L97.1531 86.827C96.0065 86.243 94.6359 86.553 93.81 87.583L83.9061 99.924L85.9143 101.868L95.7 92.377L105.057 98.706L109.354 96.73L109.773 93.251Z" fill="#3F4249"/>
<path opacity="0.2" d="M108.564 94.423C108.516 94.389 108.45 94.404 108.41 94.449L107.034 96.036C106.943 96.141 106.797 96.168 106.678 96.102L96.8016 90.76C96.285 90.481 95.6588 90.578 95.2388 91.003L85.1849 101.172L85.9143 101.868L95.7 92.377L105.057 98.706L108.513 97.117L107.083 96.326L108.587 94.613C108.637 94.557 108.627 94.466 108.564 94.423Z" fill="black"/>
<path d="M124.532 103.587C124.591 103.596 124.648 103.611 124.704 103.633L126.721 104.42C126.847 104.469 126.899 104.627 126.832 104.749C126.779 104.846 126.667 104.888 126.569 104.846L124.763 104.085L124.237 103.542L124.532 103.587Z" fill="#F99A9A"/>
<path opacity="0.15" d="M124.522 103.584C124.58 103.592 124.637 103.607 124.691 103.629L126.721 104.421C126.847 104.47 126.899 104.628 126.832 104.75C126.779 104.847 126.667 104.889 126.569 104.847L124.763 104.086L124.237 103.543L124.522 103.584Z" fill="black"/>
<path opacity="0.15" d="M112.493 86.85L111.956 87.396L112.012 87.562C112.067 87.728 112.057 87.91 111.988 88.069L111.39 89.417C111.203 89.837 110.682 89.931 110.377 89.6L109.313 88.447L110.376 90.223C110.495 90.422 110.649 90.579 110.825 90.691C110.827 90.692 110.828 90.693 110.829 90.694C110.844 90.704 110.859 90.712 110.875 90.721C110.896 90.733 110.916 90.745 110.936 90.756C110.952 90.764 110.967 90.771 110.983 90.778C111.004 90.788 111.025 90.798 111.047 90.807C111.063 90.813 111.079 90.819 111.096 90.825C111.117 90.833 111.139 90.841 111.161 90.847C111.167 90.849 111.172 90.851 111.177 90.852V90.851C111.648 90.987 112.178 90.858 112.548 90.44L114.518 88.203L112.493 86.85Z" fill="black"/>
<path d="M120.526 102.358L122.298 101.508L122.402 103.092C122.41 103.215 122.498 103.314 122.613 103.33L124.307 103.554C124.435 103.571 124.561 103.606 124.68 103.659L126.357 104.398C126.481 104.452 126.534 104.608 126.473 104.735L126.471 104.74C126.419 104.846 126.308 104.899 126.201 104.868C125.682 104.717 124.237 104.299 124.237 104.299L122.223 104.873C121.581 105.072 120.917 104.636 120.794 103.934L120.756 103.716L120.526 102.358Z" fill="#F99A9A"/>
<path d="M114.655 98.9439L113.57 100.943C112.238 103.399 109.778 104.911 107.118 104.911H74.2265V102.02L105.547 98.0749L109.855 93.1689C110.979 97.3389 113.57 98.4499 114.655 98.9439Z" fill="#3F4249"/>
<path d="M122.928 104.187L123.985 104.281C124.238 104.303 124.433 104.529 124.433 104.8C124.433 104.866 124.384 104.919 124.322 104.919H122.019L122.928 104.187Z" fill="#F99A9A"/>
<g opacity="0.15">
<path opacity="0.15" d="M124.14 104.325C124.09 104.3 124.018 104.294 124.017 104.293L123.146 104.216C123.113 104.213 123.088 104.182 123.09 104.146C123.093 104.11 123.122 104.084 123.156 104.086L124.028 104.163C124.033 104.164 124.162 104.186 124.237 104.297L124.14 104.325Z" fill="black"/>
</g>
<path opacity="0.15" d="M122.617 103.329L122.137 103.299C122.009 103.282 121.908 103.176 121.891 103.041L121.844 102.407L122.371 102.383L122.406 103.097C122.413 103.219 122.502 103.317 122.617 103.329Z" fill="black"/>
<path d="M121.264 82C121.19 80.635 120.129 79.568 118.848 79.568L115.958 80.204C115.052 80.403 114.688 81.241 114.325 82.096L113.99 82.922C113.813 83.326 113.7 83.661 113.395 83.897L112.971 84.249C112.262 84.798 112.025 85.733 112.328 86.644L112.62 87.613C112.675 87.779 112.666 87.961 112.597 88.12L111 91.742C110.744 92.318 110.349 92.811 109.855 93.17C109.463 93.457 109.309 93.997 109.487 94.468C110.582 97.353 113.372 98.563 114.515 98.99C114.772 99.086 115.055 98.967 115.181 98.71L118.998 92.173L120.54 102.462L122.37 102.383L121.264 82Z" fill="#356169"/>
<path opacity="0.15" d="M121.264 82C121.204 80.903 120.508 79.999 119.572 79.686C120.117 80.222 120.33 81.431 120.407 82.64L121.844 102.406L122.371 102.382L121.264 82Z" fill="black"/>
<path opacity="0.15" d="M111.587 87.774L111.173 88.201C111.148 88.227 111.107 88.225 111.084 88.196C111.064 88.17 111.066 88.131 111.088 88.107L111.503 87.677L111.587 87.774Z" fill="black"/>
<path opacity="0.2" d="M112.817 98.1849L111.826 99.9219C110.855 101.674 109.115 102.78 107.208 102.857L74.2255 104.187V104.911H107.117C109.777 104.911 112.237 103.399 113.569 100.943L114.616 99.0159C114.277 98.8859 113.726 98.7189 112.817 98.1849Z" fill="black"/>
<path d="M113.02 77.392C113.031 77.435 113.009 77.479 112.971 77.496L112.968 77.497C112.837 77.553 112.759 77.697 112.779 77.846L112.78 77.851C112.794 77.955 112.852 78.045 112.939 78.096C113.013 78.14 113.09 78.185 113.09 78.185L113.603 79.176C113.84 79.632 114.36 79.824 114.81 79.62L115.657 79.237L116.122 80.463C116.159 80.575 116.14 80.699 116.074 80.794L115.415 81.731C115.123 82.145 115.357 82.741 115.837 82.811C116.378 82.89 116.921 82.685 117.295 82.262L119.572 79.687L118.177 77.526C117.832 77.464 117.527 77.256 117.328 76.951L116.041 74.969L112.657 74.861L113.02 77.392Z" fill="#FC9D9D"/>
<path d="M116.063 82.957C115.983 82.957 115.901 82.9511 115.82 82.9391C115.551 82.9001 115.328 82.717 115.223 82.449C115.118 82.182 115.152 81.8831 115.315 81.6521L115.974 80.7151C116.017 80.6551 116.028 80.576 116.004 80.506L116.1 80.41C116.151 80.563 116.163 80.662 116.042 80.867L115.511 81.81C115.401 81.967 115.377 82.169 115.448 82.35C115.52 82.531 115.671 82.655 115.853 82.682C116.354 82.755 116.859 82.564 117.205 82.173L119.483 79.598L119.661 79.7771L117.383 82.3521C117.038 82.7401 116.558 82.957 116.063 82.957Z" fill="#4D61FC"/>
<g opacity="0.6">
<path opacity="0.6" d="M116.063 82.9569C115.983 82.9569 115.901 82.9509 115.82 82.9389C115.551 82.8999 115.328 82.7169 115.223 82.4489C115.118 82.1819 115.152 81.8829 115.315 81.6519L116.1 80.4089C116.181 80.5829 116.124 80.7299 116.031 80.8849L115.51 81.8079C115.4 81.9649 115.376 82.1669 115.448 82.3479C115.519 82.5289 115.67 82.6529 115.853 82.6799C116.353 82.7529 116.858 82.5619 117.204 82.1709L119.482 79.5959L119.66 79.7749L117.383 82.3499C117.038 82.7399 116.558 82.9569 116.063 82.9569Z" fill="black"/>
</g>
<path opacity="0.15" d="M117.673 77.1889L117.23 76.5859L116.844 77.1879L117.673 77.1889Z" fill="black"/>
<path opacity="0.15" d="M115.656 79.237L116.119 79.025C116.191 78.992 116.264 79.068 116.236 79.145L115.936 79.978L115.656 79.237Z" fill="black"/>
<path d="M119.296 75.63C119.288 75.63 119.282 75.629 119.274 75.629C119.004 75.614 118.786 75.392 118.768 75.105C118.748 74.777 118.696 74.431 118.597 74.076C117.773 71.124 113.286 71.095 112.626 74.508C112.588 74.604 112.565 74.708 112.56 74.816C112.558 74.861 112.56 74.904 112.564 74.947C112.562 74.963 112.56 74.979 112.559 74.995C112.559 74.995 112.563 74.994 112.568 74.993C112.629 75.45 112.997 75.803 113.442 75.803C113.61 75.803 113.767 75.753 113.9 75.667C114.076 75.553 114.303 75.6 114.413 75.786C114.701 76.276 115.212 76.602 115.795 76.602C116.168 76.602 116.511 76.469 116.785 76.245C116.93 76.318 117.087 76.445 117.191 76.667C116.877 77.112 116.693 77.667 116.7 78.269C116.717 79.702 117.841 80.867 119.184 80.846C120.499 80.825 121.562 79.698 121.593 78.299C121.625 76.903 120.602 75.712 119.296 75.63Z" fill="#21252B"/>
<path d="M116.91 77.259C116.91 77.259 117.741 76.848 117.465 75.906C117.189 74.965 116.132 75.398 116.44 76.327L116.821 77.314L116.91 77.259Z" fill="#FC9D9D"/>
<path opacity="0.3" d="M116.983 75.608C116.865 75.597 116.772 75.623 116.706 75.685C116.64 75.747 116.604 75.841 116.6 75.964C116.595 76.088 116.62 76.223 116.682 76.345L116.726 76.438C116.757 76.508 116.877 76.462 116.838 76.383C116.792 76.281 116.792 76.281 116.792 76.281C116.775 76.254 116.713 76.088 116.719 75.968C116.722 75.881 116.744 75.817 116.784 75.779C116.826 75.74 116.888 75.725 116.973 75.733C117.006 75.736 117.034 75.711 117.037 75.676C117.039 75.642 117.016 75.611 116.983 75.608Z" fill="black"/>
<path opacity="0.15" d="M113.282 78.5541C113.284 78.5531 113.477 78.4731 113.584 78.2511C113.602 78.2141 113.642 78.1971 113.678 78.2111C113.721 78.2281 113.74 78.2811 113.72 78.3241C113.606 78.5611 113.418 78.6671 113.355 78.6971L113.282 78.5541Z" fill="black"/>
<path opacity="0.15" d="M114.325 82.0951L113.99 82.9211C113.813 83.3251 113.7 83.6601 113.395 83.8961L114.019 83.4701C114.152 83.3791 114.253 83.2421 114.307 83.0831L114.791 81.2521L114.848 81.0341C114.644 81.3491 114.485 81.7211 114.325 82.0951Z" fill="black"/>
<path d="M113.273 77.0409C113.383 77.0409 113.472 76.946 113.472 76.8289C113.472 76.7118 113.383 76.6169 113.273 76.6169C113.164 76.6169 113.075 76.7118 113.075 76.8289C113.075 76.946 113.164 77.0409 113.273 77.0409Z" fill="#21252B"/>
<path d="M113.189 76.945C113.213 76.945 113.234 76.9235 113.234 76.897C113.234 76.8705 113.213 76.849 113.189 76.849C113.164 76.849 113.144 76.8705 113.144 76.897C113.144 76.9235 113.164 76.945 113.189 76.945Z" fill="white"/>
<path d="M117 77.081C117.1 77.081 117.182 76.9941 117.182 76.887C117.182 76.7798 117.1 76.693 117 76.693C116.9 76.693 116.818 76.7798 116.818 76.887C116.818 76.9941 116.9 77.081 117 77.081Z" fill="#4D61FC"/>
<path opacity="0.15" d="M117.059 76.7061C117.089 76.7411 117.109 76.7861 117.109 76.8371C117.109 76.9441 117.027 77.0311 116.927 77.0311C116.906 77.0311 116.887 77.0251 116.868 77.0181C116.901 77.0561 116.947 77.0811 117 77.0811C117.1 77.0811 117.182 76.9941 117.182 76.8871C117.183 76.8021 117.13 76.7321 117.059 76.7061Z" fill="black"/>
<path d="M113.144 77.922C113.114 77.922 113.086 77.901 113.077 77.868L112.737 76.673C112.726 76.633 112.747 76.591 112.784 76.579C112.822 76.567 112.861 76.589 112.872 76.629L113.212 77.824C113.223 77.864 113.202 77.906 113.165 77.918C113.158 77.921 113.151 77.922 113.144 77.922Z" fill="white"/>
<path d="M113.02 77.338C112.99 77.338 112.963 77.318 112.953 77.286C112.941 77.246 112.961 77.204 112.998 77.191L116.365 76.016C116.403 76.003 116.442 76.025 116.454 76.064C116.467 76.104 116.446 76.146 116.409 76.159L113.042 77.334C113.034 77.337 113.027 77.338 113.02 77.338Z" fill="white"/>
<path opacity="0.6" d="M120.541 102.462L120.488 102.111L122.352 102.027L122.372 102.382L120.541 102.462Z" fill="black"/>
<path d="M120.109 87.84C120.193 87.84 120.262 87.767 120.262 87.677C120.262 87.5869 120.193 87.514 120.109 87.514C120.024 87.514 119.956 87.5869 119.956 87.677C119.956 87.767 120.024 87.84 120.109 87.84Z" fill="white"/>
<path d="M114.848 98.694C114.933 98.694 115.001 98.621 115.001 98.531C115.001 98.4409 114.933 98.368 114.848 98.368C114.764 98.368 114.696 98.4409 114.696 98.531C114.696 98.621 114.764 98.694 114.848 98.694Z" fill="white"/>
<path d="M114.848 95.548C114.933 95.548 115.001 95.475 115.001 95.385C115.001 95.295 114.933 95.222 114.848 95.222C114.764 95.222 114.696 95.295 114.696 95.385C114.696 95.475 114.764 95.548 114.848 95.548Z" fill="white"/>
<path d="M112.962 94.039C113.047 94.039 113.115 93.966 113.115 93.876C113.115 93.786 113.047 93.713 112.962 93.713C112.878 93.713 112.809 93.786 112.809 93.876C112.809 93.966 112.878 94.039 112.962 94.039Z" fill="white"/>
<path d="M111.175 92.204C111.26 92.204 111.328 92.131 111.328 92.041C111.328 91.951 111.26 91.8781 111.175 91.8781C111.091 91.8781 111.023 91.951 111.023 92.041C111.023 92.131 111.091 92.204 111.175 92.204Z" fill="white"/>
<path d="M119.65 93.6719C119.735 93.6719 119.803 93.5989 119.803 93.5089C119.803 93.4189 119.735 93.3459 119.65 93.3459C119.566 93.3459 119.497 93.4189 119.497 93.5089C119.497 93.5989 119.566 93.6719 119.65 93.6719Z" fill="white"/>
<path d="M118.009 90.579C118.093 90.579 118.162 90.506 118.162 90.416C118.162 90.326 118.093 90.2531 118.009 90.2531C117.924 90.2531 117.856 90.326 117.856 90.416C117.856 90.506 117.924 90.579 118.009 90.579Z" fill="white"/>
<path d="M121.997 101.119C122.081 101.119 122.15 101.046 122.15 100.956C122.15 100.866 122.081 100.793 121.997 100.793C121.912 100.793 121.844 100.866 121.844 100.956C121.844 101.046 121.912 101.119 121.997 101.119Z" fill="white"/>
<path d="M120.336 98.857C120.42 98.857 120.488 98.784 120.488 98.694C120.488 98.6039 120.42 98.531 120.336 98.531C120.251 98.531 120.183 98.6039 120.183 98.694C120.183 98.784 120.251 98.857 120.336 98.857Z" fill="white"/>
<path d="M121.595 95.711C121.679 95.711 121.748 95.638 121.748 95.548C121.748 95.4579 121.679 95.385 121.595 95.385C121.51 95.385 121.442 95.4579 121.442 95.548C121.442 95.638 121.51 95.711 121.595 95.711Z" fill="white"/>
<path d="M121.442 90.905C121.526 90.905 121.595 90.832 121.595 90.742C121.595 90.652 121.526 90.579 121.442 90.579C121.358 90.579 121.289 90.652 121.289 90.742C121.289 90.832 121.358 90.905 121.442 90.905Z" fill="white"/>
<path d="M112.407 96.562C112.492 96.562 112.56 96.4891 112.56 96.399C112.56 96.309 112.492 96.236 112.407 96.236C112.323 96.236 112.254 96.309 112.254 96.399C112.254 96.4891 112.323 96.562 112.407 96.562Z" fill="white"/>
<path d="M115.503 91.878C115.587 91.878 115.656 91.805 115.656 91.715C115.656 91.6249 115.587 91.552 115.503 91.552C115.418 91.552 115.35 91.6249 115.35 91.715C115.35 91.805 115.418 91.878 115.503 91.878Z" fill="white"/>
<path d="M116.243 88.653C116.327 88.653 116.395 88.58 116.395 88.49C116.395 88.3999 116.327 88.327 116.243 88.327C116.158 88.327 116.09 88.3999 116.09 88.49C116.09 88.58 116.158 88.653 116.243 88.653Z" fill="white"/>
<path d="M115.163 85.482C115.248 85.482 115.316 85.409 115.316 85.319C115.316 85.2289 115.248 85.156 115.163 85.156C115.079 85.156 115.011 85.2289 115.011 85.319C115.011 85.409 115.079 85.482 115.163 85.482Z" fill="white"/>
<path d="M112.962 91.29C113.047 91.29 113.115 91.217 113.115 91.127C113.115 91.0369 113.047 90.964 112.962 90.964C112.878 90.964 112.809 91.0369 112.809 91.127C112.809 91.217 112.878 91.29 112.962 91.29Z" fill="white"/>
<path d="M113.396 88.111C113.481 88.111 113.549 88.038 113.549 87.948C113.549 87.8579 113.481 87.785 113.396 87.785C113.312 87.785 113.243 87.8579 113.243 87.948C113.243 88.038 113.312 88.111 113.396 88.111Z" fill="white"/>
<path d="M112.974 85.002C113.059 85.002 113.127 84.929 113.127 84.839C113.127 84.749 113.059 84.676 112.974 84.676C112.89 84.676 112.822 84.749 112.822 84.839C112.822 84.929 112.89 85.002 112.974 85.002Z" fill="white"/>
<path d="M110.853 87.677C110.937 87.677 111.006 87.604 111.006 87.514C111.006 87.424 110.937 87.351 110.853 87.351C110.768 87.351 110.7 87.424 110.7 87.514C110.7 87.604 110.768 87.677 110.853 87.677Z" fill="white"/>
<path d="M108.772 87.013C108.856 87.013 108.924 86.94 108.924 86.85C108.924 86.76 108.856 86.687 108.772 86.687C108.687 86.687 108.619 86.76 108.619 86.85C108.619 86.94 108.687 87.013 108.772 87.013Z" fill="white"/>
<path d="M108.011 84.664C108.096 84.664 108.164 84.591 108.164 84.501C108.164 84.411 108.096 84.338 108.011 84.338C107.927 84.338 107.858 84.411 107.858 84.501C107.858 84.591 107.927 84.664 108.011 84.664Z" fill="white"/>
<path d="M114.871 82.454C114.955 82.454 115.024 82.381 115.024 82.291C115.024 82.201 114.955 82.1281 114.871 82.1281C114.787 82.1281 114.718 82.201 114.718 82.291C114.718 82.381 114.787 82.454 114.871 82.454Z" fill="white"/>
<path d="M117.673 85.645C117.758 85.645 117.826 85.5721 117.826 85.482C117.826 85.392 117.758 85.319 117.673 85.319C117.589 85.319 117.52 85.392 117.52 85.482C117.52 85.5721 117.589 85.645 117.673 85.645Z" fill="white"/>
<path d="M118.999 82.617C119.083 82.617 119.152 82.544 119.152 82.454C119.152 82.364 119.083 82.291 118.999 82.291C118.914 82.291 118.846 82.364 118.846 82.454C118.846 82.544 118.914 82.617 118.999 82.617Z" fill="white"/>
<path d="M120.818 84.664C120.903 84.664 120.971 84.591 120.971 84.501C120.971 84.411 120.903 84.338 120.818 84.338C120.734 84.338 120.666 84.411 120.666 84.501C120.666 84.591 120.734 84.664 120.818 84.664Z" fill="white"/>
<path d="M110.198 94.528C110.283 94.528 110.351 94.455 110.351 94.365C110.351 94.2749 110.283 94.202 110.198 94.202C110.114 94.202 110.046 94.2749 110.046 94.365C110.046 94.455 110.114 94.528 110.198 94.528Z" fill="white"/>
<path d="M117.078 94.202C117.162 94.202 117.231 94.129 117.231 94.039C117.231 93.949 117.162 93.876 117.078 93.876C116.993 93.876 116.925 93.949 116.925 94.039C116.925 94.129 116.993 94.202 117.078 94.202Z" fill="white"/>
<path opacity="0.15" d="M112.817 98.185C113.452 98.576 114.134 98.844 114.56 98.991C114.803 99.075 115.066 98.959 115.185 98.718L118.999 92.172L118.435 88.491C118.407 88.309 118.181 88.266 118.095 88.425L112.817 98.185Z" fill="black"/>
<path opacity="0.15" d="M77.4102 43.87C77.4205 43.707 77.4262 43.543 77.4262 43.377C77.4262 39.306 74.3324 36.006 70.5158 36.006C70.2327 36.006 69.9533 36.025 69.6786 36.06C73.1052 36.496 75.763 39.604 75.763 43.377C75.763 43.543 75.7574 43.707 75.7471 43.87C77.5433 44.657 78.809 46.541 78.809 48.741C78.809 51.648 76.5993 54.005 73.874 54.005H75.538C78.2633 54.005 80.473 51.648 80.473 48.741C80.4721 46.541 79.2065 44.657 77.4102 43.87Z" fill="black"/>
</svg>
