<svg width="400" height="300" viewBox="0 0 400 300" fill="none" xmlns="http://www.w3.org/2000/svg">
<path d="M278.855 194.617H278.317V193.48H278.855V194.617ZM278.855 192.077H278.317V190.675H278.855V192.077ZM278.855 189.27H278.317V187.867H278.855V189.27ZM278.855 186.465H278.317V185.062H278.855V186.465ZM278.855 183.66H278.317V182.257H278.855V183.66ZM278.855 180.855H278.317V179.452H278.855V180.855ZM278.855 178.05H278.317V176.647H278.855V178.05ZM278.855 175.242H278.317V173.84H278.855V175.242ZM278.855 172.437H278.317V171.035H278.855V172.437ZM278.855 169.632H278.317V168.23H278.855V169.632ZM278.855 166.827H278.317V165.425H278.855V166.827ZM278.855 164.02H278.317V162.617H278.855V164.02ZM278.855 161.215H278.317V159.812H278.855V161.215ZM278.855 158.41H278.317V157.007H278.855V158.41ZM278.855 155.605H278.317V154.202H278.855V155.605ZM278.855 152.8H278.317V151.397H278.855V152.8ZM278.855 149.992H278.317V148.59H278.855V149.992ZM278.855 147.187H278.317V145.785H278.855V147.187ZM278.855 144.382H278.317V142.98H278.855V144.382ZM278.855 141.577H278.317V140.175H278.855V141.577ZM278.855 138.77H278.317V137.367H278.855V138.77ZM278.855 135.965H278.317V134.562H278.855V135.965ZM278.855 133.16H278.317V131.757H278.855V133.16ZM278.295 130.392C278.235 129.975 278.065 129.58 277.8 129.25L278.22 128.912C278.545 129.317 278.755 129.802 278.827 130.315L278.295 130.392ZM276.795 128.517C276.527 128.415 276.245 128.365 275.955 128.365H275.507V127.827H275.955C276.31 127.827 276.657 127.89 276.985 128.015L276.795 128.517ZM274.105 128.365H272.702V127.827H274.105V128.365ZM271.3 128.365H269.897V127.827H271.3V128.365ZM268.495 128.365H267.092V127.827H268.495V128.365ZM265.687 128.365H264.285V127.827H265.687V128.365ZM262.882 128.365H261.48V127.827H262.882V128.365ZM260.077 128.365H258.675V127.827H260.077V128.365ZM257.272 128.365H255.87V127.827H257.272V128.365ZM254.467 128.365H253.065V127.827H254.467V128.365ZM251.66 128.365H250.257V127.827H251.66V128.365ZM248.855 128.365H247.452V127.827H248.855V128.365ZM246.05 128.365H244.647V127.827H246.05V128.365ZM243.245 128.365H241.842V127.827H243.245V128.365ZM240.437 128.365H239.035V127.827H240.437V128.365ZM237.632 128.365H236.23V127.827H237.632V128.365ZM234.827 128.365H233.425V127.827H234.827V128.365ZM232.022 128.365H230.62V127.827H232.022V128.365ZM229.217 128.365H227.815V127.827H229.217V128.365ZM226.41 128.365H225.007V127.827H226.41V128.365ZM223.605 128.365H222.202V127.827H223.605V128.365ZM220.8 128.365H219.397V127.827H220.8V128.365ZM217.995 128.365H216.592V127.827H217.995V128.365ZM215.187 128.365H213.785V127.827H215.187V128.365ZM212.382 128.365H210.98V127.827H212.382V128.365ZM209.577 128.365H208.175V127.827H209.577V128.365ZM206.772 128.365H205.37V127.827H206.772V128.365ZM203.967 128.365H202.565V127.827H203.967V128.365ZM201.16 128.365H199.757V127.827H201.16V128.365ZM198.355 128.365H196.952V127.827H198.355V128.365ZM195.55 128.365H194.147V127.827H195.55V128.365Z" fill="#C21D03"/>
<path d="M254.102 257.847H100.147V156.627C100.147 154.952 101.505 153.595 103.18 153.595H251.067C252.742 153.595 254.1 154.952 254.1 156.627V257.847H254.102Z" fill="#232121"/>
<path d="M252.7 255.822H98.7448V156.627C98.7448 154.952 100.102 153.595 101.777 153.595H249.665C251.34 153.595 252.697 154.952 252.697 156.627V255.822H252.7Z" fill="#232121"/>
<path d="M247.437 159.012H104.007V250.402H247.437V159.012Z" fill="#F1F1F1"/>
<path d="M253.1 255.817H194.035C193.483 255.817 193.035 256.265 193.035 256.817V260.017C194.143 261.455 195.85 262.297 197.665 262.297H249.475C250.29 262.297 251.085 262.127 251.813 261.81C253.215 261.197 254.103 259.785 254.103 258.255V256.82C254.103 256.265 253.655 255.817 253.1 255.817Z" fill="#232121"/>
<path d="M214.137 255.817H64.62C64.0675 255.817 63.6198 256.265 63.6198 256.817V258.252C63.6198 259.785 64.5075 261.195 65.91 261.807C66.6375 262.125 67.4323 262.295 68.2473 262.295H210.51C211.325 262.295 212.12 262.125 212.848 261.807C214.25 261.195 215.137 259.782 215.137 258.252V256.817C215.14 256.265 214.69 255.817 214.137 255.817Z" fill="#232121"/>
<path d="M150.965 258.437H127.79C126.085 258.437 124.55 257.4 123.915 255.817H154.842C154.205 257.4 152.672 258.437 150.965 258.437Z" fill="#232121"/>
<path d="M247.437 159.012H104.007V167.167H247.437V159.012Z" fill="#232121"/>
<path d="M248.375 159.012H104.945V167.167H248.375V159.012Z" fill="#232121"/>
<path d="M107.975 164.54C108.928 164.54 109.7 163.768 109.7 162.815C109.7 161.862 108.928 161.09 107.975 161.09C107.022 161.09 106.25 161.862 106.25 162.815C106.25 163.768 107.022 164.54 107.975 164.54Z" fill="#C21D03"/>
<path d="M114.192 164.54C115.145 164.54 115.917 163.768 115.917 162.815C115.917 161.862 115.145 161.09 114.192 161.09C113.24 161.09 112.467 161.862 112.467 162.815C112.467 163.768 113.24 164.54 114.192 164.54Z" fill="#F1F1F1"/>
<path d="M120.407 164.54C121.36 164.54 122.132 163.768 122.132 162.815C122.132 161.862 121.36 161.09 120.407 161.09C119.455 161.09 118.682 161.862 118.682 162.815C118.682 163.768 119.455 164.54 120.407 164.54Z" fill="#232121"/>
<path d="M224.473 177.667H138.45C137.68 177.667 137.057 177.045 137.057 176.275V172.125C137.057 171.355 137.68 170.732 138.45 170.732H224.473C225.243 170.732 225.865 171.355 225.865 172.125V176.275C225.865 177.042 225.24 177.667 224.473 177.667Z" fill="#F1F1F1"/>
<path d="M222.417 173.233C221.905 172.72 221.072 172.72 220.562 173.233C220.05 173.745 220.05 174.578 220.562 175.088C221.03 175.555 221.765 175.59 222.28 175.2L223.012 175.933L223.265 175.68L222.532 174.948C222.92 174.435 222.885 173.7 222.417 173.233ZM222.165 174.835C221.792 175.208 221.185 175.208 220.812 174.835C220.44 174.463 220.44 173.858 220.812 173.485C221.185 173.113 221.79 173.113 222.162 173.485C222.537 173.858 222.537 174.463 222.165 174.835Z" fill="#232121"/>
<path d="M233.87 173.055H229.98V173.437H233.87V173.055Z" fill="#232121"/>
<path d="M233.87 174.42H229.98V174.802H233.87V174.42Z" fill="#232121"/>
<path d="M233.87 175.782H229.98V176.165H233.87V175.782Z" fill="#232121"/>
<path d="M113.967 177.667H109.492C108.812 177.667 108.262 177.117 108.262 176.437V171.962C108.262 171.282 108.812 170.732 109.492 170.732H113.967C114.647 170.732 115.197 171.282 115.197 171.962V176.437C115.197 177.115 114.647 177.667 113.967 177.667Z" fill="#C21D03"/>
<path d="M111.73 175.142C110.712 175.142 109.887 174.317 109.887 173.3V173.257H113.575V173.3C113.572 174.317 112.747 175.142 111.73 175.142Z" fill="#F1F1F1"/>
<path d="M240.828 177.073C242.415 177.073 243.703 175.785 243.703 174.198C243.703 172.61 242.415 171.323 240.828 171.323C239.24 171.323 237.953 172.61 237.953 174.198C237.953 175.785 239.24 177.073 240.828 177.073Z" fill="#C21D03"/>
<path d="M240.827 174.262C241.388 174.262 241.842 173.808 241.842 173.247C241.842 172.687 241.388 172.232 240.827 172.232C240.267 172.232 239.812 172.687 239.812 173.247C239.812 173.808 240.267 174.262 240.827 174.262Z" fill="#FD5732"/>
<path d="M243.157 175.88C242.635 176.603 241.787 177.073 240.827 177.073C239.87 177.073 239.02 176.605 238.497 175.88C238.622 175.115 239.28 174.548 240.062 174.548H241.587C242.375 174.548 243.03 175.115 243.157 175.88Z" fill="#FD5732"/>
<path opacity="0.8" d="M240.827 174.262C241.388 174.262 241.842 173.808 241.842 173.247C241.842 172.687 241.388 172.232 240.827 172.232C240.267 172.232 239.812 172.687 239.812 173.247C239.812 173.808 240.267 174.262 240.827 174.262Z" fill="#F1F1F1"/>
<path opacity="0.8" d="M243.157 175.88C242.635 176.603 241.787 177.073 240.827 177.073C239.87 177.073 239.02 176.605 238.497 175.88C238.622 175.115 239.28 174.548 240.062 174.548H241.587C242.375 174.548 243.03 175.115 243.157 175.88Z" fill="#F1F1F1"/>
<path d="M112.86 192.265H109.42C108.837 192.265 108.365 191.792 108.365 191.21V187.92C108.365 187.337 108.837 186.865 109.42 186.865H112.86C113.442 186.865 113.915 187.337 113.915 187.92V191.21C113.915 191.79 113.442 192.265 112.86 192.265Z" fill="#FD5732"/>
<path d="M133.237 190.61H117.11C116.82 190.61 116.585 190.375 116.585 190.085V189.043C116.585 188.753 116.82 188.518 117.11 188.518H133.237C133.527 188.518 133.762 188.753 133.762 189.043V190.085C133.762 190.375 133.527 190.61 133.237 190.61Z" fill="#FD5732"/>
<path d="M133.237 203.077H117.11C116.82 203.077 116.585 202.842 116.585 202.552V201.51C116.585 201.22 116.82 200.985 117.11 200.985H133.237C133.527 200.985 133.762 201.22 133.762 201.51V202.552C133.762 202.842 133.527 203.077 133.237 203.077Z" fill="#FD5732"/>
<path d="M133.237 215.548H117.11C116.82 215.548 116.585 215.313 116.585 215.023V213.98C116.585 213.69 116.82 213.455 117.11 213.455H133.237C133.527 213.455 133.762 213.69 133.762 213.98V215.023C133.762 215.313 133.527 215.548 133.237 215.548Z" fill="#FD5732"/>
<path d="M133.237 228.015H117.11C116.82 228.015 116.585 227.78 116.585 227.49V226.447C116.585 226.157 116.82 225.922 117.11 225.922H133.237C133.527 225.922 133.762 226.157 133.762 226.447V227.49C133.762 227.78 133.527 228.015 133.237 228.015Z" fill="#FD5732"/>
<path d="M133.237 240.485H117.11C116.82 240.485 116.585 240.25 116.585 239.96V238.918C116.585 238.628 116.82 238.393 117.11 238.393H133.237C133.527 238.393 133.762 238.628 133.762 238.918V239.96C133.762 240.25 133.527 240.485 133.237 240.485Z" fill="#FD5732"/>
<path d="M112.86 204.733H109.42C108.837 204.733 108.365 204.26 108.365 203.678V200.388C108.365 199.805 108.837 199.333 109.42 199.333H112.86C113.442 199.333 113.915 199.805 113.915 200.388V203.678C113.915 204.26 113.442 204.733 112.86 204.733Z" fill="#FD5732"/>
<path d="M112.86 217.202H109.42C108.837 217.202 108.365 216.73 108.365 216.147V212.857C108.365 212.275 108.837 211.802 109.42 211.802H112.86C113.442 211.802 113.915 212.275 113.915 212.857V216.147C113.915 216.727 113.442 217.202 112.86 217.202Z" fill="#FD5732"/>
<path d="M112.86 229.67H109.42C108.837 229.67 108.365 229.198 108.365 228.615V225.325C108.365 224.743 108.837 224.27 109.42 224.27H112.86C113.442 224.27 113.915 224.743 113.915 225.325V228.615C113.915 229.198 113.442 229.67 112.86 229.67Z" fill="#FD5732"/>
<path d="M112.86 242.14H109.42C108.837 242.14 108.365 241.667 108.365 241.085V237.795C108.365 237.212 108.837 236.74 109.42 236.74H112.86C113.442 236.74 113.915 237.212 113.915 237.795V241.085C113.915 241.665 113.442 242.14 112.86 242.14Z" fill="#FD5732"/>
<path d="M112.86 192.265H109.42C108.837 192.265 108.365 191.792 108.365 191.21V187.92C108.365 187.337 108.837 186.865 109.42 186.865H112.86C113.442 186.865 113.915 187.337 113.915 187.92V191.21C113.915 191.79 113.442 192.265 112.86 192.265Z" fill="#232121"/>
<path d="M133.237 190.61H117.11C116.82 190.61 116.585 190.375 116.585 190.085V189.043C116.585 188.753 116.82 188.518 117.11 188.518H133.237C133.527 188.518 133.762 188.753 133.762 189.043V190.085C133.762 190.375 133.527 190.61 133.237 190.61Z" fill="#232121"/>
<path d="M133.237 203.077H117.11C116.82 203.077 116.585 202.842 116.585 202.552V201.51C116.585 201.22 116.82 200.985 117.11 200.985H133.237C133.527 200.985 133.762 201.22 133.762 201.51V202.552C133.762 202.842 133.527 203.077 133.237 203.077Z" fill="#232121"/>
<path d="M133.237 215.548H117.11C116.82 215.548 116.585 215.313 116.585 215.023V213.98C116.585 213.69 116.82 213.455 117.11 213.455H133.237C133.527 213.455 133.762 213.69 133.762 213.98V215.023C133.762 215.313 133.527 215.548 133.237 215.548Z" fill="#232121"/>
<path d="M133.237 228.015H117.11C116.82 228.015 116.585 227.78 116.585 227.49V226.447C116.585 226.157 116.82 225.922 117.11 225.922H133.237C133.527 225.922 133.762 226.157 133.762 226.447V227.49C133.762 227.78 133.527 228.015 133.237 228.015Z" fill="#232121"/>
<path d="M133.237 240.485H117.11C116.82 240.485 116.585 240.25 116.585 239.96V238.918C116.585 238.628 116.82 238.393 117.11 238.393H133.237C133.527 238.393 133.762 238.628 133.762 238.918V239.96C133.762 240.25 133.527 240.485 133.237 240.485Z" fill="#232121"/>
<path d="M112.86 204.733H109.42C108.837 204.733 108.365 204.26 108.365 203.678V200.388C108.365 199.805 108.837 199.333 109.42 199.333H112.86C113.442 199.333 113.915 199.805 113.915 200.388V203.678C113.915 204.26 113.442 204.733 112.86 204.733Z" fill="#232121"/>
<path d="M112.86 217.202H109.42C108.837 217.202 108.365 216.73 108.365 216.147V212.857C108.365 212.275 108.837 211.802 109.42 211.802H112.86C113.442 211.802 113.915 212.275 113.915 212.857V216.147C113.915 216.727 113.442 217.202 112.86 217.202Z" fill="#232121"/>
<path d="M112.86 229.67H109.42C108.837 229.67 108.365 229.198 108.365 228.615V225.325C108.365 224.743 108.837 224.27 109.42 224.27H112.86C113.442 224.27 113.915 224.743 113.915 225.325V228.615C113.915 229.198 113.442 229.67 112.86 229.67Z" fill="#232121"/>
<path d="M112.86 242.14H109.42C108.837 242.14 108.365 241.667 108.365 241.085V237.795C108.365 237.212 108.837 236.74 109.42 236.74H112.86C113.442 236.74 113.915 237.212 113.915 237.795V241.085C113.915 241.665 113.442 242.14 112.86 242.14Z" fill="#232121"/>
<path d="M247.437 181.127H104.007V181.302H247.437V181.127Z" fill="#F1F1F1"/>
<path d="M137.145 181.215H136.97V250.403H137.145V181.215Z" fill="#F1F1F1"/>
<path d="M240.967 187.928H141.715C141.232 187.928 140.84 187.535 140.84 187.053V185.175C140.84 184.693 141.232 184.3 141.715 184.3H240.967C241.45 184.3 241.842 184.693 241.842 185.175V187.053C241.842 187.535 241.45 187.928 240.967 187.928Z" fill="#232121"/>
<path d="M209.437 247.13H141.407C141.095 247.13 140.842 246.877 140.842 246.565C140.842 246.252 141.095 246 141.407 246H209.437C209.75 246 210.002 246.252 210.002 246.565C210.002 246.877 209.747 247.13 209.437 247.13Z" fill="#232121"/>
<path d="M209.437 242.14H141.407C141.095 242.14 140.842 241.887 140.842 241.575C140.842 241.262 141.095 241.01 141.407 241.01H209.437C209.75 241.01 210.002 241.262 210.002 241.575C210.002 241.885 209.747 242.14 209.437 242.14Z" fill="#232121"/>
<path d="M209.437 237.147H141.407C141.095 237.147 140.842 236.895 140.842 236.582C140.842 236.27 141.095 236.017 141.407 236.017H209.437C209.75 236.017 210.002 236.27 210.002 236.582C210.002 236.895 209.747 237.147 209.437 237.147Z" fill="#232121"/>
<path d="M209.437 232.155H141.407C141.095 232.155 140.842 231.902 140.842 231.59C140.842 231.277 141.095 231.025 141.407 231.025H209.437C209.75 231.025 210.002 231.277 210.002 231.59C210.002 231.902 209.747 232.155 209.437 232.155Z" fill="#232121"/>
<path d="M209.437 227.162H141.407C141.095 227.162 140.842 226.91 140.842 226.597C140.842 226.285 141.095 226.032 141.407 226.032H209.437C209.75 226.032 210.002 226.285 210.002 226.597C210.002 226.91 209.747 227.162 209.437 227.162Z" fill="#232121"/>
<path d="M209.437 222.17H141.407C141.095 222.17 140.842 221.917 140.842 221.605C140.842 221.292 141.095 221.04 141.407 221.04H209.437C209.75 221.04 210.002 221.292 210.002 221.605C210.002 221.917 209.747 222.17 209.437 222.17Z" fill="#232121"/>
<path d="M241.278 217.18H185.903C185.59 217.18 185.338 216.927 185.338 216.615C185.338 216.302 185.59 216.05 185.903 216.05H241.275C241.588 216.05 241.84 216.302 241.84 216.615C241.843 216.927 241.59 217.18 241.278 217.18Z" fill="#232121"/>
<path d="M241.278 212.188H185.903C185.59 212.188 185.338 211.935 185.338 211.623C185.338 211.31 185.59 211.057 185.903 211.057H241.275C241.588 211.057 241.84 211.31 241.84 211.623C241.843 211.935 241.59 212.188 241.278 212.188Z" fill="#232121"/>
<path d="M241.278 207.195H185.903C185.59 207.195 185.338 206.942 185.338 206.63C185.338 206.317 185.59 206.065 185.903 206.065H241.275C241.588 206.065 241.84 206.317 241.84 206.63C241.843 206.942 241.59 207.195 241.278 207.195Z" fill="#232121"/>
<path d="M241.278 202.202H185.903C185.59 202.202 185.338 201.95 185.338 201.637C185.338 201.325 185.59 201.072 185.903 201.072H241.275C241.588 201.072 241.84 201.325 241.84 201.637C241.843 201.95 241.59 202.202 241.278 202.202Z" fill="#232121"/>
<path d="M241.278 197.212H185.903C185.59 197.212 185.338 196.96 185.338 196.647C185.338 196.335 185.59 196.082 185.903 196.082H241.275C241.588 196.082 241.84 196.335 241.84 196.647C241.843 196.957 241.59 197.212 241.278 197.212Z" fill="#232121"/>
<path d="M241.278 192.22H185.903C185.59 192.22 185.338 191.967 185.338 191.655C185.338 191.342 185.59 191.09 185.903 191.09H241.275C241.588 191.09 241.84 191.342 241.84 191.655C241.843 191.967 241.59 192.22 241.278 192.22Z" fill="#232121"/>
<path d="M137.057 195.71H104.007V195.885H137.057V195.71Z" fill="#F1F1F1"/>
<path d="M137.057 208.177H104.007V208.352H137.057V208.177Z" fill="#F1F1F1"/>
<path d="M137.057 220.647H104.007V220.822H137.057V220.647Z" fill="#F1F1F1"/>
<path d="M137.057 233.115H104.007V233.29H137.057V233.115Z" fill="#F1F1F1"/>
<path d="M137.057 245.585H104.007V245.76H137.057V245.585Z" fill="#F1F1F1"/>
<path d="M140.84 193.168V215.72C140.84 216.91 141.805 217.878 142.997 217.878H178.275C179.465 217.878 180.432 216.913 180.432 215.72V193.168C180.432 191.978 179.467 191.01 178.275 191.01H142.997C141.807 191.013 140.84 191.978 140.84 193.168Z" fill="#F1F1F1"/>
<path d="M159.652 206.742C163.329 206.742 166.31 203.762 166.31 200.085C166.31 196.408 163.329 193.427 159.652 193.427C155.976 193.427 152.995 196.408 152.995 200.085C152.995 203.762 155.976 206.742 159.652 206.742Z" fill="#C21D03"/>
<path opacity="0.2" d="M145.56 216.165L155.8 209.62L145.67 203.078L145.56 216.165Z" fill="#232121"/>
<path opacity="0.2" d="M162.266 200.814V215.209H176.661V200.814H162.266Z" fill="#232121"/>
<path d="M239.8 247.13H216.725C215.535 247.13 214.568 246.165 214.568 244.972V221.897C214.568 220.707 215.533 219.74 216.725 219.74H239.8C240.99 219.74 241.958 220.705 241.958 221.897V244.972C241.958 246.165 240.99 247.13 239.8 247.13Z" fill="#F1F1F1"/>
<path opacity="0.2" d="M228.262 233.958C223.98 233.958 220.507 230.485 220.507 226.203V225.55H236.017V226.203C236.017 230.485 232.545 233.958 228.262 233.958Z" fill="#232121"/>
<path d="M236.017 236.863H220.507V241.325H236.017V236.863Z" fill="#C21D03"/>
<path d="M130.552 175.782H117.907C117.43 175.782 117.042 175.395 117.042 174.917V173.1C117.042 172.622 117.43 172.235 117.907 172.235H130.552C131.03 172.235 131.417 172.622 131.417 173.1V174.917C131.42 175.395 131.03 175.782 130.552 175.782Z" fill="#C21D03"/>
<path d="M206.427 109.675C206.455 109.267 206.47 108.857 206.47 108.442C206.47 98.2649 198.22 90.0149 188.042 90.0149C180.392 90.0149 173.83 94.6774 171.045 101.315C170.152 101.027 169.202 100.867 168.215 100.867C163.53 100.867 159.67 104.377 159.11 108.91C152.987 110.037 148.35 115.402 148.35 121.85C148.35 129.117 154.242 135.01 161.51 135.01H201.435C208.702 135.01 214.595 129.117 214.595 121.85C214.592 116.352 211.217 111.642 206.427 109.675Z" fill="#C21D03"/>
<path d="M112.335 110.488L118.055 106.558C118.322 106.373 118.67 106.355 118.957 106.5L121.075 107.585L134.125 98.6201C134.525 98.3451 135.075 98.4426 135.352 98.8476L144.915 112.77C145.17 113.14 145.075 113.643 144.705 113.898L124.237 127.955C123.872 128.205 123.37 128.113 123.12 127.748L112.1 111.705C111.832 111.305 111.935 110.763 112.335 110.488Z" fill="#FD5732"/>
<path d="M145.277 113.122L140.86 98.415C140.747 98.035 140.295 97.8725 139.965 98.0975L119.307 112.287C119.027 112.48 118.9 112.832 119 113.157L123.402 127.805C123.49 128.097 123.84 128.225 124.097 128.047L145.107 113.615C145.262 113.52 145.33 113.315 145.277 113.122Z" fill="#FD5732"/>
<path opacity="0.4" d="M145.277 113.122L140.86 98.415C140.747 98.035 140.295 97.8725 139.965 98.0975L119.307 112.287C119.027 112.48 118.9 112.832 119 113.157L123.402 127.805C123.49 128.097 123.84 128.225 124.097 128.047L145.107 113.615C145.262 113.52 145.33 113.315 145.277 113.122Z" fill="#F1F1F1"/>
<path d="M210.185 87.4901L193.7 85.3501C193.15 85.2776 192.763 84.7751 192.833 84.2251L195.583 63.0351C195.655 62.4851 196.158 62.0976 196.708 62.1676L213.145 64.2901C213.695 64.3601 214.083 64.8626 214.013 65.4126L211.31 86.6201C211.24 87.1726 210.735 87.5626 210.185 87.4901Z" fill="#FD5732"/>
<path opacity="0.2" d="M210.185 87.4901L193.7 85.3501C193.15 85.2776 192.763 84.7751 192.833 84.2251L195.583 63.0351C195.655 62.4851 196.158 62.0976 196.708 62.1676L213.145 64.2901C213.695 64.3601 214.083 64.8626 214.013 65.4126L211.31 86.6201C211.24 87.1726 210.735 87.5626 210.185 87.4901Z" fill="#F1F1F1"/>
<path d="M211.675 86.545L195.63 80.4275C195.252 80.2825 195.062 79.86 195.207 79.4825L203.012 59.01C203.157 58.6325 203.58 58.4425 203.957 58.5875L215.695 63.0625L218.762 70.005L212.617 86.1225C212.475 86.4975 212.052 86.6875 211.675 86.545Z" fill="#FD5732"/>
<path opacity="0.6" d="M211.675 86.545L195.63 80.4275C195.252 80.2825 195.062 79.86 195.207 79.4825L203.012 59.01C203.157 58.6325 203.58 58.4425 203.957 58.5875L215.695 63.0625L218.762 70.005L212.617 86.1225C212.475 86.4975 212.052 86.6875 211.675 86.545Z" fill="#F1F1F1"/>
<path d="M218.762 70.0026L214.457 68.3601C214.08 68.2151 213.89 67.7926 214.035 67.4151L215.695 63.0601L218.762 70.0026Z" fill="#FD5732"/>
<path opacity="0.2" d="M218.762 70.0026L214.457 68.3601C214.08 68.2151 213.89 67.7926 214.035 67.4151L215.695 63.0601L218.762 70.0026Z" fill="#F1F1F1"/>
<path d="M206.563 62.1464L204.61 61.4019L202.859 65.9946L204.812 66.7391L206.563 62.1464Z" fill="#FD5732"/>
<path d="M207.71 65.0021L205.757 64.2576L204.812 66.7386L206.765 67.4828L207.71 65.0021Z" fill="#F1F1F1"/>
<path d="M215.052 73.1503L202.024 68.1838L201.623 69.2351L214.651 74.2013L215.052 73.1503Z" fill="#F1F1F1"/>
<path d="M213.514 77.1852L200.486 72.219L200.085 73.2702L213.113 78.2365L213.514 77.1852Z" fill="#F1F1F1"/>
<path d="M208.091 79.7374L198.95 76.2529L198.549 77.3042L207.69 80.7887L208.091 79.7374Z" fill="#F1F1F1"/>
<path d="M248.387 97.1708L225.599 92.7292L222.208 110.129L244.996 114.57L248.387 97.1708Z" fill="#F1F1F1"/>
<path d="M247.01 98.1349L226.511 94.1396L223.583 109.164L244.081 113.159L247.01 98.1349Z" fill="#FD5732"/>
<path opacity="0.7" d="M247.01 98.1349L226.511 94.1396L223.583 109.164L244.081 113.159L247.01 98.1349Z" fill="#F1F1F1"/>
<path d="M245.475 106.07L241.457 100.92C241.25 100.655 240.877 100.582 240.587 100.75L234.34 104.36L232.087 101.472C231.88 101.207 231.51 101.135 231.217 101.302L224.352 105.265L223.595 109.157L244.092 113.152L245.475 106.07Z" fill="#FD5732"/>
<path opacity="0.2" d="M245.475 106.07L241.467 100.932C241.255 100.66 240.872 100.585 240.575 100.757L234.342 104.36L232.1 101.485C231.887 101.212 231.505 101.137 231.207 101.31L224.357 105.265L223.6 109.157L244.097 113.152L245.475 106.07Z" fill="#F1F1F1"/>
<path d="M235.328 100.042C235.996 100.042 236.538 99.5006 236.538 98.8323C236.538 98.1641 235.996 97.6223 235.328 97.6223C234.659 97.6223 234.118 98.1641 234.118 98.8323C234.118 99.5006 234.659 100.042 235.328 100.042Z" fill="#F1F1F1"/>
<path opacity="0.5" d="M234.342 104.36L233.082 105.087C232.857 105.217 232.57 105.097 232.505 104.847L231.542 101.22C231.755 101.217 231.962 101.31 232.1 101.485L234.342 104.36Z" fill="#FD5732"/>
<path opacity="0.5" d="M245.477 106.07L244.477 111.202L241.082 100.68C241.232 100.715 241.37 100.802 241.47 100.93L245.477 106.07Z" fill="#FD5732"/>
<path d="M168.715 90.1273L155.25 91.3148C153.415 91.4773 151.797 90.1198 151.635 88.2848L150.447 74.8223C150.285 72.9873 151.642 71.3698 153.477 71.2073L166.94 70.0198C168.775 69.8573 170.392 71.2148 170.555 73.0498L171.742 86.5123C171.905 88.3473 170.547 89.9673 168.715 90.1273Z" fill="#FD5732"/>
<path opacity="0.2" d="M168.715 90.1273L155.25 91.3148C153.415 91.4773 151.797 90.1198 151.635 88.2848L150.447 74.8223C150.285 72.9873 151.642 71.3698 153.477 71.2073L166.94 70.0198C168.775 69.8573 170.392 71.2148 170.555 73.0498L171.742 86.5123C171.905 88.3473 170.547 89.9673 168.715 90.1273Z" fill="#F1F1F1"/>
<path d="M165.405 75.2698C165.312 75.1898 165.197 75.1573 165.087 75.1823L158.147 77.1798C157.95 77.2223 157.815 77.4348 157.835 77.6723L158.302 83.8748C157.92 83.6548 157.497 83.5598 157.077 83.5998C155.982 83.6973 155.167 84.6073 155.257 85.6298C155.347 86.6523 156.31 87.4073 157.405 87.3098C158.5 87.2123 159.315 86.3023 159.225 85.2798L158.87 80.3398L165.025 78.5148L165.36 82.3173C164.977 82.0973 164.555 82.0023 164.137 82.0423C163.042 82.1398 162.227 83.0498 162.317 84.0723C162.407 85.0948 163.37 85.8498 164.465 85.7523C165.56 85.6548 166.375 84.7448 166.285 83.7223L165.57 75.6073C165.557 75.4723 165.497 75.3498 165.405 75.2698Z" fill="#F1F1F1"/>
<path d="M157.265 125.285L156.167 124.807L156.382 124.315L157.48 124.792L157.265 125.285ZM154.88 124.247L153.595 123.687L153.81 123.195L155.095 123.755L154.88 124.247ZM152.307 123.127L151.022 122.567L151.237 122.075L152.522 122.635L152.307 123.127ZM149.737 122.007L148.452 121.447L148.667 120.955L149.952 121.515L149.737 122.007ZM147.165 120.885L145.88 120.325L146.095 119.832L147.38 120.392L147.165 120.885ZM144.592 119.765L143.307 119.205L143.522 118.712L144.807 119.272L144.592 119.765ZM142.02 118.645L140.735 118.085L140.95 117.592L142.235 118.152L142.02 118.645Z" fill="#C21D03"/>
<path d="M170.047 102.652L169.345 101.44L169.81 101.17L170.512 102.382L170.047 102.652ZM168.64 100.225L167.937 99.0124L168.402 98.7424L169.105 99.9549L168.64 100.225ZM167.232 97.7974L166.53 96.5849L166.995 96.3149L167.697 97.5274L167.232 97.7974ZM165.825 95.3724L165.122 94.1599L165.587 93.8899L166.29 95.1024L165.825 95.3724ZM164.417 92.9449L163.715 91.7324L164.18 91.4624L164.882 92.6749L164.417 92.9449Z" fill="#C21D03"/>
<path d="M196.987 98.865L196.502 98.6325L197.11 97.3675L197.595 97.6L196.987 98.865ZM198.202 96.335L197.717 96.1025L198.325 94.8375L198.81 95.07L198.202 96.335ZM199.417 93.805L198.932 93.5725L199.54 92.3075L200.025 92.54L199.417 93.805ZM200.63 91.2775L200.145 91.045L200.752 89.78L201.237 90.0125L200.63 91.2775ZM201.845 88.7475L201.36 88.515L201.967 87.25L202.452 87.4825L201.845 88.7475Z" fill="#C21D03"/>
<path d="M201.405 116.877L201.217 116.372L202.532 115.885L202.72 116.39L201.405 116.877ZM204.037 115.905L203.85 115.4L205.165 114.912L205.352 115.417L204.037 115.905ZM206.67 114.932L206.482 114.427L207.797 113.94L207.985 114.445L206.67 114.932ZM209.3 113.96L209.112 113.455L210.427 112.967L210.615 113.472L209.3 113.96ZM211.932 112.987L211.745 112.482L213.06 111.995L213.247 112.5L211.932 112.987ZM214.562 112.015L214.375 111.51L215.69 111.022L215.877 111.527L214.562 112.015ZM217.195 111.042L217.007 110.537L218.322 110.05L218.51 110.555L217.195 111.042ZM219.827 110.07L219.64 109.565L220.955 109.077L221.142 109.582L219.827 110.07Z" fill="#C21D03"/>
<path d="M181.74 153.595H181.203V152.192H181.74V153.595ZM181.74 150.787H181.203V149.385H181.74V150.787ZM181.74 147.982H181.203V146.58H181.74V147.982ZM181.74 145.177H181.203V143.775H181.74V145.177ZM181.74 142.372H181.203V140.97H181.74V142.372ZM181.74 139.565H181.203V138.162H181.74V139.565ZM181.74 136.76H181.203V135.357H181.74V136.76ZM181.74 133.955H181.203V132.552H181.74V133.955ZM181.74 131.15H181.203V129.747H181.74V131.15ZM181.74 128.345H181.203V126.942H181.74V128.345Z" fill="#C21D03"/>
<path d="M181.905 145.427H180.683C180.4 145.427 180.17 145.197 180.17 144.915V143.692C180.17 143.41 180.4 143.18 180.683 143.18H181.905C182.188 143.18 182.418 143.41 182.418 143.692V144.915C182.418 145.197 182.188 145.427 181.905 145.427Z" fill="#C21D03"/>
<path d="M226.66 129.295H225.355C225.052 129.295 224.807 129.05 224.807 128.748V127.443C224.807 127.14 225.052 126.895 225.355 126.895H226.66C226.963 126.895 227.208 127.14 227.208 127.443V128.75C227.208 129.05 226.963 129.295 226.66 129.295Z" fill="#C21D03"/>
<path d="M260.877 129.222H259.655C259.372 129.222 259.142 128.992 259.142 128.71V127.487C259.142 127.205 259.372 126.975 259.655 126.975H260.877C261.16 126.975 261.39 127.205 261.39 127.487V128.71C261.392 128.992 261.162 129.222 260.877 129.222Z" fill="#C21D03"/>
<path d="M279.198 148.54H277.975C277.693 148.54 277.463 148.31 277.463 148.027V146.805C277.463 146.522 277.693 146.292 277.975 146.292H279.198C279.48 146.292 279.71 146.522 279.71 146.805V148.027C279.713 148.31 279.483 148.54 279.198 148.54Z" fill="#C21D03"/>
<path d="M279.218 181.892L277.995 181.915C277.713 181.92 277.478 181.695 277.473 181.41L277.45 180.187C277.445 179.905 277.67 179.67 277.955 179.665L279.178 179.642C279.46 179.637 279.695 179.862 279.7 180.147L279.723 181.37C279.728 181.655 279.5 181.887 279.218 181.892Z" fill="#C21D03"/>
<path d="M356.435 262.507H46.3175C46.2025 262.507 46.1075 262.412 46.1075 262.297C46.1075 262.182 46.2025 262.087 46.3175 262.087H356.435C356.55 262.087 356.645 262.182 356.645 262.297C356.645 262.412 356.553 262.507 356.435 262.507Z" fill="#232121"/>
<path d="M287.237 207.867L287.127 205.572C287.107 205.162 286.955 204.772 286.695 204.455L285.902 203.5C285.695 203.247 285.36 203.135 285.042 203.21L283.195 203.637C283.105 203.657 283.04 203.735 283.035 203.827C283.062 204.322 283.455 204.715 283.95 204.745L285.087 204.812L285.3 205.225C285.327 205.277 285.335 205.337 285.32 205.395L284.935 206.142C284.687 206.625 284.057 206.76 283.632 206.422L282.985 205.907L281.92 207.907L282.502 208.982C282.825 209.575 283.4 209.99 284.065 210.107L284.312 210.15C284.442 210.172 284.557 210.245 284.632 210.355L285.672 211.865L288.437 209.582L287.34 208.155C287.28 208.067 287.242 207.97 287.237 207.867Z" fill="#FC9D9D"/>
<g opacity="0.15">
<path opacity="0.15" d="M286.08 203.728C286.342 204.043 286.492 204.435 286.512 204.845L286.625 208.535C286.627 208.633 286.66 208.725 286.715 208.805L287.682 210.2L288.437 209.575L287.34 208.148C287.277 208.065 287.24 207.968 287.235 207.863L287.125 205.568C287.105 205.158 286.952 204.768 286.692 204.45L285.9 203.495C285.872 203.463 285.845 203.433 285.815 203.405L286.08 203.728Z" fill="#232121"/>
</g>
<path d="M299.983 217.125L297.565 219.433L288.05 209.07L285.02 210.948L294.338 225.558C295.63 227.583 298.483 227.85 300.128 226.1L305.383 220.508L299.983 217.125Z" fill="#C21D03"/>
<path d="M281.87 204.817L281.66 207.465L278.733 202.047C278.573 201.752 278.675 201.387 278.965 201.217C279.258 201.045 279.633 201.14 279.808 201.43L281.87 204.817Z" fill="#FC9D9D"/>
<path opacity="0.15" d="M279.808 201.432C279.668 201.205 279.405 201.1 279.155 201.15C279.24 201.2 279.313 201.267 279.368 201.357L280.578 203.345C280.715 203.57 280.803 203.825 280.833 204.087L281.1 206.437L281.658 207.467L281.868 204.82L279.808 201.432Z" fill="#232121"/>
<path opacity="0.15" d="M283.905 207.275L283.172 206.73L283.112 206.635L282.943 208.145L283.073 208.18L283.15 207.533C283.215 207.71 283.368 207.845 283.565 207.88L284.103 207.893L283.905 207.275Z" fill="#232121"/>
<path d="M277.755 196.595L277.508 196.745C277.285 196.88 277.218 197.17 277.353 197.39L283.888 207.95C284.025 208.175 284.323 208.24 284.545 208.095L284.905 207.858C285.118 207.718 285.178 207.433 285.043 207.218L278.393 196.745C278.258 196.528 277.973 196.463 277.755 196.595Z" fill="#232121"/>
<path d="M280.772 202.213L281.288 206.755L282.52 208.998L282.675 207.58L281.96 202.068C281.92 201.765 281.658 201.538 281.353 201.545C281.003 201.553 280.732 201.863 280.772 202.213Z" fill="#FC9D9D"/>
<path d="M282.373 204.57L281.833 207.425L282.735 208.86L283.208 204.695C283.225 204.533 283.148 204.373 283.008 204.288C282.758 204.133 282.428 204.278 282.373 204.57Z" fill="#FC9D9D"/>
<path opacity="0.15" d="M282.323 204.837L281.953 206.797L282.092 203.065L282.323 204.837Z" fill="#232121"/>
<path opacity="0.6" d="M288.05 209.07L288.605 209.675L285.473 211.66L285.02 210.95L288.05 209.07Z" fill="#232121"/>
<path d="M296.468 226.465C296.693 226.465 296.875 226.282 296.875 226.057C296.875 225.832 296.693 225.65 296.468 225.65C296.243 225.65 296.06 225.832 296.06 226.057C296.06 226.282 296.243 226.465 296.468 226.465Z" fill="#F1F1F1"/>
<path d="M301.662 190.932C304.01 190.932 305.912 189.03 305.912 186.682C305.912 184.335 304.01 182.432 301.662 182.432C299.315 182.432 297.412 184.335 297.412 186.682C297.412 189.03 299.315 190.932 301.662 190.932Z" fill="#232121"/>
<path d="M183.525 250.245L181.03 249.7C180.607 249.607 180.207 249.93 180.207 250.363C180.207 250.638 180.375 250.885 180.63 250.99L183.677 252.235L183.525 250.245Z" fill="#FC9D9D"/>
<path opacity="0.15" d="M183.525 250.245L181.03 249.7C180.607 249.607 180.207 249.93 180.207 250.363C180.207 250.638 180.375 250.885 180.63 250.99L183.677 252.235L183.525 250.245Z" fill="#232121"/>
<path d="M202.482 254.648L194.91 255.438C194.06 255.525 193.202 255.353 192.455 254.938L184.497 250.413C183.667 250.003 182.897 249.488 182.202 248.875L182.172 248.848C181.895 248.605 181.505 248.573 181.2 248.76L181.18 248.773C180.767 249.028 180.655 249.575 180.932 249.973L184.04 254.43C184.445 255.013 185.815 256.058 186.447 256.38C187.387 256.855 188.12 257.66 188.505 258.64L189.29 260.638C189.872 262.118 191.63 262.74 193.012 261.955L194.075 261.353L202.797 261.908L202.482 254.648Z" fill="#FC9D9D"/>
<g opacity="0.2">
<path opacity="0.2" d="M193.66 260.545C193.585 260.547 193.51 260.565 193.442 260.595L192.602 260.97C191.575 261.552 190.092 261.15 189.162 260.297L189.295 260.632C189.877 262.112 191.635 262.735 193.017 261.95L194.08 261.347L202.802 261.902L202.73 260.232L193.66 260.545Z" fill="#232121"/>
</g>
<path d="M220.177 253.95L207.977 259.097C207.365 259.355 206.965 259.957 206.965 260.622C206.965 261.537 207.705 262.277 208.62 262.277H223.567C225.322 262.277 226.792 260.947 226.967 259.2L227.145 257.435L230.802 253.232L224.662 249.282L220.177 253.95Z" fill="#FC9D9D"/>
<path d="M292.728 233.127L259.075 217.067C256.018 215.607 252.363 216.382 250.16 218.957L223.75 249.81L229.105 254.67L255.2 230.942L280.152 246.765L291.61 241.825L292.728 233.127Z" fill="#232121"/>
<path opacity="0.2" d="M289.505 236.057C289.375 235.972 289.2 236.01 289.093 236.122L285.425 240.09C285.183 240.352 284.793 240.42 284.475 240.255L258.138 226.9C256.76 226.202 255.09 226.445 253.97 227.507L227.16 252.93L229.105 254.67L255.2 230.942L280.153 246.765L289.368 242.792L285.555 240.815L289.565 236.532C289.698 236.392 289.673 236.165 289.505 236.057Z" fill="#232121"/>
<path d="M332.085 258.967C332.243 258.99 332.395 259.027 332.545 259.082L337.923 261.05C338.258 261.172 338.398 261.567 338.22 261.872C338.078 262.115 337.78 262.22 337.518 262.115L332.703 260.212L331.3 258.855L332.085 258.967Z" fill="#F99A9A"/>
<path opacity="0.15" d="M332.058 258.96C332.213 258.98 332.365 259.017 332.51 259.072L337.923 261.052C338.258 261.175 338.398 261.57 338.22 261.875C338.078 262.117 337.78 262.222 337.518 262.117L332.703 260.215L331.3 258.857L332.058 258.96Z" fill="#232121"/>
<path opacity="0.15" d="M299.982 217.125L298.55 218.49L298.697 218.905C298.845 219.32 298.82 219.775 298.635 220.173L297.04 223.542C296.542 224.592 295.152 224.827 294.337 224L291.502 221.117L294.335 225.557C294.652 226.055 295.065 226.447 295.532 226.727C295.537 226.73 295.542 226.733 295.545 226.735C295.585 226.76 295.625 226.78 295.667 226.803C295.722 226.833 295.775 226.862 295.83 226.89C295.872 226.91 295.912 226.928 295.955 226.945C296.01 226.97 296.067 226.995 296.125 227.018C296.167 227.033 296.21 227.047 296.255 227.062C296.312 227.083 296.37 227.102 296.43 227.117C296.445 227.122 296.457 227.128 296.472 227.13V227.128C297.727 227.468 299.142 227.145 300.127 226.1L305.382 220.508L299.982 217.125Z" fill="#232121"/>
<path d="M321.403 255.895L326.128 253.77L326.405 257.73C326.428 258.038 326.663 258.285 326.968 258.325L331.485 258.885C331.828 258.928 332.163 259.015 332.48 259.148L336.953 260.995C337.283 261.13 337.425 261.52 337.263 261.838L337.255 261.85C337.118 262.115 336.82 262.248 336.535 262.17C335.153 261.793 331.298 260.748 331.298 260.748L325.928 262.183C324.215 262.68 322.445 261.59 322.118 259.835L322.015 259.29L321.403 255.895Z" fill="#F99A9A"/>
<path d="M305.747 247.36L302.853 252.358C299.3 258.498 292.742 262.278 285.647 262.278H197.937V255.05L281.457 245.188L292.948 232.923C295.945 243.348 302.853 246.125 305.747 247.36Z" fill="#232121"/>
<path d="M327.807 260.468L330.628 260.703C331.303 260.758 331.823 261.323 331.823 262C331.823 262.165 331.69 262.298 331.525 262.298H325.385L327.807 260.468Z" fill="#F99A9A"/>
<g opacity="0.15">
<path opacity="0.15" d="M331.04 260.813C330.908 260.75 330.715 260.735 330.713 260.733L328.39 260.54C328.3 260.533 328.235 260.455 328.24 260.365C328.248 260.275 328.325 260.21 328.415 260.215L330.74 260.408C330.755 260.41 331.098 260.465 331.298 260.743L331.04 260.813Z" fill="#232121"/>
</g>
<path opacity="0.15" d="M326.977 258.323L325.697 258.248C325.357 258.205 325.087 257.94 325.042 257.603L324.917 256.018L326.322 255.958L326.415 257.743C326.435 258.048 326.672 258.293 326.977 258.323Z" fill="#232121"/>
<path d="M323.37 205C323.173 201.587 320.345 198.92 316.928 198.92L309.22 200.51C306.805 201.007 305.835 203.102 304.868 205.24L303.973 207.305C303.503 208.315 303.2 209.152 302.388 209.742L301.255 210.622C299.365 211.995 298.733 214.332 299.54 216.61L300.32 219.032C300.468 219.447 300.443 219.902 300.258 220.3L296 229.355C295.318 230.795 294.265 232.027 292.948 232.925C291.903 233.642 291.49 234.992 291.965 236.17C294.885 243.382 302.325 246.407 305.373 247.475C306.058 247.715 306.813 247.417 307.15 246.775L317.328 230.432L321.44 256.155L326.32 255.957L323.37 205Z" fill="#C21D03"/>
<path opacity="0.15" d="M323.37 205C323.21 202.258 321.355 199.998 318.858 199.215C320.313 200.555 320.88 203.578 321.085 206.6L324.918 256.015L326.323 255.955L323.37 205Z" fill="#232121"/>
<path opacity="0.15" d="M297.565 219.435L296.462 220.502C296.395 220.567 296.285 220.562 296.225 220.49C296.17 220.425 296.175 220.327 296.235 220.267L297.342 219.192L297.565 219.435Z" fill="#232121"/>
<path opacity="0.2" d="M300.845 245.462L298.203 249.805C295.613 254.185 290.973 256.95 285.888 257.142L197.935 260.467V262.277H285.645C292.74 262.277 299.298 258.497 302.85 252.357L305.643 247.54C304.738 247.215 303.27 246.797 300.845 245.462Z" fill="#232121"/>
<path d="M301.388 193.48C301.415 193.588 301.358 193.698 301.255 193.74L301.248 193.743C300.898 193.883 300.69 194.243 300.745 194.615L300.748 194.628C300.785 194.888 300.94 195.113 301.17 195.24C301.368 195.35 301.573 195.463 301.573 195.463L302.943 197.94C303.573 199.08 304.96 199.56 306.16 199.05L308.42 198.093L309.658 201.158C309.758 201.438 309.708 201.748 309.53 201.985L307.773 204.328C306.995 205.363 307.618 206.853 308.9 207.028C310.343 207.225 311.79 206.713 312.788 205.655L318.86 199.218L315.138 193.815C314.22 193.66 313.405 193.14 312.875 192.378L309.443 187.423L300.42 187.153L301.388 193.48Z" fill="#FC9D9D"/>
<path d="M309.503 207.393C309.288 207.393 309.07 207.378 308.853 207.348C308.135 207.25 307.54 206.793 307.26 206.123C306.98 205.455 307.073 204.708 307.508 204.13L309.265 201.788C309.378 201.638 309.408 201.44 309.345 201.265L309.6 201.025C309.735 201.408 309.768 201.655 309.445 202.168L308.03 204.525C307.735 204.918 307.673 205.423 307.863 205.875C308.053 206.328 308.455 206.638 308.943 206.705C310.278 206.888 311.625 206.41 312.548 205.433L318.62 198.995L319.095 199.443L313.023 205.88C312.103 206.85 310.823 207.393 309.503 207.393Z" fill="#FD5732"/>
<g opacity="0.6">
<path opacity="0.6" d="M309.503 207.392C309.288 207.392 309.07 207.377 308.853 207.347C308.135 207.25 307.54 206.792 307.26 206.122C306.98 205.455 307.073 204.707 307.508 204.13L309.6 201.022C309.815 201.457 309.665 201.825 309.415 202.212L308.028 204.52C307.733 204.912 307.67 205.417 307.86 205.87C308.05 206.322 308.453 206.632 308.94 206.7C310.275 206.882 311.623 206.405 312.545 205.427L318.618 198.99L319.093 199.437L313.02 205.875C312.103 206.85 310.823 207.392 309.503 207.392Z" fill="#232121"/>
</g>
<path opacity="0.15" d="M313.795 192.973L312.612 191.465L311.585 192.97L313.795 192.973Z" fill="#232121"/>
<path opacity="0.15" d="M308.415 198.093L309.65 197.563C309.843 197.48 310.038 197.67 309.963 197.863L309.163 199.945L308.415 198.093Z" fill="#232121"/>
<path d="M318.122 189.075C318.102 189.075 318.085 189.073 318.065 189.073C317.345 189.035 316.762 188.48 316.715 187.763C316.662 186.943 316.522 186.078 316.257 185.19C314.06 177.81 302.095 177.738 300.335 186.27C300.235 186.51 300.172 186.77 300.16 187.04C300.155 187.152 300.16 187.26 300.17 187.367C300.165 187.407 300.16 187.448 300.157 187.488C300.157 187.488 300.167 187.485 300.182 187.483C300.345 188.625 301.325 189.508 302.512 189.508C302.96 189.508 303.377 189.383 303.732 189.168C304.202 188.883 304.807 189 305.1 189.465C305.87 190.69 307.232 191.505 308.787 191.505C309.78 191.505 310.695 191.173 311.427 190.613C311.812 190.795 312.232 191.113 312.51 191.668C311.672 192.78 311.18 194.168 311.2 195.673C311.245 199.255 314.242 202.168 317.825 202.115C321.33 202.063 324.165 199.245 324.247 195.748C324.332 192.258 321.605 189.28 318.122 189.075Z" fill="#232121"/>
<path d="M311.76 193.147C311.76 193.147 313.975 192.12 313.24 189.765C312.505 187.412 309.685 188.495 310.508 190.817L311.523 193.285L311.76 193.147Z" fill="#FC9D9D"/>
<path opacity="0.3" d="M311.955 189.02C311.64 188.993 311.392 189.058 311.215 189.213C311.04 189.368 310.945 189.603 310.932 189.91C310.92 190.22 310.987 190.558 311.152 190.863L311.27 191.095C311.352 191.27 311.672 191.155 311.567 190.958C311.445 190.703 311.445 190.703 311.445 190.703C311.4 190.635 311.235 190.22 311.25 189.92C311.26 189.703 311.317 189.543 311.425 189.448C311.535 189.35 311.702 189.313 311.927 189.333C312.015 189.34 312.09 189.278 312.097 189.19C312.105 189.105 312.042 189.028 311.955 189.02Z" fill="#232121"/>
<path opacity="0.15" d="M302.085 196.385C302.09 196.383 302.605 196.183 302.89 195.628C302.937 195.535 303.045 195.493 303.142 195.528C303.255 195.57 303.307 195.703 303.252 195.81C302.95 196.403 302.447 196.668 302.28 196.743L302.085 196.385Z" fill="#232121"/>
<path opacity="0.15" d="M304.867 205.237L303.972 207.302C303.502 208.312 303.2 209.15 302.387 209.74L304.05 208.675C304.405 208.447 304.675 208.105 304.817 207.707L306.11 203.13L306.262 202.585C305.717 203.372 305.292 204.302 304.867 205.237Z" fill="#232121"/>
<path d="M302.062 192.602C302.355 192.602 302.592 192.365 302.592 192.072C302.592 191.78 302.355 191.542 302.062 191.542C301.77 191.542 301.532 191.78 301.532 192.072C301.532 192.365 301.77 192.602 302.062 192.602Z" fill="#232121"/>
<path d="M301.838 192.363C301.903 192.363 301.958 192.309 301.958 192.243C301.958 192.176 301.903 192.123 301.838 192.123C301.77 192.123 301.718 192.176 301.718 192.243C301.718 192.309 301.77 192.363 301.838 192.363Z" fill="#F1F1F1"/>
<path d="M312 192.702C312.268 192.702 312.485 192.485 312.485 192.217C312.485 191.949 312.268 191.732 312 191.732C311.732 191.732 311.515 191.949 311.515 192.217C311.515 192.485 311.732 192.702 312 192.702Z" fill="#FD5732"/>
<path opacity="0.15" d="M312.157 191.765C312.237 191.852 312.29 191.965 312.29 192.092C312.29 192.36 312.072 192.577 311.805 192.577C311.75 192.577 311.697 192.562 311.647 192.545C311.735 192.64 311.86 192.702 312 192.702C312.267 192.702 312.485 192.485 312.485 192.217C312.487 192.005 312.347 191.83 312.157 191.765Z" fill="#232121"/>
<path d="M301.717 194.805C301.637 194.805 301.562 194.752 301.537 194.67L300.632 191.682C300.602 191.582 300.657 191.477 300.757 191.447C300.857 191.417 300.962 191.472 300.992 191.572L301.897 194.56C301.927 194.66 301.872 194.765 301.772 194.795C301.755 194.802 301.735 194.805 301.717 194.805Z" fill="#F1F1F1"/>
<path d="M301.388 193.345C301.308 193.345 301.235 193.295 301.207 193.215C301.175 193.115 301.23 193.01 301.328 192.978L310.307 190.04C310.407 190.008 310.513 190.063 310.545 190.16C310.578 190.26 310.522 190.365 310.425 190.398L301.445 193.335C301.425 193.343 301.405 193.345 301.388 193.345Z" fill="#F1F1F1"/>
<path opacity="0.6" d="M321.443 256.155L321.302 255.277L326.272 255.067L326.325 255.955L321.443 256.155Z" fill="#232121"/>
<path d="M320.29 219.6C320.515 219.6 320.698 219.417 320.698 219.192C320.698 218.967 320.515 218.785 320.29 218.785C320.065 218.785 319.883 218.967 319.883 219.192C319.883 219.417 320.065 219.6 320.29 219.6Z" fill="#F1F1F1"/>
<path d="M306.262 246.735C306.487 246.735 306.67 246.552 306.67 246.327C306.67 246.102 306.487 245.92 306.262 245.92C306.037 245.92 305.855 246.102 305.855 246.327C305.855 246.552 306.037 246.735 306.262 246.735Z" fill="#F1F1F1"/>
<path d="M306.262 238.87C306.487 238.87 306.67 238.687 306.67 238.462C306.67 238.237 306.487 238.055 306.262 238.055C306.037 238.055 305.855 238.237 305.855 238.462C305.855 238.687 306.037 238.87 306.262 238.87Z" fill="#F1F1F1"/>
<path d="M301.232 235.097C301.457 235.097 301.64 234.915 301.64 234.69C301.64 234.465 301.457 234.282 301.232 234.282C301.007 234.282 300.825 234.465 300.825 234.69C300.825 234.915 301.007 235.097 301.232 235.097Z" fill="#F1F1F1"/>
<path d="M296.468 230.51C296.693 230.51 296.875 230.328 296.875 230.103C296.875 229.878 296.693 229.695 296.468 229.695C296.243 229.695 296.06 229.878 296.06 230.103C296.06 230.328 296.243 230.51 296.468 230.51Z" fill="#F1F1F1"/>
<path d="M319.068 234.18C319.293 234.18 319.475 233.997 319.475 233.772C319.475 233.547 319.293 233.365 319.068 233.365C318.843 233.365 318.66 233.547 318.66 233.772C318.66 233.997 318.843 234.18 319.068 234.18Z" fill="#F1F1F1"/>
<path d="M314.69 226.448C314.915 226.448 315.097 226.265 315.097 226.04C315.097 225.815 314.915 225.633 314.69 225.633C314.465 225.633 314.282 225.815 314.282 226.04C314.282 226.265 314.465 226.448 314.69 226.448Z" fill="#F1F1F1"/>
<path d="M325.325 252.797C325.55 252.797 325.732 252.615 325.732 252.39C325.732 252.165 325.55 251.982 325.325 251.982C325.1 251.982 324.917 252.165 324.917 252.39C324.917 252.615 325.1 252.797 325.325 252.797Z" fill="#F1F1F1"/>
<path d="M320.895 247.142C321.12 247.142 321.303 246.96 321.303 246.735C321.303 246.51 321.12 246.327 320.895 246.327C320.67 246.327 320.488 246.51 320.488 246.735C320.488 246.96 320.67 247.142 320.895 247.142Z" fill="#F1F1F1"/>
<path d="M324.252 239.277C324.477 239.277 324.66 239.095 324.66 238.87C324.66 238.645 324.477 238.462 324.252 238.462C324.027 238.462 323.845 238.645 323.845 238.87C323.845 239.095 324.027 239.277 324.252 239.277Z" fill="#F1F1F1"/>
<path d="M323.845 227.263C324.07 227.263 324.253 227.08 324.253 226.855C324.253 226.63 324.07 226.448 323.845 226.448C323.62 226.448 323.438 226.63 323.438 226.855C323.438 227.08 323.62 227.263 323.845 227.263Z" fill="#F1F1F1"/>
<path d="M299.752 241.405C299.977 241.405 300.16 241.223 300.16 240.998C300.16 240.773 299.977 240.59 299.752 240.59C299.527 240.59 299.345 240.773 299.345 240.998C299.345 241.223 299.527 241.405 299.752 241.405Z" fill="#F1F1F1"/>
<path d="M308.007 229.695C308.232 229.695 308.415 229.512 308.415 229.287C308.415 229.062 308.232 228.88 308.007 228.88C307.782 228.88 307.6 229.062 307.6 229.287C307.6 229.512 307.782 229.695 308.007 229.695Z" fill="#F1F1F1"/>
<path d="M309.98 221.633C310.205 221.633 310.388 221.45 310.388 221.225C310.388 221 310.205 220.818 309.98 220.818C309.755 220.818 309.573 221 309.573 221.225C309.573 221.45 309.755 221.633 309.98 221.633Z" fill="#F1F1F1"/>
<path d="M307.103 213.705C307.328 213.705 307.51 213.522 307.51 213.297C307.51 213.072 307.328 212.89 307.103 212.89C306.878 212.89 306.695 213.072 306.695 213.297C306.695 213.522 306.878 213.705 307.103 213.705Z" fill="#F1F1F1"/>
<path d="M301.232 228.225C301.457 228.225 301.64 228.042 301.64 227.817C301.64 227.592 301.457 227.41 301.232 227.41C301.007 227.41 300.825 227.592 300.825 227.817C300.825 228.042 301.007 228.225 301.232 228.225Z" fill="#F1F1F1"/>
<path d="M302.39 220.277C302.615 220.277 302.798 220.095 302.798 219.87C302.798 219.645 302.615 219.462 302.39 219.462C302.165 219.462 301.983 219.645 301.983 219.87C301.983 220.095 302.165 220.277 302.39 220.277Z" fill="#F1F1F1"/>
<path d="M301.265 212.505C301.49 212.505 301.673 212.322 301.673 212.097C301.673 211.872 301.49 211.69 301.265 211.69C301.04 211.69 300.858 211.872 300.858 212.097C300.858 212.322 301.04 212.505 301.265 212.505Z" fill="#F1F1F1"/>
<path d="M295.607 219.192C295.832 219.192 296.015 219.01 296.015 218.785C296.015 218.56 295.832 218.377 295.607 218.377C295.382 218.377 295.2 218.56 295.2 218.785C295.2 219.01 295.382 219.192 295.607 219.192Z" fill="#F1F1F1"/>
<path d="M290.057 217.533C290.282 217.533 290.465 217.35 290.465 217.125C290.465 216.9 290.282 216.718 290.057 216.718C289.832 216.718 289.65 216.9 289.65 217.125C289.65 217.35 289.832 217.533 290.057 217.533Z" fill="#F1F1F1"/>
<path d="M288.03 211.66C288.255 211.66 288.438 211.477 288.438 211.252C288.438 211.027 288.255 210.845 288.03 210.845C287.805 210.845 287.623 211.027 287.623 211.252C287.623 211.477 287.805 211.66 288.03 211.66Z" fill="#F1F1F1"/>
<path d="M306.323 206.135C306.548 206.135 306.73 205.953 306.73 205.728C306.73 205.503 306.548 205.32 306.323 205.32C306.098 205.32 305.915 205.503 305.915 205.728C305.915 205.953 306.098 206.135 306.323 206.135Z" fill="#F1F1F1"/>
<path d="M313.795 214.112C314.02 214.112 314.202 213.93 314.202 213.705C314.202 213.48 314.02 213.297 313.795 213.297C313.57 213.297 313.387 213.48 313.387 213.705C313.387 213.93 313.57 214.112 313.795 214.112Z" fill="#F1F1F1"/>
<path d="M317.33 206.543C317.555 206.543 317.737 206.36 317.737 206.135C317.737 205.91 317.555 205.728 317.33 205.728C317.105 205.728 316.922 205.91 316.922 206.135C316.922 206.36 317.105 206.543 317.33 206.543Z" fill="#F1F1F1"/>
<path d="M322.183 211.66C322.408 211.66 322.59 211.477 322.59 211.252C322.59 211.027 322.408 210.845 322.183 210.845C321.958 210.845 321.775 211.027 321.775 211.252C321.775 211.477 321.958 211.66 322.183 211.66Z" fill="#F1F1F1"/>
<path d="M293.862 236.32C294.087 236.32 294.27 236.137 294.27 235.912C294.27 235.687 294.087 235.505 293.862 235.505C293.637 235.505 293.455 235.687 293.455 235.912C293.455 236.137 293.637 236.32 293.862 236.32Z" fill="#F1F1F1"/>
<path d="M312.208 235.505C312.433 235.505 312.615 235.322 312.615 235.097C312.615 234.872 312.433 234.69 312.208 234.69C311.983 234.69 311.8 234.872 311.8 235.097C311.8 235.322 311.983 235.505 312.208 235.505Z" fill="#F1F1F1"/>
<path opacity="0.15" d="M300.845 245.462C302.537 246.44 304.357 247.11 305.492 247.477C306.14 247.687 306.842 247.397 307.16 246.795L317.33 230.43L315.827 221.227C315.752 220.772 315.15 220.665 314.92 221.062L300.845 245.462Z" fill="#232121"/>
<path opacity="0.15" d="M206.427 109.675C206.455 109.267 206.47 108.857 206.47 108.442C206.47 98.2649 198.22 90.0149 188.042 90.0149C187.287 90.0149 186.542 90.0624 185.81 90.1499C194.947 91.2399 202.035 99.0099 202.035 108.442C202.035 108.857 202.02 109.267 201.992 109.675C206.782 111.642 210.157 116.352 210.157 121.852C210.157 129.12 204.265 135.012 196.997 135.012H201.435C208.702 135.012 214.595 129.12 214.595 121.852C214.592 116.352 211.217 111.642 206.427 109.675Z" fill="#232121"/>
</svg>
