<svg width="150" height="100" viewBox="0 0 150 100" fill="none" xmlns="http://www.w3.org/2000/svg">
<g clip-path="url(#clip0_48_266)">
<path d="M69.5661 96.3176C69.7333 97.5228 70.3482 98.6254 71.0042 99.6876C71.0258 99.7237 71.0482 99.7594 71.071 99.7955H77.8886C78.0265 99.7626 78.1626 99.7264 78.2981 99.6876C79.0682 99.4719 79.7951 99.1429 80.4508 98.7134C82.959 97.0511 83.9241 93.91 83.4882 91.0954C83.2171 89.3467 82.3828 87.5614 80.7582 86.6196C79.876 86.1253 78.8235 85.9557 77.8112 86.1446C77.7854 86.149 77.7595 86.1543 77.7332 86.1592C77.3118 86.2341 76.9124 86.3903 76.5613 86.6173C76.2102 86.8444 75.9154 87.1373 75.6961 87.4766C74.9217 88.7423 75.3828 90.3101 75.7636 91.7188C76.1432 93.1274 76.3491 94.8135 75.2473 95.8524C75.4087 95.4179 75.4415 94.9517 75.3423 94.5017C75.243 94.0517 75.0152 93.6341 74.6824 93.2919C74.3496 92.9497 73.9237 92.6952 73.4485 92.5545C72.9733 92.4139 72.466 92.3922 71.9787 92.4916C71.8989 92.5073 71.8203 92.5251 71.7428 92.5467C71.5557 92.5971 71.3752 92.6666 71.2048 92.7539C69.9052 93.4216 69.3789 94.9592 69.5661 96.3176Z" fill="#F2F2F2"/>
<path d="M73.6086 99.6875C73.4197 99.728 73.2302 99.7636 73.0395 99.7955H74.0703C74.2053 99.762 74.3397 99.7264 74.4728 99.6875C74.7656 99.6033 75.0539 99.5067 75.3376 99.3977C76.4886 98.9678 77.5106 98.29 78.3175 97.4213C78.7055 96.9961 79.0223 96.5201 79.2574 96.0089C79.5125 95.4311 79.6745 94.8222 79.7385 94.2014C79.8555 92.918 79.7622 91.6257 79.4616 90.3678C79.1789 89.0712 78.7224 87.8118 78.1028 86.6185C78.0283 86.4754 77.9512 86.3333 77.8716 86.1921C77.8662 86.1804 77.8579 86.1701 77.8474 86.1619C77.8369 86.1537 77.8245 86.1477 77.8112 86.1446C77.7841 86.1397 77.7561 86.145 77.7332 86.1592C77.7057 86.1737 77.6853 86.1973 77.6763 86.2252C77.6672 86.2532 77.6701 86.2832 77.6845 86.3092C78.3234 87.4553 78.8077 88.6689 79.1266 89.9231C79.4551 91.1532 79.5994 92.4188 79.5555 93.6849C79.532 94.8624 79.1325 96.0075 78.4067 96.9777C77.7009 97.8514 76.7725 98.5521 75.7032 99.0183C75.0343 99.3127 74.3318 99.5371 73.6086 99.6875Z" fill="white"/>
<path d="M71.3462 99.7955H71.6501C71.6841 99.7599 71.717 99.7237 71.7493 99.6875C72.4415 98.9138 72.9105 97.992 73.1128 97.0073C73.3585 95.7785 73.1674 94.5096 72.5677 93.3886C72.4005 93.0742 72.2033 92.7741 71.9787 92.4916C71.8989 92.5072 71.8203 92.525 71.7428 92.5466C72.6012 93.5836 73.0414 94.8627 72.9882 96.1652C72.935 97.4677 72.3917 98.7127 71.4512 99.6875C71.4172 99.7237 71.382 99.7599 71.3462 99.7955Z" fill="white"/>
<path d="M148.597 33.583L118.021 43.7834L104.781 10.2004L135.356 0L148.597 33.583Z" fill="#F1F1F1"/>
<path d="M148.597 33.583L118.021 43.7834L104.781 10.2004L135.356 0L148.597 33.583Z" fill="#F1F1F1"/>
<path d="M135.481 16.2941L118 22.1261L118.3 22.8864L135.781 17.0544L135.481 16.2941Z" fill="white"/>
<path d="M136.261 18.2708L118.78 24.1028L119.079 24.8631L136.561 19.0311L136.261 18.2708Z" fill="white"/>
<path d="M137.04 20.2476L119.559 26.0796L119.859 26.8399L137.34 21.0079L137.04 20.2476Z" fill="white"/>
<path d="M116.773 23.6196C117.09 23.6196 117.347 23.3833 117.347 23.0918C117.347 22.8003 117.09 22.564 116.773 22.564C116.456 22.564 116.199 22.8003 116.199 23.0918C116.199 23.3833 116.456 23.6196 116.773 23.6196Z" fill="white"/>
<path d="M132.123 7.77615L114.642 13.6082L114.942 14.3685L132.423 8.53644L132.123 7.77615Z" fill="white"/>
<path d="M132.903 9.75295L115.422 15.585L115.721 16.3453L133.202 10.5132L132.903 9.75295Z" fill="white"/>
<path d="M133.682 11.7298L116.201 17.5618L116.501 18.3221L133.982 12.4901L133.682 11.7298Z" fill="white"/>
<path d="M113.382 15.019C113.699 15.019 113.956 14.7827 113.956 14.4912C113.956 14.1997 113.699 13.9634 113.382 13.9634C113.065 13.9634 112.808 14.1997 112.808 14.4912C112.808 14.7827 113.065 15.019 113.382 15.019Z" fill="white"/>
<path d="M138.872 24.8946L121.391 30.7266L121.691 31.4869L139.172 25.6549L138.872 24.8946Z" fill="white"/>
<path d="M139.652 26.8714L122.17 32.7034L122.47 33.4637L139.951 27.6317L139.652 26.8714Z" fill="white"/>
<path d="M140.431 28.8482L122.95 34.6802L123.25 35.4405L140.731 29.6085L140.431 28.8482Z" fill="white"/>
<path d="M120.131 32.1374C120.448 32.1374 120.705 31.9011 120.705 31.6096C120.705 31.3181 120.448 31.0818 120.131 31.0818C119.814 31.0818 119.557 31.3181 119.557 31.6096C119.557 31.9011 119.814 32.1374 120.131 32.1374Z" fill="white"/>
<path d="M150 43.7805H117.476V8.05713H150V43.7805Z" fill="white"/>
<path d="M150 43.7805H117.476V8.05713H150V43.7805ZM118.05 43.2527H149.426V8.58494H118.05V43.2527Z" fill="#E5E5E5"/>
<path d="M138.964 21.2607H130.811C130.696 21.2606 130.586 21.2185 130.504 21.1437C130.423 21.069 130.377 20.9676 130.377 20.8618V13.3622C130.377 13.2564 130.423 13.155 130.504 13.0802C130.586 13.0054 130.696 12.9634 130.811 12.9633H138.964C139.079 12.9634 139.189 13.0054 139.27 13.0802C139.351 13.155 139.397 13.2564 139.397 13.3622V20.8618C139.397 20.9676 139.351 21.069 139.27 21.1437C139.189 21.2185 139.079 21.2606 138.964 21.2607ZM130.811 13.1228C130.742 13.1229 130.676 13.1481 130.627 13.193C130.578 13.2379 130.551 13.2987 130.551 13.3622V20.8618C130.551 20.9253 130.578 20.9861 130.627 21.031C130.676 21.0758 130.742 21.1011 130.811 21.1012H138.964C139.033 21.1011 139.099 21.0758 139.148 21.031C139.196 20.9861 139.224 20.9253 139.224 20.8618V13.3622C139.224 13.2987 139.196 13.2379 139.148 13.193C139.099 13.1481 139.033 13.1229 138.964 13.1228H130.811Z" fill="#E5E5E5"/>
<path d="M136.622 22.1783H128.469C128.366 22.1781 128.266 22.1403 128.193 22.073C128.12 22.0057 128.079 21.9144 128.079 21.8192V14.3196C128.079 14.2244 128.12 14.1332 128.193 14.0658C128.266 13.9985 128.366 13.9607 128.469 13.9606H136.622C136.725 13.9607 136.825 13.9985 136.898 14.0658C136.971 14.1332 137.012 14.2244 137.012 14.3196V21.8192C137.012 21.9144 136.971 22.0057 136.898 22.073C136.825 22.1403 136.725 22.1782 136.622 22.1783Z" fill="#356169"/>
<path d="M145.114 25.3563H122.362V26.1651H145.114V25.3563Z" fill="#F1F1F1"/>
<path d="M145.114 27.465H122.362V28.2737H145.114V27.465Z" fill="#F1F1F1"/>
<path d="M145.114 29.5736H122.362V30.3824H145.114V29.5736Z" fill="#F1F1F1"/>
<path d="M145.114 33.2849H122.362V34.0937H145.114V33.2849Z" fill="#F1F1F1"/>
<path d="M145.114 35.3936H122.362V36.2023H145.114V35.3936Z" fill="#F1F1F1"/>
<path d="M145.114 37.5022H122.362V38.311H145.114V37.5022Z" fill="#F1F1F1"/>
<path d="M43.8158 97.6965H46.2085L47.3469 89.2065L43.8153 89.2067L43.8158 97.6965Z" fill="#FFB8B8"/>
<path d="M43.2053 96.978L47.9176 96.9778C48.714 96.9778 49.478 97.2689 50.0412 97.7869C50.6044 98.305 50.9208 99.0076 50.9208 99.7402V99.83L43.2055 99.8302L43.2053 96.978Z" fill="#2F2E41"/>
<path d="M27.0577 96.1889L29.3804 96.7178L32.7028 88.728L29.2748 87.9476L27.0577 96.1889Z" fill="#FFB8B8"/>
<path d="M26.653 95.3566L31.2273 96.3979C32.0004 96.5739 32.666 97.0253 33.0773 97.6527C33.4887 98.28 33.6123 99.032 33.421 99.7431L33.3976 99.8303L25.9081 98.1253L26.653 95.3566Z" fill="#2F2E41"/>
<path d="M35.9094 61.6757L33.8054 72.693C33.8054 72.693 32.9961 74.0329 33.3198 74.6284C33.6435 75.224 33.8054 75.224 33.3198 75.5217C32.8343 75.8195 32.1869 75.5217 32.3487 76.2662C32.4457 76.7075 32.4999 77.1559 32.5106 77.6061L27.9788 91.8988C27.9788 91.8988 25.0656 93.0899 27.1696 93.8343C29.2736 94.5787 31.3776 95.1742 31.8632 94.4298C32.3487 93.6854 31.8632 92.7921 31.8632 92.7921L39.3082 76.415C39.3082 76.415 40.4411 74.9262 40.4411 74.0329C40.4411 73.1396 44.1636 66.7377 44.1636 66.7377C44.1636 66.7377 44.3255 73.1396 44.4873 73.5863C44.6492 74.0329 44.1636 74.9262 44.1636 75.5217C44.1636 76.1173 43.8399 76.1173 44.1636 76.415C44.4873 76.7128 44.4873 80.1371 44.4873 80.1371C44.4873 80.1371 42.5451 93.3876 43.6781 93.5365C44.811 93.6854 48.048 93.3877 48.048 92.7921C48.0621 92.6369 48.0229 92.4815 47.9357 92.3479C47.8486 92.2143 47.718 92.1093 47.5624 92.0477L49.6665 80.7326C49.5782 80.281 49.6344 79.8155 49.8283 79.3927C50.152 78.7972 50.152 78.7972 50.152 78.4994C50.152 78.2016 49.9902 78.0527 50.152 77.9039C50.2577 77.7753 50.3146 77.6184 50.3138 77.4572C50.3138 77.4572 49.9901 76.5639 50.152 76.415C50.3139 76.2662 53.8745 65.1 52.7416 63.76C51.6086 62.4201 35.9094 61.6757 35.9094 61.6757Z" fill="#2F2E41"/>
<path d="M43.1479 37.9007C45.4719 37.9007 47.3559 36.1676 47.3559 34.0298C47.3559 31.8919 45.4719 30.1588 43.1479 30.1588C40.8238 30.1588 38.9398 31.8919 38.9398 34.0298C38.9398 36.1676 40.8238 37.9007 43.1479 37.9007Z" fill="#FFB8B8"/>
<path d="M40.1748 36.8331C40.3911 36.6996 40.3995 36.3941 40.327 36.1463C40.2228 35.9087 40.1578 35.6581 40.1339 35.4027C40.1649 34.712 41.1991 34.4349 41.2582 33.7476C41.2945 33.3249 40.9379 32.8574 41.1437 32.4914C41.2737 32.2603 41.5759 32.1832 41.8511 32.1388C42.9193 31.9691 44.0123 31.9826 45.0751 32.1786L45.2301 31.804L46.0178 32.282C46.0608 32.0495 46.4106 32.0262 46.6393 32.1378C46.8679 32.2494 47.0659 32.4421 47.3154 32.4793C47.7131 32.5386 48.0275 32.1424 48.0065 31.7612C47.9472 31.3756 47.759 31.0164 47.4679 30.7336C46.8055 29.9789 46.002 29.339 45.0951 28.8441L45.3137 28.4819L44.8456 28.6548L44.7943 28.2215L44.3383 28.4573L44.3318 28.067C43.8436 28.5827 42.9933 28.5649 42.247 28.6114C40.9993 28.6646 39.8007 29.0745 38.8183 29.7841C38.3279 30.1524 37.9262 30.6107 37.6389 31.1297C37.3517 31.6486 37.185 32.217 37.1497 32.7985C37.1073 33.7091 37.4486 34.8175 38.1796 35.4929C38.844 36.1067 39.8284 35.7342 40.1748 36.8331Z" fill="#2F2E41"/>
<path d="M53.4733 71.5869C53.2597 71.4025 53.0926 71.1773 52.9838 70.9271C52.8749 70.677 52.8271 70.4079 52.8435 70.1388C52.86 69.8698 52.9404 69.6073 53.0791 69.37C53.2177 69.1326 53.4112 68.9261 53.646 68.765L52.5237 64.6814L55.055 63.4487L56.552 69.236C56.8201 69.6168 56.927 70.0748 56.8525 70.5233C56.778 70.9718 56.5272 71.3795 56.1478 71.6693C55.7683 71.9591 55.2864 72.1107 54.7935 72.0955C54.3006 72.0803 53.8309 71.8993 53.4733 71.5869Z" fill="#FFB8B8"/>
<path d="M46.708 66.3021C41.5929 66.3025 36.8845 64.1728 36.8209 64.1436L36.7681 64.1193L36.3389 54.6431C36.2144 54.3082 33.7634 47.7005 33.3482 45.6003C32.9276 43.4724 39.0234 41.605 39.7636 41.3866L39.9316 39.6748L46.7626 38.9977L47.6284 41.188L50.0791 42.0333C50.3569 42.1292 50.5868 42.3155 50.7253 42.5569C50.8637 42.7984 50.9011 43.0781 50.8303 43.3432L49.4683 48.4385L52.1475 65.2961L52.0787 65.3246C50.3841 65.9973 48.5533 66.3305 46.708 66.3021Z" fill="#356169"/>
<path d="M52.815 67.3598L50.4444 58.3825L47.8749 47.5493L49.1792 42.15H50.2943C50.3147 42.15 52.3411 42.1779 52.7773 44.5858C53.1999 46.918 54.4741 54.3403 54.487 54.415L56.6406 67.0941L52.815 67.3598Z" fill="#356169"/>
<path d="M84.9216 100H0.222308C0.163348 100 0.1068 99.9785 0.0651089 99.9402C0.0234181 99.9018 0 99.8498 0 99.7956C0 99.7413 0.0234181 99.6893 0.0651089 99.651C0.1068 99.6126 0.163348 99.5911 0.222308 99.5911H84.9216C84.9805 99.5911 85.0371 99.6126 85.0788 99.651C85.1205 99.6893 85.1439 99.7413 85.1439 99.7956C85.1439 99.8498 85.1205 99.9018 85.0788 99.9402C85.0371 99.9785 84.9805 100 84.9216 100Z" fill="#CBCBCB"/>
<path d="M48.6063 79.4246L26.8181 66.3737L44.2694 41.7201L66.0576 54.771L48.6063 79.4246Z" fill="white"/>
<path d="M48.6063 79.4246L26.8181 66.3737L44.2694 41.7201L66.0576 54.771L48.6063 79.4246ZM27.4719 66.2466L48.4682 78.8232L65.4038 54.8981L44.4075 42.3215L27.4719 66.2466Z" fill="#E5E5E5"/>
<path d="M42.2932 55.6283L41.8981 56.1864L54.0738 63.4795L54.4689 62.9214L42.2932 55.6283Z" fill="#356169"/>
<path d="M41.266 57.0798L40.8709 57.6379L53.0466 64.9311L53.4417 64.373L41.266 57.0798Z" fill="#356169"/>
<path d="M40.2388 58.5306L39.8437 59.0887L52.0194 66.3819L52.4145 65.8237L40.2388 58.5306Z" fill="#356169"/>
<path d="M40.9944 55.7989C41.2554 55.7989 41.467 55.6043 41.467 55.3642C41.467 55.1242 41.2554 54.9296 40.9944 54.9296C40.7335 54.9296 40.5219 55.1242 40.5219 55.3642C40.5219 55.6043 40.7335 55.7989 40.9944 55.7989Z" fill="#6C63FF"/>
<path d="M46.7195 49.3752L46.3244 49.9333L58.5001 57.2265L58.8952 56.6683L46.7195 49.3752Z" fill="#E5E5E5"/>
<path d="M45.6923 50.8264L45.2972 51.3845L57.4729 58.6777L57.8679 58.1195L45.6923 50.8264Z" fill="#E5E5E5"/>
<path d="M44.6651 52.2779L44.27 52.8361L56.4457 60.1292L56.8408 59.5711L44.6651 52.2779Z" fill="#E5E5E5"/>
<path d="M45.4637 49.4851C45.7247 49.4851 45.9363 49.2905 45.9363 49.0504C45.9363 48.8103 45.7247 48.6157 45.4637 48.6157C45.2028 48.6157 44.9912 48.8103 44.9912 49.0504C44.9912 49.2905 45.2028 49.4851 45.4637 49.4851Z" fill="#E5E5E5"/>
<path d="M37.824 61.942L37.4289 62.5001L49.6046 69.7933L49.9997 69.2351L37.824 61.942Z" fill="#E5E5E5"/>
<path d="M36.7967 63.3932L36.4016 63.9513L48.5773 71.2444L48.9724 70.6863L36.7967 63.3932Z" fill="#E5E5E5"/>
<path d="M35.7695 64.8443L35.3744 65.4025L47.5501 72.6956L47.9452 72.1375L35.7695 64.8443Z" fill="#E5E5E5"/>
<path d="M36.5682 62.0518C36.8291 62.0518 37.0407 61.8572 37.0407 61.6172C37.0407 61.3771 36.8291 61.1825 36.5682 61.1825C36.3072 61.1825 36.0956 61.3771 36.0956 61.6172C36.0956 61.8572 36.3072 62.0518 36.5682 62.0518Z" fill="#E5E5E5"/>
<path d="M42.6712 65.8426C42.6573 65.5735 42.5794 65.3104 42.4431 65.0719C42.3067 64.8334 42.1152 64.6253 41.882 64.4623C41.6487 64.2992 41.3795 64.1852 41.0931 64.1283C40.8068 64.0713 40.5104 64.0728 40.2248 64.1326L37.575 60.6975L34.913 61.6696L38.729 66.4724C38.8701 66.9071 39.1796 67.2791 39.5989 67.5179C40.0182 67.7568 40.5182 67.8458 41.0042 67.7682C41.4901 67.6906 41.9282 67.4517 42.2354 67.0968C42.5426 66.7419 42.6977 66.2956 42.6712 65.8426Z" fill="#FFB8B8"/>
<path d="M37.5068 65.5881L29.489 56.0198L32.4932 47.3345C32.7134 45.1509 34.1988 44.5411 34.262 44.5162L34.3584 44.4781L36.9726 50.8911L35.0532 55.5996L39.7644 62.8884L37.5068 65.5881Z" fill="#356169"/>
<path d="M88.7909 63.5991H87.4571V64.0081H88.7909V63.5991Z" fill="#CBCBCB"/>
<path d="M126.346 64.0081H123.664V63.5991H126.346V64.0081ZM120.981 64.0081H118.299V63.5991H120.981L120.981 64.0081ZM115.616 64.0081H112.934V63.5991H115.616V64.0081ZM110.251 64.0081H107.569V63.5991H110.251V64.0081ZM104.886 64.0081H102.204V63.5991H104.886V64.0081ZM99.521 64.0081H96.8385V63.5991H99.521V64.0081ZM94.156 64.0081H91.4735V63.5991H94.156V64.0081Z" fill="#CBCBCB"/>
<path d="M130.585 64.0082H129.029V63.5992H130.14V62.5767H130.585V64.0082Z" fill="#CBCBCB"/>
<path d="M130.585 60.0941H130.14V61.3354H130.585V60.0941Z" fill="#CBCBCB"/>
<path d="M130.585 57.6257H130.14V58.8527H130.585V57.6257Z" fill="#CBCBCB"/>
</g>
<defs>
<clipPath id="clip0_48_266">
<rect width="150" height="100" fill="white"/>
</clipPath>
</defs>
</svg>
