<svg width="350" height="250" viewBox="0 0 350 250" fill="none" xmlns="http://www.w3.org/2000/svg">
<g clip-path="url(#clip0_52_481)">
<path d="M162.321 240.794C162.711 243.807 164.146 246.564 165.676 249.219C165.727 249.309 165.779 249.398 165.832 249.489H181.74C182.062 249.407 182.379 249.316 182.696 249.219C184.492 248.68 186.189 247.857 187.719 246.784C193.571 242.628 195.823 234.775 194.806 227.738C194.173 223.367 192.227 218.903 188.436 216.549C186.377 215.313 183.922 214.889 181.559 215.362C181.499 215.372 181.439 215.386 181.377 215.398C180.394 215.585 179.462 215.976 178.643 216.543C177.824 217.111 177.136 217.843 176.624 218.692C174.817 221.856 175.893 225.775 176.782 229.297C177.667 232.819 178.148 237.034 175.577 239.631C175.954 238.545 176.03 237.379 175.799 236.254C175.567 235.129 175.036 234.085 174.259 233.23C173.482 232.374 172.489 231.738 171.38 231.386C170.271 231.035 169.087 230.98 167.95 231.229C167.764 231.268 167.581 231.313 167.4 231.367C166.963 231.493 166.542 231.667 166.145 231.885C163.112 233.554 161.884 237.398 162.321 240.794Z" fill="#F1F1F1"/>
<path d="M171.753 249.219C171.312 249.32 170.87 249.409 170.425 249.489H172.831C173.146 249.405 173.459 249.316 173.77 249.219C174.453 249.008 175.126 248.767 175.788 248.494C178.473 247.42 180.858 245.725 182.741 243.553C183.646 242.49 184.385 241.3 184.934 240.022C185.529 238.578 185.907 237.056 186.056 235.504C186.329 232.295 186.112 229.064 185.41 225.92C184.75 222.678 183.685 219.53 182.24 216.546C182.066 216.189 181.886 215.833 181.7 215.48C181.688 215.451 181.668 215.425 181.644 215.405C181.619 215.384 181.59 215.369 181.559 215.362C181.496 215.349 181.431 215.363 181.377 215.398C181.313 215.434 181.266 215.493 181.244 215.563C181.223 215.633 181.23 215.708 181.264 215.773C182.754 218.638 183.884 221.672 184.629 224.808C185.395 227.883 185.732 231.047 185.629 234.212C185.575 237.156 184.642 240.019 182.949 242.444C181.302 244.628 179.136 246.38 176.641 247.546C175.08 248.282 173.441 248.843 171.753 249.219Z" fill="#F1F1F1"/>
<path d="M166.474 249.489H167.184C167.263 249.4 167.34 249.309 167.415 249.219C169.03 247.285 170.124 244.98 170.596 242.518C171.17 239.446 170.724 236.274 169.325 233.472C168.934 232.686 168.474 231.935 167.95 231.229C167.764 231.268 167.581 231.313 167.4 231.367C169.403 233.959 170.43 237.157 170.306 240.413C170.182 243.669 168.914 246.782 166.719 249.219C166.64 249.309 166.558 249.4 166.474 249.489Z" fill="#F1F1F1"/>
<path d="M346.726 83.9575L275.383 109.459L244.49 25.5011L315.832 0L346.726 83.9575Z" fill="#F1F1F1"/>
<path d="M346.726 83.9575L275.383 109.459L244.49 25.5011L315.832 0L346.726 83.9575Z" fill="#F1F1F1"/>
<path d="M316.124 40.7352L275.334 55.3152L276.034 57.2159L316.823 42.6359L316.124 40.7352Z" fill="#F1F1F1"/>
<path d="M317.942 45.6771L277.153 60.2571L277.852 62.1578L318.641 47.5778L317.942 45.6771Z" fill="#F1F1F1"/>
<path d="M319.76 50.619L278.971 65.199L279.671 67.0997L320.46 52.5197L319.76 50.619Z" fill="#F1F1F1"/>
<path d="M272.47 59.049C273.21 59.049 273.809 58.4582 273.809 57.7294C273.809 57.0007 273.21 56.4099 272.47 56.4099C271.731 56.4099 271.131 57.0007 271.131 57.7294C271.131 58.4582 271.731 59.049 272.47 59.049Z" fill="#F1F1F1"/>
<path d="M308.288 19.4405L267.498 34.0205L268.198 35.9212L308.987 21.3412L308.288 19.4405Z" fill="#F1F1F1"/>
<path d="M310.106 24.3824L269.317 38.9624L270.016 40.8631L310.806 26.2831L310.106 24.3824Z" fill="#F1F1F1"/>
<path d="M311.925 29.3243L271.135 43.9043L271.835 45.805L312.624 31.225L311.925 29.3243Z" fill="#F1F1F1"/>
<path d="M264.558 37.5475C265.298 37.5475 265.897 36.9567 265.897 36.228C265.897 35.4992 265.298 34.9084 264.558 34.9084C263.819 34.9084 263.219 35.4992 263.219 36.228C263.219 36.9567 263.819 37.5475 264.558 37.5475Z" fill="#F1F1F1"/>
<path d="M324.035 62.2366L283.246 76.8167L283.946 78.7174L324.735 64.1374L324.035 62.2366Z" fill="#F1F1F1"/>
<path d="M325.854 67.1785L285.064 81.7585L285.764 83.6593L326.553 69.0793L325.854 67.1785Z" fill="#F1F1F1"/>
<path d="M327.672 72.1204L286.883 86.7004L287.582 88.6012L328.372 74.0211L327.672 72.1204Z" fill="#F1F1F1"/>
<path d="M280.306 80.3436C281.045 80.3436 281.645 79.7529 281.645 79.0241C281.645 78.2954 281.045 77.7046 280.306 77.7046C279.567 77.7046 278.967 78.2954 278.967 79.0241C278.967 79.7529 279.567 80.3436 280.306 80.3436Z" fill="#F1F1F1"/>
<path d="M350 109.451H274.111V20.1426H350V109.451Z" fill="#F1F1F1"/>
<path d="M350 109.451H274.111V20.1426H350V109.451ZM275.45 108.131H348.661V21.4621H275.45V108.131Z" fill="#C8C8C8"/>
<path d="M324.248 53.1516H305.225C304.957 53.1513 304.7 53.0461 304.51 52.8592C304.32 52.6722 304.214 52.4187 304.213 52.1543V33.4052C304.214 33.1408 304.32 32.8874 304.51 32.7004C304.7 32.5134 304.957 32.4083 305.225 32.408H324.248C324.517 32.4083 324.774 32.5134 324.963 32.7004C325.153 32.8874 325.26 33.1408 325.26 33.4052V52.1543C325.26 52.4187 325.153 52.6722 324.963 52.8592C324.774 53.0461 324.517 53.1513 324.248 53.1516ZM305.225 32.8069C305.064 32.807 304.91 32.8701 304.796 32.9823C304.682 33.0945 304.618 33.2466 304.618 33.4052V52.1543C304.618 52.313 304.682 52.4651 304.796 52.5773C304.91 52.6894 305.064 52.7525 305.225 52.7527H324.248C324.409 52.7525 324.564 52.6894 324.677 52.5773C324.791 52.4651 324.855 52.313 324.855 52.1543V33.4053C324.855 33.2466 324.791 33.0945 324.677 32.9823C324.564 32.8702 324.409 32.807 324.248 32.8069H305.225Z" fill="#C8C8C8"/>
<path d="M318.784 55.4456H299.761C299.52 55.4453 299.288 55.3507 299.118 55.1824C298.947 55.0141 298.851 54.786 298.851 54.548V35.7989C298.851 35.561 298.947 35.3328 299.118 35.1646C299.288 34.9963 299.52 34.9016 299.761 34.9014H318.784C319.026 34.9016 319.257 34.9963 319.428 35.1646C319.599 35.3328 319.695 35.561 319.695 35.7989V54.548C319.695 54.786 319.599 55.0141 319.428 55.1824C319.257 55.3507 319.026 55.4453 318.784 55.4456Z" fill="#C21D03"/>
<path d="M338.598 63.3909H285.512V65.4128H338.598V63.3909Z" fill="#F1F1F1"/>
<path d="M338.598 68.6624H285.512V70.6842H338.598V68.6624Z" fill="#F1F1F1"/>
<path d="M338.598 73.9341H285.512V75.956H338.598V73.9341Z" fill="#F1F1F1"/>
<path d="M338.598 83.2122H285.512V85.234H338.598V83.2122Z" fill="#F1F1F1"/>
<path d="M338.598 88.4839H285.512V90.5058H338.598V88.4839Z" fill="#F1F1F1"/>
<path d="M338.598 93.7556H285.512V95.7775H338.598V93.7556Z" fill="#F1F1F1"/>
<path d="M102.237 244.241H107.82L110.476 223.016L102.236 223.017L102.237 244.241Z" fill="#FFB8B8"/>
<path d="M100.812 242.445L111.808 242.445C113.666 242.445 115.449 243.172 116.763 244.467C118.077 245.763 118.815 247.519 118.815 249.351V249.575L100.813 249.576L100.812 242.445Z" fill="#232121"/>
<path d="M63.1348 240.472L68.5543 241.795L76.3066 221.82L68.3079 219.869L63.1348 240.472Z" fill="#FFB8B8"/>
<path d="M62.1903 238.391L72.8637 240.995C74.6676 241.435 76.2206 242.563 77.1805 244.132C78.1403 245.7 78.4288 247.58 77.9824 249.358L77.9277 249.576L60.4524 245.313L62.1903 238.391Z" fill="#232121"/>
<path d="M83.7886 154.189L78.8792 181.732C78.8792 181.732 76.9909 185.082 77.7462 186.571C78.5015 188.06 78.8792 188.06 77.7462 188.804C76.6133 189.549 75.1027 188.804 75.4804 190.665C75.7067 191.769 75.8331 192.89 75.858 194.015L65.2839 229.747C65.2839 229.747 58.4863 232.725 63.3957 234.586C68.3051 236.447 73.2145 237.935 74.3474 236.074C75.4803 234.213 74.3474 231.98 74.3474 231.98L91.7191 191.037C91.7191 191.037 94.3626 187.315 94.3626 185.082C94.3626 182.849 103.048 166.844 103.048 166.844C103.048 166.844 103.426 182.849 103.804 183.965C104.181 185.082 103.048 187.315 103.048 188.804C103.048 190.293 102.293 190.293 103.048 191.037C103.804 191.782 103.804 200.343 103.804 200.343C103.804 200.343 99.272 233.469 101.916 233.841C104.559 234.213 112.112 233.469 112.112 231.98C112.145 231.592 112.053 231.203 111.85 230.869C111.647 230.536 111.342 230.273 110.979 230.119L115.888 201.831C115.682 200.702 115.814 199.539 116.266 198.482C117.021 196.993 117.021 196.993 117.021 196.248C117.021 195.504 116.644 195.132 117.021 194.759C117.268 194.438 117.401 194.046 117.399 193.643C117.399 193.643 116.644 191.41 117.021 191.037C117.399 190.665 125.707 162.75 123.064 159.4C120.42 156.05 83.7886 154.189 83.7886 154.189Z" fill="#232121"/>
<path d="M100.678 94.7517C106.101 94.7517 110.497 90.419 110.497 85.0743C110.497 79.7297 106.101 75.397 100.678 75.397C95.2556 75.397 90.8596 79.7297 90.8596 85.0743C90.8596 90.419 95.2556 94.7517 100.678 94.7517Z" fill="#FFB8B8"/>
<path d="M93.741 92.0826C94.2459 91.7489 94.2655 90.9853 94.0962 90.3657C93.8532 89.7716 93.7013 89.1451 93.6457 88.5068C93.718 86.78 96.1311 86.0873 96.269 84.3689C96.3538 83.3121 95.5217 82.1435 96.0019 81.2285C96.3051 80.6506 97.0103 80.4579 97.6525 80.347C100.145 79.9227 102.695 79.9565 105.175 80.4466L105.537 79.5099L107.375 80.705C107.475 80.1237 108.291 80.0655 108.825 80.3444C109.358 80.6234 109.82 81.1052 110.403 81.1982C111.33 81.3465 112.064 80.356 112.015 79.403C111.877 78.4389 111.438 77.541 110.758 76.8339C109.213 74.9472 107.338 73.3475 105.222 72.1103L105.732 71.2046L104.64 71.6369L104.52 70.5537L103.456 71.1431L103.441 70.1675C102.302 71.4567 100.318 71.4123 98.5763 71.5285C95.6649 71.6614 92.8682 72.6862 90.5759 74.4602C89.4316 75.381 88.4944 76.5266 87.8241 77.8241C87.1538 79.1215 86.765 80.5424 86.6825 81.9961C86.5836 84.2728 87.38 87.0438 89.0856 88.7321C90.6359 90.2666 92.9329 89.3354 93.741 92.0826Z" fill="#232121"/>
<path d="M124.771 178.967C124.273 178.506 123.883 177.943 123.629 177.318C123.375 176.692 123.263 176.02 123.302 175.347C123.34 174.674 123.528 174.018 123.851 173.425C124.175 172.832 124.626 172.315 125.174 171.912L122.555 161.703L128.462 158.622L131.955 173.09C132.58 174.042 132.83 175.187 132.656 176.308C132.482 177.429 131.897 178.449 131.012 179.173C130.126 179.898 129.002 180.277 127.852 180.239C126.702 180.201 125.606 179.748 124.771 178.967Z" fill="#FFB8B8"/>
<path d="M108.985 165.755C97.0499 165.756 86.0637 160.432 85.9154 160.359L85.7922 160.298L84.7906 136.608C84.5002 135.77 78.781 119.251 77.8124 114.001C76.831 108.681 91.0544 104.012 92.7816 103.466L93.1735 99.1869L109.113 97.4941L111.133 102.97L116.851 105.083C117.499 105.323 118.036 105.789 118.359 106.392C118.682 106.996 118.769 107.695 118.604 108.358L115.426 121.096L121.677 163.24L121.517 163.311C117.563 164.993 113.291 165.826 108.985 165.755Z" fill="#C21D03"/>
<path d="M123.235 168.399L117.704 145.956L111.708 118.873L114.752 105.375H117.353C117.401 105.375 122.129 105.445 123.147 111.464C124.133 117.295 127.106 135.851 127.136 136.037L132.161 167.735L123.235 168.399Z" fill="#C21D03"/>
<path d="M198.15 250H0.518718C0.381146 250 0.249199 249.946 0.151921 249.85C0.0546422 249.754 0 249.624 0 249.489C0 249.353 0.0546422 249.223 0.151921 249.127C0.249199 249.031 0.381146 248.978 0.518718 248.978H198.15C198.288 248.978 198.42 249.031 198.517 249.127C198.614 249.223 198.669 249.353 198.669 249.489C198.669 249.624 198.614 249.754 198.517 249.85C198.42 249.946 198.288 250 198.15 250Z" fill="#C8C8C8"/>
<path d="M113.415 198.561L62.5757 165.934L103.295 104.3L154.134 136.927L113.415 198.561Z" fill="#F1F1F1"/>
<path d="M113.415 198.561L62.5757 165.934L103.295 104.3L154.134 136.927L113.415 198.561ZM64.1013 165.616L113.093 197.058L152.609 137.245L103.618 105.804L64.1013 165.616Z" fill="#C8C8C8"/>
<path d="M98.6841 139.071L97.7622 140.466L126.172 158.699L127.094 157.304L98.6841 139.071Z" fill="#C21D03"/>
<path d="M96.2873 142.699L95.3655 144.095L123.775 162.328L124.697 160.932L96.2873 142.699Z" fill="#C21D03"/>
<path d="M93.8904 146.327L92.9685 147.722L121.378 165.955L122.3 164.559L93.8904 146.327Z" fill="#C21D03"/>
<path d="M95.6538 139.497C96.2627 139.497 96.7564 139.011 96.7564 138.41C96.7564 137.81 96.2627 137.324 95.6538 137.324C95.0449 137.324 94.5513 137.81 94.5513 138.41C94.5513 139.011 95.0449 139.497 95.6538 139.497Z" fill="#C21D03"/>
<path d="M109.012 123.438L108.09 124.833L136.5 143.066L137.422 141.671L109.012 123.438Z" fill="#C8C8C8"/>
<path d="M106.615 127.066L105.693 128.461L134.103 146.694L135.025 145.299L106.615 127.066Z" fill="#C8C8C8"/>
<path d="M104.219 130.695L103.297 132.09L131.707 150.323L132.628 148.928L104.219 130.695Z" fill="#C8C8C8"/>
<path d="M106.082 123.713C106.691 123.713 107.185 123.226 107.185 122.626C107.185 122.026 106.691 121.54 106.082 121.54C105.473 121.54 104.979 122.026 104.979 122.626C104.979 123.226 105.473 123.713 106.082 123.713Z" fill="#C8C8C8"/>
<path d="M88.2559 154.855L87.334 156.25L115.744 174.483L116.666 173.088L88.2559 154.855Z" fill="#C8C8C8"/>
<path d="M85.8591 158.483L84.9373 159.878L113.347 178.111L114.269 176.716L85.8591 158.483Z" fill="#C8C8C8"/>
<path d="M83.4622 162.111L82.5403 163.506L110.95 181.739L111.872 180.344L83.4622 162.111Z" fill="#C8C8C8"/>
<path d="M85.3257 155.13C85.9346 155.13 86.4283 154.643 86.4283 154.043C86.4283 153.443 85.9346 152.956 85.3257 152.956C84.7168 152.956 84.2231 153.443 84.2231 154.043C84.2231 154.643 84.7168 155.13 85.3257 155.13Z" fill="#C8C8C8"/>
<path d="M99.5661 164.607C99.5337 163.934 99.3521 163.276 99.0339 162.68C98.7158 162.084 98.2688 161.563 97.7246 161.156C97.1804 160.748 96.5521 160.463 95.884 160.321C95.216 160.178 94.5243 160.182 93.8579 160.332L87.6751 151.744L81.4636 154.174L90.3678 166.181C90.6969 167.268 91.4191 168.198 92.3975 168.795C93.376 169.392 94.5426 169.615 95.6764 169.421C96.8102 169.227 97.8324 168.629 98.5493 167.742C99.2662 166.855 99.628 165.739 99.5661 164.607Z" fill="#FFB8B8"/>
<path d="M87.5161 163.97L68.8079 140.05L75.8177 118.336C76.3314 112.877 79.7973 111.353 79.9448 111.291L80.1698 111.196L86.2696 127.228L81.7909 138.999L92.7837 157.221L87.5161 163.97Z" fill="#C21D03"/>
<path d="M207.179 158.998H204.067V160.021H207.179V158.998Z" fill="#C8C8C8"/>
<path d="M294.808 160.021H288.549V158.998H294.808V160.021ZM282.289 160.021H276.03V158.998H282.289L282.289 160.021ZM269.771 160.021H263.512V158.998H269.771V160.021ZM257.253 160.021H250.993V158.998H257.253V160.021ZM244.734 160.021H238.475V158.998H244.734V160.021ZM232.216 160.021H225.957V158.998H232.216V160.021ZM219.697 160.021H213.438V158.998H219.697V160.021Z" fill="#C8C8C8"/>
<path d="M304.698 160.02H301.067V158.998H303.661V156.442H304.698V160.02Z" fill="#C8C8C8"/>
<path d="M304.698 150.235H303.66V153.339H304.698V150.235Z" fill="#C8C8C8"/>
<path d="M304.698 144.064H303.66V147.132H304.698V144.064Z" fill="#C8C8C8"/>
</g>
<defs>
<clipPath id="clip0_52_481">
<rect width="350" height="250" fill="white"/>
</clipPath>
</defs>
</svg>
