<svg width="31" height="31" viewBox="0 0 31 31" fill="none" xmlns="http://www.w3.org/2000/svg">
<g clip-path="url(#clip0_40_50)">
<path d="M11.6164 11.8071V11.8062L17.9142 15.5297L21.6669 13.9706C22.5587 13.5909 23.5278 13.4277 24.4948 13.4941C23.2083 8.54412 18.1008 5.56001 13.0855 6.82883C10.8258 7.40059 8.86348 8.7828 7.58142 10.7059L7.67716 10.7032C9.06691 10.7009 10.4302 11.0829 11.6164 11.8071Z" fill="#0364B8"/>
<path d="M11.6174 11.8062C10.4308 11.0824 9.06717 10.7008 7.67725 10.7037L7.58152 10.7068C3.44152 10.758 0.12696 14.1118 0.178136 18.198C0.197933 19.6822 0.66759 21.1254 1.52505 22.3371L7.07681 20.0306L9.54608 19.0044L15.0423 16.7209L17.913 15.5297L11.6174 11.8062Z" fill="#0078D4"/>
<path d="M24.4939 13.4932C24.3568 13.4838 24.2196 13.4788 24.0823 13.4782C23.2523 13.4775 22.4307 13.645 21.6673 13.9706L17.9138 15.5293L19.0021 16.1721L22.5691 18.2804L24.1264 19.2003L29.4474 22.3459C31.0436 19.4227 29.9358 15.7746 26.9729 14.1991C26.2056 13.7915 25.3608 13.5509 24.4939 13.4932Z" fill="#1490DF"/>
<path d="M24.1255 19.2003L22.5682 18.2804L19.0026 16.1712L17.9151 15.5293L15.043 16.7209L9.54686 19.004L7.07627 20.0293L1.52362 22.3362C2.9248 24.3241 5.22333 25.5082 7.67715 25.5069H24.0832C26.3244 25.5078 28.3851 24.2937 29.4483 22.3463L24.1255 19.2003Z" fill="#28A8EA"/>
</g>
<defs>
<clipPath id="clip0_40_50">
<rect width="30" height="30" fill="white" transform="translate(0.17804 0.801483)"/>
</clipPath>
</defs>
</svg>
