<svg width="31" height="31" viewBox="0 0 31 31" fill="none" xmlns="http://www.w3.org/2000/svg">
<path d="M19.9538 19.7134H10.9097L7.03613 26.4431C7.50246 26.6791 8.03143 26.83 8.37378 26.83C11.9319 26.83 19.1928 26.7775 22.7972 26.7775C23.1678 26.7775 23.5145 26.6518 23.8255 26.455L19.9538 19.7134Z" fill="#4185F3"/>
<path d="M7.03654 26.4449L10.9101 19.7151H3.0611C3.05713 20.1828 3.22434 20.6107 3.4864 21.0987C4.2161 22.4562 5.45052 24.6277 6.17581 25.7615C6.35493 26.0407 7.06478 26.459 7.03654 26.4449Z" fill="#1767D1"/>
<path d="M19.9538 19.7139L23.8273 26.4546C24.3289 26.1369 24.7379 25.634 25.0035 25.1712C25.7665 23.8466 26.5377 22.5267 27.317 21.2116C27.6417 20.6646 27.7684 20.1731 27.7604 19.7134L19.9538 19.7139Z" fill="#E94235"/>
<path d="M10.9106 19.7151L15.4282 11.9024L11.3906 5.20618C10.9538 5.49206 10.5806 5.87985 10.4112 6.175C8.64869 9.25 5.0981 15.5513 3.31266 18.666C3.12984 18.9844 3.04225 19.3485 3.0603 19.7151H10.9106Z" fill="#30A753"/>
<path d="M19.9543 19.7147L15.4282 11.9028L19.3551 5.21326C19.7919 5.49914 20.2715 5.87943 20.4409 6.17502C22.2034 9.24914 25.7535 15.5509 27.5394 18.6652C27.7238 18.9855 27.7794 19.3481 27.7618 19.7147H19.9543Z" fill="#F9BC00"/>
<path d="M11.3906 5.20708L15.4287 11.9024L19.3551 5.2137C18.9497 4.97723 18.3762 4.83826 17.8198 4.82105C16.2731 4.76988 13.7654 4.74914 12.4154 4.80782C12.0832 4.82194 11.3945 5.20444 11.3906 5.20708Z" fill="#0F8038"/>
</svg>
