<svg width="32" height="39" viewBox="0 0 32 39" fill="none" xmlns="http://www.w3.org/2000/svg">
<path d="M17.8793 38.8825L15.3048 31.5065C17.7846 30.3896 20.1063 28.8874 22.2544 27.1349L17.8793 38.8825ZM6.04927 20.2212L0 17.0821L9.63461 11.7475C8.19732 14.3667 6.96535 17.1976 6.04927 20.2212ZM27.4981 3.85166C27.9404 3.85166 28.3352 3.85166 28.6669 3.94795C28.9354 6.62485 28.6353 12.1327 23.4548 18.4494C20.7697 21.7426 17.5634 24.2654 13.9623 25.9409L10.5665 21.8967C12.0196 17.448 14.0887 13.5386 16.7579 10.2839C21.1172 4.96864 25.0026 3.85166 27.4981 3.85166ZM27.4981 0C24.3708 0 19.6325 1.32882 14.5151 7.5685C11.0561 11.7861 8.98704 16.4273 7.64451 20.4908C7.20227 21.9352 7.50236 23.5144 8.37106 24.5928L11.7353 28.6756C12.3355 29.4074 13.141 29.8503 13.9781 29.8503C14.3414 29.8503 14.7204 29.7348 15.0837 29.5615C18.4637 27.9823 22.2228 25.4017 25.6818 21.1841C34.6214 10.2839 31.273 0.751073 31.273 0.751073C31.273 0.751073 29.8357 0 27.4981 0ZM20.1063 14.3667C18.8744 12.8645 18.8744 10.4187 20.1063 8.91658C21.3383 7.41444 23.3442 7.41444 24.5762 8.91658C25.7923 10.4187 25.8081 12.8645 24.5762 14.3667C23.3442 15.8688 21.3383 15.8688 20.1063 14.3667ZM6.99694 38.5166L12.7461 31.5065C12.2091 31.3332 11.6879 31.0443 11.2141 30.6399L4.76992 38.5166H6.99694ZM0.300095 38.5166H2.52711L10.0611 29.3496L7.81825 26.6342L0.300095 35.8011V38.5166ZM0.300095 33.0665L6.76003 25.2091C6.42834 24.6313 6.19142 24.0151 6.04927 23.341L0.300095 30.351V33.0665Z" fill="#4B4848"/>
</svg>
